SplineFontDB: 3.2
FontName: CMUSerifMono-BoldItalic
FullName: CMU Serif Mono Bold Italic
FamilyName: CMU Serif Mono Bold
Weight: Bold
Copyright: An edit of CMU Serif Bold Italic and some AMS glyphs to be compatible with JuliaMono
Version: 0.044; ttfautohint (v1.8.4)
ItalicAngle: -9
UnderlinePosition: -250
UnderlineWidth: 100
Ascent: 1600
Descent: 400
InvalidEm: 0
sfntRevision: 0x00000b43
LayerCount: 2
Layer: 0 1 "Back" 1
Layer: 1 1 "Fore" 0
XUID: [1021 821 -1512940191 1964]
StyleMap: 0x0001
FSType: 0
OS2Version: 4
OS2_WeightWidthSlopeOnly: 0
OS2_UseTypoMetrics: 1
CreationTime: 1643970042
ModificationTime: 1658081854
PfmFamily: 17
TTFWeight: 400
TTFWidth: 5
LineGap: 0
VLineGap: 0
Panose: 2 11 6 9 6 3 0 2 0 4
OS2TypoAscent: 1900
OS2TypoAOffset: 0
OS2TypoDescent: -480
OS2TypoDOffset: 0
OS2TypoLinegap: 0
OS2WinAscent: 2400
OS2WinAOffset: 0
OS2WinDescent: 600
OS2WinDOffset: 0
HheadAscent: 1900
HheadAOffset: 0
HheadDescent: -480
HheadDOffset: 0
OS2SubXSize: 1300
OS2SubYSize: 1200
OS2SubXOff: 0
OS2SubYOff: 150
OS2SupXSize: 1300
OS2SupYSize: 1200
OS2SupXOff: 0
OS2SupYOff: 700
OS2StrikeYSize: 100
OS2StrikeYPos: 1100
OS2CapHeight: 1450
OS2XHeight: 1100
OS2Vendor: 'UKWN'
OS2CodePages: 602801bf.00000000
OS2UnicodeRanges: e501ffff.fac5ffff.0f04e877.05c0a06c
Lookup: 1 0 0 "'aalt' Access All Alternates lookup 0" { "'aalt' Access All Alternates lookup 0 subtable"  } ['aalt' ('DFLT' <'dflt' > 'cyrl' <'BGR ' 'SRB ' 'dflt' > 'hebr' <'IWR ' 'dflt' > 'latn' <'AZE ' 'CAT ' 'CRT ' 'KAZ ' 'MOL ' 'NLD ' 'ROM ' 'TAT ' 'TRK ' 'dflt' > ) ]
Lookup: 3 0 0 "'aalt' Access All Alternates lookup 1" { "'aalt' Access All Alternates lookup 1 subtable"  } ['aalt' ('DFLT' <'dflt' > 'cyrl' <'BGR ' 'SRB ' 'dflt' > 'hebr' <'IWR ' 'dflt' > 'latn' <'AZE ' 'CAT ' 'CRT ' 'KAZ ' 'MOL ' 'NLD ' 'ROM ' 'TAT ' 'TRK ' 'dflt' > ) ]

StartChar: A
Encoding: 65 65 0
Width: 1200
VWidth: 2048
GlyphClass: 2
Flags: W
LayerCount: 2
Fore
SplineSet
-35.5 45.099609375 m 4,0,1
 -35.5 79.2001953125 -35.5 79.2001953125 -17.224609375 93.5 c 132,-1,2
 1.0498046875 107.799804688 1.0498046875 107.799804688 24.849609375 107.799804688 c 132,-1,3
 48.650390625 107.799804688 48.650390625 107.799804688 83.5 113.849609375 c 132,-1,4
 118.349609375 119.900390625 118.349609375 119.900390625 140.450195312 135.299804688 c 4,5,6
 165.099609375 152.900390625 165.099609375 152.900390625 188.049804688 202.400390625 c 6,7,-1
 811.099609375 1524.59960938 l 6,8,9
 830.650390625 1565.29980469 830.650390625 1565.29980469 847.650390625 1576.84960938 c 132,-1,10
 864.650390625 1588.40039062 864.650390625 1588.40039062 901.200195312 1588.40039062 c 4,11,12
 922.450195312 1588.40039062 922.450195312 1588.40039062 933.5 1585.09960938 c 132,-1,13
 944.549804688 1581.79980469 944.549804688 1581.79980469 950.075195312 1564.75 c 132,-1,14
 955.599609375 1547.70019531 955.599609375 1547.70019531 956.450195312 1542.20019531 c 132,-1,15
 957.299804688 1536.70019531 957.299804688 1536.70019531 960.700195312 1502.59960938 c 6,16,-1
 1065.25 268.400390625 l 6,17,18
 1066.95019531 240.900390625 1066.95019531 240.900390625 1070.34960938 202.400390625 c 4,19,20
 1075.45019531 133.099609375 1075.45019531 133.099609375 1080.54980469 121.549804688 c 132,-1,21
 1085.65039062 110 1085.65039062 110 1110.29980469 107.799804688 c 4,22,23
 1117.09960938 107.799804688 1117.09960938 107.799804688 1120.5 107.799804688 c 6,24,-1
 1185.09960938 107.799804688 l 6,25,26
 1235.25 107.799804688 1235.25 107.799804688 1235.25 60.5 c 4,27,28
 1235.25 0 1235.25 0 1188.5 0 c 4,29,30
 1183.40039062 0 1183.40039062 0 1156.625 2.2001953125 c 132,-1,31
 1129.84960938 4.400390625 1129.84960938 4.400390625 1082.67480469 5.5 c 132,-1,32
 1035.5 6.599609375 1035.5 6.599609375 981.099609375 6.599609375 c 6,33,-1
 929.25 6.599609375 l 6,34,35
 868.049804688 6.599609375 868.049804688 6.599609375 817.049804688 5.5 c 132,-1,36
 766.049804688 4.400390625 766.049804688 4.400390625 736.299804688 2.2001953125 c 132,-1,37
 706.549804688 0 706.549804688 0 699.75 0 c 4,38,39
 658.099609375 0 658.099609375 0 658.099609375 47.2998046875 c 4,40,41
 658.099609375 107.799804688 658.099609375 107.799804688 711.650390625 107.799804688 c 6,42,-1
 725.25 107.799804688 l 6,43,44
 783.049804688 107.799804688 783.049804688 107.799804688 834.900390625 119.900390625 c 5,45,-1
 811.099609375 425.700195312 l 5,46,-1
 407.349609375 425.700195312 l 5,47,-1
 269.650390625 130.900390625 l 5,48,49
 304.5 117.700195312 304.5 117.700195312 346.150390625 112.75 c 132,-1,50
 387.799804688 107.799804688 387.799804688 107.799804688 401.825195312 100.099609375 c 132,-1,51
 415.849609375 92.400390625 415.849609375 92.400390625 415.849609375 60.5 c 4,52,53
 415.849609375 0 415.849609375 0 369.099609375 0 c 4,54,55
 364 0 364 0 337.650390625 2.2001953125 c 132,-1,56
 311.299804688 4.400390625 311.299804688 4.400390625 264.974609375 5.5 c 132,-1,57
 218.650390625 6.599609375 218.650390625 6.599609375 166.799804688 6.599609375 c 4,58,59
 125.150390625 6.599609375 125.150390625 6.599609375 88.599609375 5.5 c 132,-1,60
 52.0498046875 4.400390625 52.0498046875 4.400390625 31.224609375 3.2998046875 c 132,-1,61
 10.400390625 2.2001953125 10.400390625 2.2001953125 7 2.2001953125 c 4,62,63
 -35.5 2.2001953125 -35.5 2.2001953125 -35.5 45.099609375 c 4,0,1
459.200195312 533.5 m 5,64,-1
 800.049804688 533.5 l 5,65,-1
 748.200195312 1148.40039062 l 5,66,-1
 459.200195312 533.5 l 5,64,-1
EndSplineSet
Validated: 513
Substitution2: "Single Substitution lookup 63 subtable" ordfeminine
Substitution2: "'fwid' Full Widths lookup 32 subtable" uniFF21
Substitution2: "'c2sc' Capitals to Small Capitals lookup 26 subtable" a.sc
AlternateSubs2: "'aalt' Access All Alternates lookup 1 subtable" ordfeminine a.sc uniFF21
EndChar

StartChar: B
Encoding: 66 66 1
Width: 1200
VWidth: 2048
GlyphClass: 2
Flags: W
LayerCount: 2
Fore
SplineSet
-71.9501953125 45.099609375 m 4,0,1
 -71.9501953125 107.799804688 -71.9501953125 107.799804688 -20.9501953125 107.799804688 c 6,2,-1
 13.0498046875 107.799804688 l 6,3,4
 98.0498046875 107.799804688 98.0498046875 107.799804688 128.650390625 116.599609375 c 5,5,-1
 382.799804688 1433.29980469 l 5,6,7
 351.349609375 1437.70019531 351.349609375 1437.70019531 286.75 1437.70019531 c 6,8,-1
 251.900390625 1437.70019531 l 6,9,10
 206.849609375 1437.70019531 206.849609375 1437.70019531 206.849609375 1485 c 4,11,12
 206.849609375 1545.5 206.849609375 1545.5 258.700195312 1545.5 c 6,13,-1
 891.099609375 1545.5 l 6,14,15
 1018.59960938 1545.5 1018.59960938 1545.5 1092.54980469 1513.59960938 c 4,16,17
 1260 1444.29980469 1260 1444.29980469 1260 1240.79980469 c 4,18,19
 1260 1116.5 1260 1116.5 1189.45019531 1003.20019531 c 132,-1,20
 1118.90039062 889.900390625 1118.90039062 889.900390625 997.349609375 838.200195312 c 4,21,22
 967.599609375 825 967.599609375 825 904.700195312 806.299804688 c 5,23,24
 1024.54980469 793.099609375 1024.54980469 793.099609375 1096.79980469 715.549804688 c 132,-1,25
 1169.04980469 638 1169.04980469 638 1169.04980469 507.099609375 c 4,26,27
 1169.04980469 337.700195312 1169.04980469 337.700195312 1053.45019531 182.599609375 c 132,-1,28
 937.849609375 27.5 937.849609375 27.5 735.549804688 4.400390625 c 4,29,30
 705.799804688 0 705.799804688 0 645.450195312 0 c 6,31,-1
 -25.2001953125 0 l 6,32,33
 -71.9501953125 0 -71.9501953125 0 -71.9501953125 45.099609375 c 4,0,1
346.25 110 m 5,34,35
 365.799804688 107.799804688 365.799804688 107.799804688 406.599609375 107.799804688 c 6,36,-1
 619.099609375 107.799804688 l 6,37,38
 728.75 107.799804688 728.75 107.799804688 796.75 173.799804688 c 4,39,40
 861.349609375 234.299804688 861.349609375 234.299804688 897.049804688 341.549804688 c 132,-1,41
 932.75 448.799804688 932.75 448.799804688 932.75 554.400390625 c 4,42,43
 932.75 627 932.75 627 915.325195312 673.75 c 132,-1,44
 897.900390625 720.5 897.900390625 720.5 866.450195312 737.549804688 c 132,-1,45
 835 754.599609375 835 754.599609375 816.724609375 759 c 132,-1,46
 798.450195312 763.400390625 798.450195312 763.400390625 770.400390625 763.400390625 c 6,47,-1
 472.900390625 763.400390625 l 5,48,-1
 346.25 110 l 5,34,35
489.049804688 844.799804688 m 5,49,-1
 718.549804688 844.799804688 l 6,50,51
 805.25 844.799804688 805.25 844.799804688 870.700195312 891 c 132,-1,52
 936.150390625 937.200195312 936.150390625 937.200195312 967.599609375 1007.04980469 c 132,-1,53
 999.049804688 1076.90039062 999.049804688 1076.90039062 1013.5 1140.15039062 c 132,-1,54
 1027.95019531 1203.40039062 1027.95019531 1203.40039062 1027.95019531 1255.09960938 c 4,55,56
 1027.95019531 1437.70019531 1027.95019531 1437.70019531 878.349609375 1437.70019531 c 6,57,-1
 680.299804688 1437.70019531 l 6,58,59
 615.700195312 1437.70019531 615.700195312 1437.70019531 602.099609375 1435.5 c 5,60,-1
 489.049804688 844.799804688 l 5,49,-1
EndSplineSet
Validated: 513
Substitution2: "'fwid' Full Widths lookup 32 subtable" uniFF22
Substitution2: "'c2sc' Capitals to Small Capitals lookup 26 subtable" b.sc
AlternateSubs2: "'aalt' Access All Alternates lookup 1 subtable" b.sc uniFF22
EndChar

StartChar: C
Encoding: 67 67 2
Width: 1200
VWidth: 2048
GlyphClass: 2
Flags: W
LayerCount: 2
Fore
SplineSet
-20.5 547.799804688 m 4,0,1
 -20.5 689.700195312 -20.5 689.700195312 13.5 836 c 132,-1,2
 47.5 982.299804688 47.5 982.299804688 115.924804688 1118.70019531 c 132,-1,3
 184.349609375 1255.09960938 184.349609375 1255.09960938 280.400390625 1360.70019531 c 132,-1,4
 376.450195312 1466.29980469 376.450195312 1466.29980469 510.325195312 1530.65039062 c 132,-1,5
 644.200195312 1595 644.200195312 1595 797.200195312 1595 c 4,6,7
 969.75 1595 969.75 1595 1081.09960938 1442.09960938 c 5,8,9
 1115.95019531 1476.20019531 1115.95019531 1476.20019531 1149.09960938 1510.84960938 c 132,-1,10
 1182.25 1545.5 1182.25 1545.5 1195.42480469 1560.34960938 c 132,-1,11
 1208.59960938 1575.20019531 1208.59960938 1575.20019531 1222.20019531 1585.09960938 c 132,-1,12
 1235.79980469 1595 1235.79980469 1595 1248.54980469 1595 c 4,13,14
 1280 1595 1280 1595 1280 1558.70019531 c 4,15,16
 1280 1547.70019531 1280 1547.70019531 1177.15039062 1014.20019531 c 4,17,18
 1170.34960938 980.099609375 1170.34960938 980.099609375 1161.42480469 969.650390625 c 132,-1,19
 1152.5 959.200195312 1152.5 959.200195312 1126.15039062 959.200195312 c 6,20,-1
 1114.25 959.200195312 l 6,21,22
 1084.5 959.200195312 1084.5 959.200195312 1075.15039062 967.450195312 c 132,-1,23
 1065.79980469 975.700195312 1065.79980469 975.700195312 1065.79980469 999.900390625 c 4,24,25
 1065.79980469 1008.70019531 1065.79980469 1008.70019531 1068.34960938 1041.70019531 c 132,-1,26
 1070.90039062 1074.70019531 1070.90039062 1074.70019531 1070.90039062 1101.09960938 c 4,27,28
 1070.90039062 1163.79980469 1070.90039062 1163.79980469 1059.42480469 1225.95019531 c 132,-1,29
 1047.95019531 1288.09960938 1047.95019531 1288.09960938 1021.17480469 1349.15039062 c 132,-1,30
 994.400390625 1410.20019531 994.400390625 1410.20019531 942.974609375 1448.70019531 c 132,-1,31
 891.549804688 1487.20019531 891.549804688 1487.20019531 820.150390625 1487.20019531 c 4,32,33
 785.299804688 1487.20019531 785.299804688 1487.20019531 746.200195312 1478.95019531 c 132,-1,34
 707.099609375 1470.70019531 707.099609375 1470.70019531 642.5 1445.95019531 c 132,-1,35
 577.900390625 1421.20019531 577.900390625 1421.20019531 511.174804688 1358.5 c 132,-1,36
 444.450195312 1295.79980469 444.450195312 1295.79980469 391.75 1201.20019531 c 4,37,38
 311.849609375 1057.09960938 311.849609375 1057.09960938 262.974609375 817.849609375 c 132,-1,39
 214.099609375 578.599609375 214.099609375 578.599609375 214.099609375 446.599609375 c 4,40,41
 214.099609375 336.599609375 214.099609375 336.599609375 243.849609375 256.299804688 c 132,-1,42
 273.599609375 176 273.599609375 176 324.174804688 135.299804688 c 132,-1,43
 374.75 94.599609375 374.75 94.599609375 425.75 76.4501953125 c 132,-1,44
 476.75 58.2998046875 476.75 58.2998046875 534.549804688 58.2998046875 c 4,45,46
 725.799804688 58.2998046875 725.799804688 58.2998046875 872 270.599609375 c 4,47,48
 917.049804688 337.700195312 917.049804688 337.700195312 943.400390625 399.849609375 c 132,-1,49
 969.75 462 969.75 462 974 492.25 c 132,-1,50
 978.25 522.5 978.25 522.5 989.724609375 540.650390625 c 132,-1,51
 1001.20019531 558.799804688 1001.20019531 558.799804688 1025.84960938 558.799804688 c 6,52,-1
 1036.04980469 558.799804688 l 6,53,54
 1079.40039062 558.799804688 1079.40039062 558.799804688 1079.40039062 522.5 c 4,55,56
 1079.40039062 511.5 1079.40039062 511.5 1072.59960938 479.599609375 c 4,57,58
 1013.09960938 245.299804688 1013.09960938 245.299804688 846.075195312 97.900390625 c 132,-1,59
 679.049804688 -49.5 679.049804688 -49.5 491.200195312 -49.5 c 4,60,61
 421.5 -49.5 421.5 -49.5 354.349609375 -33.5498046875 c 132,-1,62
 287.200195312 -17.599609375 287.200195312 -17.599609375 217.5 23.650390625 c 132,-1,63
 147.799804688 64.900390625 147.799804688 64.900390625 96.7998046875 130.349609375 c 132,-1,64
 45.7998046875 195.799804688 45.7998046875 195.799804688 12.650390625 303.049804688 c 132,-1,65
 -20.5 410.299804688 -20.5 410.299804688 -20.5 547.799804688 c 4,0,1
EndSplineSet
Validated: 513
Substitution2: "'fwid' Full Widths lookup 32 subtable" uniFF23
Substitution2: "'c2sc' Capitals to Small Capitals lookup 26 subtable" c.sc
AlternateSubs2: "'aalt' Access All Alternates lookup 1 subtable" c.sc uniFF23
EndChar

StartChar: D
Encoding: 68 68 3
Width: 1200
VWidth: 2048
GlyphClass: 2
Flags: W
LayerCount: 2
Fore
SplineSet
-132.950195312 45.099609375 m 4,0,1
 -132.950195312 107.799804688 -132.950195312 107.799804688 -81.9501953125 107.799804688 c 6,2,-1
 -47.9501953125 107.799804688 l 6,3,4
 37.0498046875 107.799804688 37.0498046875 107.799804688 67.650390625 116.599609375 c 5,5,-1
 321.799804688 1433.29980469 l 5,6,7
 288.650390625 1437.70019531 288.650390625 1437.70019531 218.950195312 1437.70019531 c 6,8,-1
 189.200195312 1437.70019531 l 6,9,10
 145.849609375 1437.70019531 145.849609375 1437.70019531 145.849609375 1485 c 4,11,12
 145.849609375 1545.5 145.849609375 1545.5 196 1545.5 c 6,13,-1
 833.5 1545.5 l 6,14,15
 964.400390625 1545.5 964.400390625 1545.5 1059.17480469 1498.20019531 c 132,-1,16
 1153.95019531 1450.90039062 1153.95019531 1450.90039062 1202.40039062 1369.5 c 132,-1,17
 1250.84960938 1288.09960938 1250.84960938 1288.09960938 1271.67480469 1199.54980469 c 132,-1,18
 1292.5 1111 1292.5 1111 1292.5 1006.5 c 4,19,20
 1292.5 877.799804688 1292.5 877.799804688 1265.72460938 743.049804688 c 132,-1,21
 1238.95019531 608.299804688 1238.95019531 608.299804688 1179.02539062 474.099609375 c 132,-1,22
 1119.09960938 339.900390625 1119.09960938 339.900390625 1033.67480469 235.400390625 c 132,-1,23
 948.25 130.900390625 948.25 130.900390625 821.174804688 65.4501953125 c 132,-1,24
 694.099609375 0 694.099609375 0 542.799804688 0 c 6,25,-1
 -84.5 0 l 6,26,27
 -132.950195312 0 -132.950195312 0 -132.950195312 45.099609375 c 4,0,1
295.450195312 110 m 5,28,29
 318.400390625 107.799804688 318.400390625 107.799804688 361.75 107.799804688 c 6,30,-1
 496.900390625 107.799804688 l 6,31,32
 762.950195312 107.799804688 762.950195312 107.799804688 899.799804688 346.5 c 4,33,34
 972.900390625 475.200195312 972.900390625 475.200195312 1020.5 725.450195312 c 132,-1,35
 1068.09960938 975.700195312 1068.09960938 975.700195312 1068.09960938 1090.09960938 c 4,36,37
 1068.09960938 1436.59960938 1068.09960938 1436.59960938 749.349609375 1437.70019531 c 6,38,-1
 631.200195312 1437.70019531 l 6,39,40
 564.900390625 1437.70019531 564.900390625 1437.70019531 551.299804688 1435.5 c 5,41,-1
 295.450195312 110 l 5,28,29
EndSplineSet
Validated: 513
Substitution2: "'fwid' Full Widths lookup 32 subtable" uniFF24
Substitution2: "'c2sc' Capitals to Small Capitals lookup 26 subtable" d.sc
AlternateSubs2: "'aalt' Access All Alternates lookup 1 subtable" d.sc uniFF24
EndChar

StartChar: E
Encoding: 69 69 4
Width: 1200
VWidth: 2048
GlyphClass: 2
Flags: W
LayerCount: 2
Fore
SplineSet
-44.2001953125 45.099609375 m 4,0,1
 -44.2001953125 107.799804688 -44.2001953125 107.799804688 6.7998046875 107.799804688 c 6,2,-1
 40.7998046875 107.799804688 l 6,3,4
 125.799804688 107.799804688 125.799804688 107.799804688 156.400390625 116.599609375 c 5,5,-1
 407.150390625 1419 l 5,6,7
 360.400390625 1425.59960938 360.400390625 1425.59960938 312.799804688 1425.59960938 c 6,8,-1
 277.950195312 1425.59960938 l 6,9,10
 231.200195312 1425.59960938 231.200195312 1425.59960938 231.200195312 1470.70019531 c 4,11,12
 231.200195312 1531.20019531 231.200195312 1531.20019531 281.349609375 1532.29980469 c 6,13,-1
 1191.70019531 1532.29980469 l 6,14,15
 1240.15039062 1532.29980469 1240.15039062 1532.29980469 1241 1482.79980469 c 5,16,17
 1241 1482.79980469 1241 1482.79980469 1204.45019531 1057.09960938 c 4,18,19
 1201.04980469 1018.59960938 1201.04980469 1018.59960938 1191.27539062 1002.65039062 c 132,-1,20
 1181.5 986.700195312 1181.5 986.700195312 1151.75 986.700195312 c 4,21,22
 1105 986.700195312 1105 986.700195312 1105 1040.59960938 c 4,23,24
 1105 1053.79980469 1105 1053.79980469 1109.25 1102.75 c 132,-1,25
 1113.5 1151.70019531 1113.5 1151.70019531 1113.5 1186.90039062 c 4,26,27
 1113.5 1333.20019531 1113.5 1333.20019531 1054.42480469 1379.40039062 c 132,-1,28
 995.349609375 1425.59960938 995.349609375 1425.59960938 852.549804688 1425.59960938 c 6,29,-1
 730.150390625 1425.59960938 l 6,30,31
 674.049804688 1425.59960938 674.049804688 1425.59960938 646.849609375 1421.20019531 c 5,32,-1
 537.200195312 849.200195312 l 5,33,-1
 596.700195312 849.200195312 l 6,34,35
 708.049804688 849.200195312 708.049804688 849.200195312 749.700195312 900.900390625 c 4,36,37
 774.349609375 930.599609375 774.349609375 930.599609375 787.099609375 972.400390625 c 132,-1,38
 799.849609375 1014.20019531 799.849609375 1014.20019531 803.674804688 1042.25 c 132,-1,39
 807.5 1070.29980469 807.5 1070.29980469 821.099609375 1091.75 c 132,-1,40
 834.700195312 1113.20019531 834.700195312 1113.20019531 861.049804688 1113.20019531 c 4,41,42
 907.799804688 1113.20019531 907.799804688 1113.20019531 907.799804688 1063.70019531 c 4,43,44
 907.799804688 1054.90039062 907.799804688 1054.90039062 894.200195312 982.299804688 c 4,45,46
 859.349609375 810.700195312 859.349609375 810.700195312 821.099609375 608.299804688 c 4,47,48
 819.400390625 595.099609375 819.400390625 595.099609375 815.150390625 572.549804688 c 132,-1,49
 810.900390625 550 810.900390625 550 809.200195312 541.75 c 132,-1,50
 807.5 533.5 807.5 533.5 803.674804688 519.200195312 c 132,-1,51
 799.849609375 504.900390625 799.849609375 504.900390625 796.450195312 500.5 c 132,-1,52
 793.049804688 496.099609375 793.049804688 496.099609375 787.099609375 488.950195312 c 132,-1,53
 781.150390625 481.799804688 781.150390625 481.799804688 773.075195312 480.700195312 c 132,-1,54
 765 479.599609375 765 479.599609375 754.799804688 479.599609375 c 4,55,56
 708.049804688 479.599609375 708.049804688 479.599609375 708.049804688 522.5 c 4,57,58
 708.049804688 535.700195312 708.049804688 535.700195312 715.700195312 579.700195312 c 132,-1,59
 723.349609375 623.700195312 723.349609375 623.700195312 723.349609375 651.200195312 c 4,60,61
 723.349609375 711.700195312 723.349609375 711.700195312 690.200195312 726.549804688 c 132,-1,62
 657.049804688 741.400390625 657.049804688 741.400390625 583.950195312 741.400390625 c 6,63,-1
 516.799804688 741.400390625 l 5,64,-1
 394.400390625 110 l 5,65,66
 417.349609375 107.799804688 417.349609375 107.799804688 460.700195312 107.799804688 c 6,67,-1
 573.75 107.799804688 l 6,68,69
 758.200195312 107.799804688 758.200195312 107.799804688 850.849609375 178.200195312 c 4,70,71
 889.099609375 207.900390625 889.099609375 207.900390625 919.700195312 246.950195312 c 132,-1,72
 950.299804688 286 950.299804688 286 978.775390625 351.450195312 c 132,-1,73
 1007.25 416.900390625 1007.25 416.900390625 1019.57519531 450.450195312 c 132,-1,74
 1031.90039062 484 1031.90039062 484 1061.65039062 569.799804688 c 4,75,76
 1071.84960938 599.5 1071.84960938 599.5 1082.04980469 609.400390625 c 132,-1,77
 1092.25 619.299804688 1092.25 619.299804688 1118.59960938 619.299804688 c 4,78,79
 1161.95019531 619.299804688 1161.95019531 619.299804688 1161.95019531 576.400390625 c 4,80,81
 1161.95019531 567.599609375 1161.95019531 567.599609375 993.650390625 49.5 c 4,82,83
 983.450195312 17.599609375 983.450195312 17.599609375 972.825195312 8.7998046875 c 132,-1,84
 962.200195312 0 962.200195312 0 935.849609375 0 c 6,85,-1
 6.7998046875 0 l 6,86,87
 -44.2001953125 0 -44.2001953125 0 -44.2001953125 45.099609375 c 4,0,1
EndSplineSet
Validated: 513
Substitution2: "'fwid' Full Widths lookup 32 subtable" uniFF25
Substitution2: "'c2sc' Capitals to Small Capitals lookup 26 subtable" e.sc
AlternateSubs2: "'aalt' Access All Alternates lookup 1 subtable" e.sc uniFF25
EndChar

StartChar: F
Encoding: 70 70 5
Width: 1200
VWidth: 2048
GlyphClass: 2
Flags: W
LayerCount: 2
Fore
SplineSet
-32.650390625 45.099609375 m 4,0,1
 -32.650390625 105.599609375 -32.650390625 105.599609375 15.7998046875 107.799804688 c 6,2,-1
 45.5498046875 107.799804688 l 6,3,4
 133.950195312 107.799804688 133.950195312 107.799804688 167.950195312 116.599609375 c 5,5,-1
 418.700195312 1419 l 5,6,7
 371.950195312 1425.59960938 371.950195312 1425.59960938 324.349609375 1425.59960938 c 6,8,-1
 289.5 1425.59960938 l 6,9,10
 242.75 1425.59960938 242.75 1425.59960938 242.75 1470.70019531 c 4,11,12
 242.75 1533.40039062 242.75 1533.40039062 296.299804688 1534.5 c 4,13,14
 298 1534.5 298 1534.5 305.224609375 1533.40039062 c 132,-1,15
 312.450195312 1532.29980469 312.450195312 1532.29980469 314.150390625 1532.29980469 c 6,16,-1
 1178.59960938 1532.29980469 l 6,17,18
 1227.04980469 1532.29980469 1227.04980469 1532.29980469 1227.90039062 1482.79980469 c 4,19,20
 1227.90039062 1476.20019531 1227.90039062 1476.20019531 1220.67480469 1402.5 c 132,-1,21
 1213.45019531 1328.79980469 1213.45019531 1328.79980469 1204.09960938 1222.09960938 c 132,-1,22
 1194.75 1115.40039062 1194.75 1115.40039062 1189.65039062 1057.09960938 c 4,23,24
 1186.25 1018.59960938 1186.25 1018.59960938 1176.47460938 1002.65039062 c 132,-1,25
 1166.70019531 986.700195312 1166.70019531 986.700195312 1136.95019531 986.700195312 c 4,26,27
 1110.59960938 986.700195312 1110.59960938 986.700195312 1101.25 999.349609375 c 132,-1,28
 1091.90039062 1012 1091.90039062 1012 1091.90039062 1040.59960938 c 4,29,30
 1091.90039062 1053.79980469 1091.90039062 1053.79980469 1095.29980469 1104.95019531 c 132,-1,31
 1098.70019531 1156.09960938 1098.70019531 1156.09960938 1098.70019531 1193.5 c 4,32,33
 1098.70019531 1337.59960938 1098.70019531 1337.59960938 1040.47460938 1381.59960938 c 132,-1,34
 982.25 1425.59960938 982.25 1425.59960938 847.950195312 1425.59960938 c 6,35,-1
 741.700195312 1425.59960938 l 6,36,37
 685.599609375 1425.59960938 685.599609375 1425.59960938 658.400390625 1421.20019531 c 5,38,-1
 543.650390625 819.5 l 5,39,-1
 597.200195312 819.5 l 6,40,41
 706.849609375 819.5 706.849609375 819.5 749.349609375 874.5 c 4,42,43
 774 906.400390625 774 906.400390625 786.75 946.549804688 c 132,-1,44
 799.5 986.700195312 799.5 986.700195312 802.049804688 1014.75 c 132,-1,45
 804.599609375 1042.79980469 804.599609375 1042.79980469 817.775390625 1063.15039062 c 132,-1,46
 830.950195312 1083.5 830.950195312 1083.5 857.299804688 1083.5 c 4,47,48
 904.049804688 1083.5 904.049804688 1083.5 904.049804688 1036.20019531 c 4,49,50
 904.049804688 1020.79980469 904.049804688 1020.79980469 819.049804688 580.799804688 c 4,51,52
 817.349609375 569.799804688 817.349609375 569.799804688 812.674804688 547.25 c 132,-1,53
 808 524.700195312 808 524.700195312 806.299804688 515.900390625 c 132,-1,54
 804.599609375 507.099609375 804.599609375 507.099609375 801.200195312 493.349609375 c 132,-1,55
 797.799804688 479.599609375 797.799804688 479.599609375 793.549804688 474.099609375 c 132,-1,56
 789.299804688 468.599609375 789.299804688 468.599609375 783.775390625 462 c 132,-1,57
 778.25 455.400390625 778.25 455.400390625 770.599609375 453.200195312 c 132,-1,58
 762.950195312 451 762.950195312 451 752.75 451 c 4,59,60
 706 451 706 451 705.150390625 493.900390625 c 4,61,62
 705.150390625 507.099609375 705.150390625 507.099609375 712.375 551.099609375 c 132,-1,63
 719.599609375 595.099609375 719.599609375 595.099609375 719.599609375 623.700195312 c 4,64,65
 719.599609375 682 719.599609375 682 688.150390625 697.950195312 c 132,-1,66
 656.700195312 713.900390625 656.700195312 713.900390625 587 713.900390625 c 6,67,-1
 522.400390625 713.900390625 l 5,68,-1
 405.950195312 112.200195312 l 5,69,70
 449.299804688 107.799804688 449.299804688 107.799804688 535.150390625 107.799804688 c 6,71,-1
 578.5 107.799804688 l 6,72,73
 630.349609375 107.799804688 630.349609375 107.799804688 630.349609375 62.7001953125 c 4,74,75
 630.349609375 0 630.349609375 0 581.900390625 0 c 4,76,77
 578.5 0 578.5 0 473.950195312 3.2998046875 c 132,-1,78
 369.400390625 6.599609375 369.400390625 6.599609375 304.799804688 6.599609375 c 4,79,80
 212.150390625 6.599609375 212.150390625 6.599609375 146.275390625 5.5 c 132,-1,81
 80.400390625 4.400390625 80.400390625 4.400390625 50.224609375 2.2001953125 c 132,-1,82
 20.0498046875 0 20.0498046875 0 14.099609375 0 c 4,83,84
 -32.650390625 0 -32.650390625 0 -32.650390625 45.099609375 c 4,0,1
EndSplineSet
Validated: 513
Substitution2: "'fwid' Full Widths lookup 32 subtable" uniFF26
Substitution2: "'c2sc' Capitals to Small Capitals lookup 26 subtable" f.sc
AlternateSubs2: "'aalt' Access All Alternates lookup 1 subtable" f.sc uniFF26
EndChar

StartChar: G
Encoding: 71 71 6
Width: 1200
VWidth: 2048
GlyphClass: 2
Flags: W
LayerCount: 2
Fore
SplineSet
-31.2001953125 543.400390625 m 4,0,1
 -31.2001953125 726 -31.2001953125 726 24.474609375 910.25 c 132,-1,2
 80.150390625 1094.5 80.150390625 1094.5 180.025390625 1247.95019531 c 132,-1,3
 279.900390625 1401.40039062 279.900390625 1401.40039062 439.275390625 1498.20019531 c 132,-1,4
 598.650390625 1595 598.650390625 1595 786.5 1595 c 4,5,6
 962.450195312 1595 962.450195312 1595 1070.40039062 1442.09960938 c 5,7,8
 1105.25 1476.20019531 1105.25 1476.20019531 1138.40039062 1510.84960938 c 132,-1,9
 1171.54980469 1545.5 1171.54980469 1545.5 1184.72460938 1560.34960938 c 132,-1,10
 1197.90039062 1575.20019531 1197.90039062 1575.20019531 1211.5 1585.09960938 c 132,-1,11
 1225.09960938 1595 1225.09960938 1595 1237.84960938 1595 c 4,12,13
 1269.29980469 1595 1269.29980469 1595 1269.29980469 1558.70019531 c 4,14,15
 1269.29980469 1547.70019531 1269.29980469 1547.70019531 1166.45019531 1014.20019531 c 4,16,17
 1159.65039062 980.099609375 1159.65039062 980.099609375 1150.72460938 969.650390625 c 132,-1,18
 1141.79980469 959.200195312 1141.79980469 959.200195312 1115.45019531 959.200195312 c 6,19,-1
 1096.75 959.200195312 l 6,20,21
 1055.09960938 959.200195312 1055.09960938 959.200195312 1055.09960938 999.900390625 c 4,22,23
 1055.09960938 1006.5 1055.09960938 1006.5 1057.65039062 1038.40039062 c 132,-1,24
 1060.20019531 1070.29980469 1060.20019531 1070.29980469 1060.20019531 1098.90039062 c 4,25,26
 1060.20019531 1163.79980469 1060.20019531 1163.79980469 1048.72460938 1225.95019531 c 132,-1,27
 1037.25 1288.09960938 1037.25 1288.09960938 1010.47460938 1350.25 c 132,-1,28
 983.700195312 1412.40039062 983.700195312 1412.40039062 932.275390625 1449.79980469 c 132,-1,29
 880.849609375 1487.20019531 880.849609375 1487.20019531 809.450195312 1487.20019531 c 4,30,31
 701.5 1487.20019531 701.5 1487.20019531 596.099609375 1427.25 c 132,-1,32
 490.700195312 1367.29980469 490.700195312 1367.29980469 414.200195312 1252.90039062 c 4,33,34
 311.349609375 1100 311.349609375 1100 258.224609375 844.25 c 132,-1,35
 205.099609375 588.5 205.099609375 588.5 205.099609375 451 c 4,36,37
 205.099609375 334.400390625 205.099609375 334.400390625 237.400390625 251.900390625 c 132,-1,38
 269.700195312 169.400390625 269.700195312 169.400390625 322.825195312 129.799804688 c 132,-1,39
 375.950195312 90.2001953125 375.950195312 90.2001953125 426.525390625 74.25 c 132,-1,40
 477.099609375 58.2998046875 477.099609375 58.2998046875 532.349609375 58.2998046875 c 4,41,42
 630.099609375 58.2998046875 630.099609375 58.2998046875 690.875 118.25 c 132,-1,43
 751.650390625 178.200195312 751.650390625 178.200195312 774.599609375 240.900390625 c 4,44,45
 779.700195312 254.099609375 779.700195312 254.099609375 828.150390625 507.099609375 c 5,46,47
 786.5 511.5 786.5 511.5 691.299804688 511.5 c 6,48,-1
 658.150390625 511.5 l 6,49,50
 609.700195312 511.5 609.700195312 511.5 608.849609375 558.799804688 c 4,51,52
 608.849609375 619.299804688 608.849609375 619.299804688 659.849609375 619.299804688 c 4,53,54
 666.650390625 619.299804688 666.650390625 619.299804688 692.575195312 618.200195312 c 132,-1,55
 718.5 617.099609375 718.5 617.099609375 787.349609375 616 c 132,-1,56
 856.200195312 614.900390625 856.200195312 614.900390625 962.450195312 614.900390625 c 6,57,-1
 1010.90039062 614.900390625 l 6,58,59
 1062.75 614.900390625 1062.75 614.900390625 1140.09960938 617.099609375 c 4,60,61
 1145.20019531 617.099609375 1145.20019531 617.099609375 1154.97460938 618.200195312 c 132,-1,62
 1164.75 619.299804688 1164.75 619.299804688 1168.15039062 619.299804688 c 4,63,64
 1206.40039062 619.299804688 1206.40039062 619.299804688 1206.40039062 574.200195312 c 4,65,66
 1206.40039062 511.5 1206.40039062 511.5 1153.70019531 511.5 c 6,67,-1
 1131.59960938 511.5 l 6,68,69
 1091.65039062 511.5 1091.65039062 511.5 1067 504.900390625 c 5,70,71
 997.299804688 122.099609375 997.299804688 122.099609375 978.599609375 42.900390625 c 4,72,73
 970.099609375 4.400390625 970.099609375 4.400390625 950.549804688 4.400390625 c 4,74,75
 935.25 4.400390625 935.25 4.400390625 891.474609375 39.599609375 c 132,-1,76
 847.700195312 74.7998046875 847.700195312 74.7998046875 821.349609375 105.599609375 c 5,77,-1
 819.650390625 105.599609375 l 5,78,79
 694.700195312 -49.5 694.700195312 -49.5 480.5 -49.5 c 4,80,81
 412.5 -49.5 412.5 -49.5 346.200195312 -33.5498046875 c 132,-1,82
 279.900390625 -17.599609375 279.900390625 -17.599609375 209.349609375 23.650390625 c 132,-1,83
 138.799804688 64.900390625 138.799804688 64.900390625 86.9501953125 128.150390625 c 132,-1,84
 35.099609375 191.400390625 35.099609375 191.400390625 1.9501953125 298.650390625 c 132,-1,85
 -31.2001953125 405.900390625 -31.2001953125 405.900390625 -31.2001953125 543.400390625 c 4,0,1
EndSplineSet
Validated: 513
Substitution2: "'fwid' Full Widths lookup 32 subtable" uniFF27
Substitution2: "'c2sc' Capitals to Small Capitals lookup 26 subtable" g.sc
AlternateSubs2: "'aalt' Access All Alternates lookup 1 subtable" g.sc uniFF27
EndChar

StartChar: H
Encoding: 72 72 7
Width: 1200
VWidth: 2048
GlyphClass: 2
Flags: W
LayerCount: 2
Fore
SplineSet
-107.25 45.099609375 m 4,0,1
 -107.25 107.799804688 -107.25 107.799804688 -63 107.799804688 c 6,2,-1
 -36.75 107.799804688 l 6,3,4
 45 107.799804688 45 107.799804688 71.25 116.599609375 c 5,5,-1
 294 1433.29980469 l 5,6,7
 266.25 1437.70019531 266.25 1437.70019531 209.25 1437.70019531 c 6,8,-1
 180 1437.70019531 l 6,9,10
 138.75 1437.70019531 138.75 1437.70019531 138.75 1485 c 4,11,12
 138.75 1545.5 138.75 1545.5 181.5 1545.5 c 4,13,14
 187.5 1545.5 187.5 1545.5 216.75 1543.29980469 c 132,-1,15
 246 1541.09960938 246 1541.09960938 295.875 1540 c 132,-1,16
 345.75 1538.90039062 345.75 1538.90039062 405.75 1538.90039062 c 4,17,18
 477.75 1538.90039062 477.75 1538.90039062 531 1540 c 132,-1,19
 584.25 1541.09960938 584.25 1541.09960938 608.625 1543.29980469 c 132,-1,20
 633 1545.5 633 1545.5 639 1545.5 c 4,21,22
 680.25 1545.5 680.25 1545.5 681 1498.20019531 c 4,23,24
 681 1439.90039062 681 1439.90039062 637.5 1437.70019531 c 6,25,-1
 609.75 1437.70019531 l 6,26,27
 536.25 1437.70019531 536.25 1437.70019531 520.875 1431.65039062 c 132,-1,28
 505.5 1425.59960938 505.5 1425.59960938 499.5 1394.79980469 c 6,29,-1
 407.25 858 l 5,30,-1
 846.75 858 l 5,31,-1
 943.5 1433.29980469 l 5,32,33
 915.75 1437.70019531 915.75 1437.70019531 858.75 1437.70019531 c 6,34,-1
 828 1437.70019531 l 6,35,36
 788.25 1437.70019531 788.25 1437.70019531 788.25 1485 c 4,37,38
 788.25 1545.5 788.25 1545.5 832.5 1545.5 c 4,39,40
 838.5 1545.5 838.5 1545.5 867.75 1543.29980469 c 132,-1,41
 897 1541.09960938 897 1541.09960938 948.75 1540 c 132,-1,42
 1000.5 1538.90039062 1000.5 1538.90039062 1062 1538.90039062 c 4,43,44
 1135.5 1538.90039062 1135.5 1538.90039062 1187.625 1540 c 132,-1,45
 1239.75 1541.09960938 1239.75 1541.09960938 1263 1543.29980469 c 132,-1,46
 1286.25 1545.5 1286.25 1545.5 1290.75 1545.5 c 4,47,48
 1332 1545.5 1332 1545.5 1332 1500.40039062 c 4,49,50
 1332 1439.90039062 1332 1439.90039062 1289.25 1437.70019531 c 6,51,-1
 1251 1437.70019531 l 6,52,53
 1180.5 1437.70019531 1180.5 1437.70019531 1166.25 1428.34960938 c 132,-1,54
 1152 1419 1152 1419 1144.5 1371.70019531 c 4,55,56
 1143 1360.70019531 1143 1360.70019531 1141.5 1354.09960938 c 6,57,-1
 931.5 112.200195312 l 5,58,59
 960.75 107.799804688 960.75 107.799804688 1020 107.799804688 c 6,60,-1
 1049.25 107.799804688 l 6,61,62
 1086 107.799804688 1086 107.799804688 1086 60.5 c 4,63,64
 1086 0 1086 0 1041.75 0 c 6,65,-1
 1040.25 0 l 5,66,67
 891 6.599609375 891 6.599609375 810 6.599609375 c 4,68,69
 765.75 6.599609375 765.75 6.599609375 697.875 3.2998046875 c 132,-1,70
 630 0 630 0 585.75 0 c 4,71,72
 543 0 543 0 542.25 45.099609375 c 4,73,74
 542.25 105.599609375 542.25 105.599609375 587.25 107.799804688 c 6,75,-1
 613.5 107.799804688 l 6,76,77
 695.25 107.799804688 695.25 107.799804688 720.75 116.599609375 c 5,78,-1
 828 750.200195312 l 5,79,-1
 389.25 750.200195312 l 5,80,-1
 279.75 112.200195312 l 5,81,82
 309 107.799804688 309 107.799804688 370.5 107.799804688 c 6,83,-1
 399.75 107.799804688 l 6,84,85
 436.5 107.799804688 436.5 107.799804688 436.5 60.5 c 4,86,87
 436.5 0 436.5 0 392.25 0 c 6,88,-1
 390.75 0 l 5,89,90
 240 6.599609375 240 6.599609375 159.75 6.599609375 c 4,91,92
 69 6.599609375 69 6.599609375 -64.5 0 c 4,93,94
 -107.25 0 -107.25 0 -107.25 45.099609375 c 4,0,1
EndSplineSet
Validated: 513
Substitution2: "'fwid' Full Widths lookup 32 subtable" uniFF28
Substitution2: "'c2sc' Capitals to Small Capitals lookup 26 subtable" h.sc
AlternateSubs2: "'aalt' Access All Alternates lookup 1 subtable" h.sc uniFF28
EndChar

StartChar: I
Encoding: 73 73 8
Width: 1200
VWidth: 2048
GlyphClass: 2
Flags: W
LayerCount: 2
Fore
SplineSet
-47.7998046875 45.099609375 m 4,0,1
 -47.7998046875 105.599609375 -47.7998046875 105.599609375 23 107.799804688 c 6,2,-1
 65 107.799804688 l 6,3,4
 203 107.799804688 203 107.799804688 249.799804688 116.599609375 c 5,5,-1
 606.200195312 1433.29980469 l 5,6,7
 507.799804688 1437.70019531 507.799804688 1437.70019531 456.200195312 1437.70019531 c 6,8,-1
 409.400390625 1437.70019531 l 6,9,10
 345.799804688 1437.70019531 345.799804688 1437.70019531 345.799804688 1485 c 4,11,12
 345.799804688 1545.5 345.799804688 1545.5 414.200195312 1545.5 c 4,13,14
 421.400390625 1545.5 421.400390625 1545.5 436.400390625 1544.40039062 c 132,-1,15
 451.400390625 1543.29980469 451.400390625 1543.29980469 458.599609375 1543.29980469 c 4,16,17
 714.200195312 1538.90039062 714.200195312 1538.90039062 777.799804688 1538.90039062 c 4,18,19
 885.799804688 1538.90039062 885.799804688 1538.90039062 977 1540 c 132,-1,20
 1068.20019531 1541.09960938 1068.20019531 1541.09960938 1119.79980469 1543.29980469 c 132,-1,21
 1171.40039062 1545.5 1171.40039062 1545.5 1181 1545.5 c 4,22,23
 1239.79980469 1545.5 1239.79980469 1545.5 1239.79980469 1500.40039062 c 4,24,25
 1239.79980469 1437.70019531 1239.79980469 1437.70019531 1163 1437.70019531 c 6,26,-1
 1117.40039062 1437.70019531 l 6,27,28
 999.799804688 1437.70019531 999.799804688 1437.70019531 942.200195312 1425.59960938 c 5,29,-1
 585.799804688 112.200195312 l 5,30,31
 684.200195312 107.799804688 684.200195312 107.799804688 735.799804688 107.799804688 c 6,32,-1
 782.599609375 107.799804688 l 6,33,34
 848.599609375 107.799804688 848.599609375 107.799804688 848.599609375 62.7001953125 c 4,35,36
 848.599609375 53.900390625 848.599609375 53.900390625 846.200195312 42.900390625 c 132,-1,37
 843.799804688 31.900390625 843.799804688 31.900390625 827 15.9501953125 c 132,-1,38
 810.200195312 0 810.200195312 0 780.200195312 0 c 4,39,40
 770.599609375 0 770.599609375 0 720.200195312 2.2001953125 c 132,-1,41
 669.799804688 4.400390625 669.799804688 4.400390625 582.200195312 5.5 c 132,-1,42
 494.599609375 6.599609375 494.599609375 6.599609375 393.799804688 6.599609375 c 4,43,44
 278.599609375 6.599609375 278.599609375 6.599609375 194 5.5 c 132,-1,45
 109.400390625 4.400390625 109.400390625 4.400390625 68.599609375 2.2001953125 c 132,-1,46
 27.7998046875 0 27.7998046875 0 18.2001953125 0 c 4,47,48
 -47.7998046875 0 -47.7998046875 0 -47.7998046875 45.099609375 c 4,0,1
EndSplineSet
Validated: 513
Substitution2: "'fwid' Full Widths lookup 32 subtable" uniFF29
Substitution2: "'c2sc' Capitals to Small Capitals lookup 26 subtable" i.sc
AlternateSubs2: "'aalt' Access All Alternates lookup 1 subtable" i.sc uniFF29
EndChar

StartChar: J
Encoding: 74 74 9
Width: 1200
VWidth: 2048
GlyphClass: 2
Flags: W
LayerCount: 2
Fore
SplineSet
-27 204.599609375 m 4,0,1
 -27 299.200195312 -27 299.200195312 27.5 361.349609375 c 132,-1,2
 82 423.5 82 423.5 158 423.5 c 4,3,4
 213 423.5 213 423.5 249 387.200195312 c 132,-1,5
 285 350.900390625 285 350.900390625 285 292.599609375 c 4,6,7
 285 232.099609375 285 232.099609375 248 173.25 c 132,-1,8
 211 114.400390625 211 114.400390625 137 96.7998046875 c 5,9,10
 200 34.099609375 200 34.099609375 283 34.099609375 c 4,11,12
 482 34.099609375 482 34.099609375 561 419.099609375 c 5,13,-1
 791 1433.29980469 l 5,14,15
 738 1437.70019531 738 1437.70019531 586 1437.70019531 c 6,16,-1
 578 1437.70019531 l 6,17,18
 519 1437.70019531 519 1437.70019531 518 1482.79980469 c 4,19,20
 518 1545.5 518 1545.5 578 1545.5 c 6,21,-1
 631 1543.29980469 l 6,22,23
 684 1541.09960938 684 1541.09960938 753.5 1540 c 132,-1,24
 823 1538.90039062 823 1538.90039062 866 1538.90039062 c 6,25,-1
 977 1538.90039062 l 6,26,27
 1034 1538.90039062 1034 1538.90039062 1082 1540 c 132,-1,28
 1130 1541.09960938 1130 1541.09960938 1158 1543.29980469 c 132,-1,29
 1186 1545.5 1186 1545.5 1192 1545.5 c 4,30,31
 1241 1545.5 1241 1545.5 1241 1500.40039062 c 4,32,33
 1241 1439.90039062 1241 1439.90039062 1186 1437.70019531 c 6,34,-1
 1157 1437.70019531 l 6,35,36
 1094 1437.70019531 1094 1437.70019531 1061 1430 c 5,37,-1
 825 391.599609375 l 6,38,39
 807 316.799804688 807 316.799804688 800 289.299804688 c 132,-1,40
 793 261.799804688 793 261.799804688 767 209.549804688 c 132,-1,41
 741 157.299804688 741 157.299804688 700 114.400390625 c 4,42,43
 551 -49.5 551 -49.5 300 -49.5 c 4,44,45
 299 -49.5 299 -49.5 297 -49.5 c 4,46,47
 150 -49.5 150 -49.5 61.5 21.4501953125 c 132,-1,48
 -27 92.400390625 -27 92.400390625 -27 204.599609375 c 4,0,1
EndSplineSet
Validated: 513
Substitution2: "'fwid' Full Widths lookup 32 subtable" uniFF2A
Substitution2: "'c2sc' Capitals to Small Capitals lookup 26 subtable" j.sc
AlternateSubs2: "'aalt' Access All Alternates lookup 1 subtable" j.sc uniFF2A
EndChar

StartChar: K
Encoding: 75 75 10
Width: 1200
VWidth: 2048
GlyphClass: 2
Flags: W
LayerCount: 2
Fore
SplineSet
-135.599609375 45.099609375 m 4,0,1
 -135.599609375 105.599609375 -135.599609375 105.599609375 -90 107.799804688 c 6,2,-1
 -62 107.799804688 l 6,3,4
 21.2001953125 107.799804688 21.2001953125 107.799804688 53.2001953125 116.599609375 c 5,5,-1
 292.400390625 1433.29980469 l 5,6,7
 262.799804688 1437.70019531 262.799804688 1437.70019531 202 1437.70019531 c 6,8,-1
 170.799804688 1437.70019531 l 6,9,10
 126.799804688 1437.70019531 126.799804688 1437.70019531 126.799804688 1485 c 4,11,12
 126.799804688 1545.5 126.799804688 1545.5 172.400390625 1545.5 c 4,13,14
 178.799804688 1545.5 178.799804688 1545.5 209.200195312 1543.29980469 c 132,-1,15
 239.599609375 1541.09960938 239.599609375 1541.09960938 292.799804688 1540 c 132,-1,16
 346 1538.90039062 346 1538.90039062 408.400390625 1538.90039062 c 4,17,18
 491.599609375 1538.90039062 491.599609375 1538.90039062 549.200195312 1540 c 132,-1,19
 606.799804688 1541.09960938 606.799804688 1541.09960938 631.200195312 1543.29980469 c 132,-1,20
 655.599609375 1545.5 655.599609375 1545.5 660.400390625 1545.5 c 4,21,22
 704.400390625 1545.5 704.400390625 1545.5 705.200195312 1500.40039062 c 4,23,24
 705.200195312 1439.90039062 705.200195312 1439.90039062 657.200195312 1437.70019531 c 6,25,-1
 634.799804688 1437.70019531 l 6,26,27
 550 1437.70019531 550 1437.70019531 533.200195312 1430.54980469 c 132,-1,28
 516.400390625 1423.40039062 516.400390625 1423.40039062 510 1388.20019531 c 6,29,-1
 392.400390625 745.799804688 l 5,30,-1
 1039.59960938 1419 l 5,31,32
 1013.20019531 1430 1013.20019531 1430 978.799804688 1433.84960938 c 132,-1,33
 944.400390625 1437.70019531 944.400390625 1437.70019531 932.799804688 1446.5 c 132,-1,34
 921.200195312 1455.29980469 921.200195312 1455.29980469 921.200195312 1485 c 4,35,36
 921.200195312 1545.5 921.200195312 1545.5 966.799804688 1545.5 c 4,37,38
 973.200195312 1545.5 973.200195312 1545.5 999.599609375 1543.29980469 c 132,-1,39
 1026 1541.09960938 1026 1541.09960938 1073.59960938 1540 c 132,-1,40
 1121.20019531 1538.90039062 1121.20019531 1538.90039062 1177.20019531 1538.90039062 c 4,41,42
 1205.20019531 1538.90039062 1205.20019531 1538.90039062 1244.40039062 1541.09960938 c 132,-1,43
 1283.59960938 1543.29980469 1283.59960938 1543.29980469 1294.79980469 1543.29980469 c 4,44,45
 1324.40039062 1543.29980469 1324.40039062 1543.29980469 1336 1533.95019531 c 132,-1,46
 1347.59960938 1524.59960938 1347.59960938 1524.59960938 1347.59960938 1500.40039062 c 4,47,48
 1347.59960938 1437.70019531 1347.59960938 1437.70019531 1299.59960938 1437.70019531 c 4,49,50
 1245.20019531 1435.5 1245.20019531 1435.5 1205.20019531 1418.45019531 c 132,-1,51
 1165.20019531 1401.40039062 1165.20019531 1401.40039062 1144 1383.25 c 132,-1,52
 1122.79980469 1365.09960938 1122.79980469 1365.09960938 1086.79980469 1326.59960938 c 4,53,54
 738 963.599609375 738 963.599609375 716.400390625 943.799804688 c 5,55,56
 746 858 746 858 852.400390625 522.5 c 132,-1,57
 958.799804688 187 958.799804688 187 972.400390625 150.700195312 c 4,58,59
 986.799804688 107.799804688 986.799804688 107.799804688 1050.79980469 107.799804688 c 6,60,-1
 1052.40039062 107.799804688 l 6,61,62
 1072.40039062 107.799804688 1072.40039062 107.799804688 1082 106.700195312 c 132,-1,63
 1091.59960938 105.599609375 1091.59960938 105.599609375 1100.79980469 94.599609375 c 132,-1,64
 1110 83.599609375 1110 83.599609375 1110 62.7001953125 c 4,65,66
 1110 0 1110 0 1065.20019531 0 c 4,67,68
 1060.40039062 0 1060.40039062 0 1035.20019531 2.2001953125 c 132,-1,69
 1010 4.400390625 1010 4.400390625 967.200195312 5.5 c 132,-1,70
 924.400390625 6.599609375 924.400390625 6.599609375 874 6.599609375 c 4,71,72
 870.799804688 6.599609375 870.799804688 6.599609375 644.400390625 0 c 4,73,74
 598.799804688 0 598.799804688 0 598.799804688 42.900390625 c 4,75,76
 598.799804688 83.599609375 598.799804688 83.599609375 616.799804688 96.7998046875 c 132,-1,77
 634.799804688 110 634.799804688 110 676.400390625 112.200195312 c 132,-1,78
 718 114.400390625 718 114.400390625 742.799804688 124.299804688 c 5,79,-1
 539.599609375 756.799804688 l 5,80,-1
 386.799804688 601.700195312 l 6,81,82
 385.200195312 599.5 385.200195312 599.5 380.400390625 595.099609375 c 4,83,84
 366 579.700195312 366 579.700195312 356.799804688 544.5 c 132,-1,85
 347.599609375 509.299804688 347.599609375 509.299804688 319.599609375 354.200195312 c 4,86,87
 294.799804688 214.5 294.799804688 214.5 277.200195312 112.200195312 c 5,88,89
 308.400390625 107.799804688 308.400390625 107.799804688 372.400390625 107.799804688 c 6,90,-1
 403.599609375 107.799804688 l 6,91,92
 444.400390625 107.799804688 444.400390625 107.799804688 444.400390625 60.5 c 4,93,94
 444.400390625 0 444.400390625 0 400.400390625 0 c 4,95,96
 394 0 394 0 362 2.2001953125 c 132,-1,97
 330 4.400390625 330 4.400390625 272.400390625 5.5 c 132,-1,98
 214.799804688 6.599609375 214.799804688 6.599609375 149.200195312 6.599609375 c 4,99,100
 126 6.599609375 126 6.599609375 -90 0 c 4,101,102
 -135.599609375 0 -135.599609375 0 -135.599609375 45.099609375 c 4,0,1
EndSplineSet
Validated: 513
Substitution2: "'fwid' Full Widths lookup 32 subtable" uniFF2B
Substitution2: "'c2sc' Capitals to Small Capitals lookup 26 subtable" k.sc
AlternateSubs2: "'aalt' Access All Alternates lookup 1 subtable" k.sc uniFF2B
EndChar

StartChar: L
Encoding: 76 76 11
Width: 1200
VWidth: 2048
GlyphClass: 2
Flags: W
LayerCount: 2
Fore
SplineSet
-30 45.099609375 m 4,0,1
 -30 107.799804688 -30 107.799804688 29 107.799804688 c 6,2,-1
 70 107.799804688 l 6,3,4
 170 107.799804688 170 107.799804688 206 116.599609375 c 5,5,-1
 505 1433.29980469 l 5,6,7
 466 1437.70019531 466 1437.70019531 386 1437.70019531 c 6,8,-1
 349 1437.70019531 l 6,9,10
 298 1437.70019531 298 1437.70019531 298 1485 c 4,11,12
 298 1545.5 298 1545.5 353 1545.5 c 4,13,14
 359 1545.5 359 1545.5 369.5 1544.40039062 c 132,-1,15
 380 1543.29980469 380 1543.29980469 384 1543.29980469 c 4,16,17
 515 1538.90039062 515 1538.90039062 713 1538.90039062 c 4,18,19
 795 1538.90039062 795 1538.90039062 866 1540 c 132,-1,20
 937 1541.09960938 937 1541.09960938 977 1543.29980469 c 132,-1,21
 1017 1545.5 1017 1545.5 1025 1545.5 c 4,22,23
 1076 1545.5 1076 1545.5 1076 1500.40039062 c 4,24,25
 1076 1437.70019531 1076 1437.70019531 1015 1437.70019531 c 6,26,-1
 974 1437.70019531 l 6,27,28
 831 1437.70019531 831 1437.70019531 785 1425.59960938 c 5,29,-1
 486 110 l 5,30,31
 511 107.799804688 511 107.799804688 560 107.799804688 c 6,32,-1
 636 107.799804688 l 6,33,34
 742 107.799804688 742 107.799804688 824 145.200195312 c 132,-1,35
 906 182.599609375 906 182.599609375 962.5 253.549804688 c 132,-1,36
 1019 324.5 1019 324.5 1053.5 396.549804688 c 132,-1,37
 1088 468.599609375 1088 468.599609375 1123 569.799804688 c 4,38,39
 1139 619.299804688 1139 619.299804688 1182 619.299804688 c 4,40,41
 1239 619.299804688 1239 619.299804688 1240 574.200195312 c 4,42,43
 1240 561 1240 561 1070 49.5 c 4,44,45
 1060 17.599609375 1060 17.599609375 1047.5 8.7998046875 c 132,-1,46
 1035 0 1035 0 1006 0 c 6,47,-1
 19 0 l 6,48,49
 -30 2.2001953125 -30 2.2001953125 -30 45.099609375 c 4,0,1
EndSplineSet
Validated: 513
Substitution2: "'fwid' Full Widths lookup 32 subtable" uniFF2C
Substitution2: "'c2sc' Capitals to Small Capitals lookup 26 subtable" l.sc
AlternateSubs2: "'aalt' Access All Alternates lookup 1 subtable" l.sc uniFF2C
EndChar

StartChar: M
Encoding: 77 77 12
Width: 1200
VWidth: 2048
GlyphClass: 2
Flags: W
LayerCount: 2
Fore
SplineSet
-136.150390625 45.099609375 m 4,0,1
 -136.150390625 99 -136.150390625 99 -110.799804688 105.599609375 c 4,2,3
 -106.900390625 107.799804688 -106.900390625 107.799804688 -75.7001953125 108.900390625 c 132,-1,4
 -44.5 110 -44.5 110 -17.849609375 119.349609375 c 132,-1,5
 8.7998046875 128.700195312 8.7998046875 128.700195312 18.5498046875 146.299804688 c 4,6,7
 22.4501953125 155.099609375 22.4501953125 155.099609375 58.2001953125 393.799804688 c 6,8,-1
 179.099609375 1216.59960938 l 5,9,-1
 211.599609375 1433.29980469 l 5,10,11
 187.549804688 1437.70019531 187.549804688 1437.70019531 138.150390625 1437.70019531 c 6,12,-1
 112.799804688 1437.70019531 l 6,13,14
 77.0498046875 1437.70019531 77.0498046875 1437.70019531 77.0498046875 1485 c 4,15,16
 77.0498046875 1545.5 77.0498046875 1545.5 115.400390625 1545.5 c 6,17,-1
 381.900390625 1545.5 l 6,18,19
 404.650390625 1545.5 404.650390625 1545.5 415.049804688 1532.84960938 c 132,-1,20
 425.450195312 1520.20019531 425.450195312 1520.20019531 429.349609375 1475.09960938 c 6,21,-1
 526.849609375 430.099609375 l 6,22,23
 528.150390625 416.900390625 528.150390625 416.900390625 531.400390625 377.299804688 c 132,-1,24
 534.650390625 337.700195312 534.650390625 337.700195312 537.25 315.700195312 c 5,25,-1
 582.75 430.099609375 l 5,26,-1
 989 1475.09960938 l 6,27,28
 1005.25 1520.20019531 1005.25 1520.20019531 1018.25 1532.84960938 c 132,-1,29
 1031.25 1545.5 1031.25 1545.5 1055.29980469 1545.5 c 6,30,-1
 1309.45019531 1545.5 l 6,31,32
 1345.20019531 1545.5 1345.20019531 1545.5 1345.20019531 1500.40039062 c 4,33,34
 1345.20019531 1459.70019531 1345.20019531 1459.70019531 1333.5 1448.70019531 c 132,-1,35
 1321.79980469 1437.70019531 1321.79980469 1437.70019531 1295.15039062 1437.70019531 c 6,36,-1
 1278.90039062 1437.70019531 l 6,37,38
 1219.09960938 1437.70019531 1219.09960938 1437.70019531 1206.42480469 1431.65039062 c 132,-1,39
 1193.75 1425.59960938 1193.75 1425.59960938 1188.54980469 1397 c 6,40,-1
 1168.40039062 1266.09960938 l 5,41,-1
 998.099609375 112.200195312 l 5,42,43
 1023.45019531 107.799804688 1023.45019531 107.799804688 1075.45019531 107.799804688 c 6,44,-1
 1100.79980469 107.799804688 l 6,45,46
 1133.95019531 107.799804688 1133.95019531 107.799804688 1133.95019531 60.5 c 4,47,48
 1133.95019531 0 1133.95019531 0 1094.95019531 0 c 6,49,-1
 1092.34960938 0 l 5,50,51
 1028.65039062 6.599609375 1028.65039062 6.599609375 882.400390625 6.599609375 c 4,52,53
 845.349609375 6.599609375 845.349609375 6.599609375 794.650390625 4.400390625 c 132,-1,54
 743.950195312 2.2001953125 743.950195312 2.2001953125 719.900390625 2.2001953125 c 4,55,56
 684.150390625 2.2001953125 684.150390625 2.2001953125 684.150390625 45.099609375 c 4,57,58
 684.150390625 105.599609375 684.150390625 105.599609375 722.5 107.799804688 c 6,59,-1
 745.25 107.799804688 l 6,60,61
 816.099609375 107.799804688 816.099609375 107.799804688 838.200195312 116.599609375 c 5,62,-1
 1027.34960938 1401.40039062 l 5,63,-1
 1026.04980469 1401.40039062 l 5,64,-1
 1002 1335.40039062 l 5,65,-1
 504.099609375 56.099609375 l 6,66,67
 481.349609375 0 481.349609375 0 448.200195312 0 c 4,68,69
 441.700195312 0 441.700195312 0 437.150390625 1.099609375 c 132,-1,70
 432.599609375 2.2001953125 432.599609375 2.2001953125 428.375 6.599609375 c 132,-1,71
 424.150390625 11 424.150390625 11 421.549804688 13.2001953125 c 132,-1,72
 418.950195312 15.400390625 418.950195312 15.400390625 416.349609375 23.650390625 c 132,-1,73
 413.75 31.900390625 413.75 31.900390625 412.450195312 35.2001953125 c 132,-1,74
 411.150390625 38.5 411.150390625 38.5 409.849609375 48.400390625 c 132,-1,75
 408.549804688 58.2998046875 408.549804688 58.2998046875 408.549804688 61.599609375 c 132,-1,76
 408.549804688 64.900390625 408.549804688 64.900390625 407.25 76.4501953125 c 132,-1,77
 405.950195312 88 405.950195312 88 405.950195312 90.2001953125 c 6,78,-1
 299.349609375 1240.79980469 l 6,79,80
 287.650390625 1365.09960938 287.650390625 1365.09960938 287 1371.70019531 c 5,81,-1
 285.700195312 1371.70019531 l 5,82,-1
 103.700195312 130.900390625 l 5,83,84
 136.849609375 108.900390625 136.849609375 108.900390625 196.650390625 107.799804688 c 6,85,-1
 197.950195312 107.799804688 l 6,86,87
 236.299804688 107.799804688 236.299804688 107.799804688 236.950195312 62.7001953125 c 4,88,89
 236.950195312 53.900390625 236.950195312 53.900390625 234.674804688 41.7998046875 c 132,-1,90
 232.400390625 29.7001953125 232.400390625 29.7001953125 223.299804688 14.849609375 c 132,-1,91
 214.200195312 0 214.200195312 0 197.950195312 0 c 4,92,93
 194.049804688 0 194.049804688 0 174.875 2.2001953125 c 132,-1,94
 155.700195312 4.400390625 155.700195312 4.400390625 121.575195312 5.5 c 132,-1,95
 87.4501953125 6.599609375 87.4501953125 6.599609375 47.7998046875 6.599609375 c 4,96,97
 9.4501953125 6.599609375 9.4501953125 6.599609375 -25.3251953125 5.5 c 132,-1,98
 -60.099609375 4.400390625 -60.099609375 4.400390625 -79.599609375 2.2001953125 c 132,-1,99
 -99.099609375 0 -99.099609375 0 -103 0 c 4,100,101
 -136.150390625 0 -136.150390625 0 -136.150390625 45.099609375 c 4,0,1
EndSplineSet
Validated: 513
Substitution2: "'fwid' Full Widths lookup 32 subtable" uniFF2D
Substitution2: "'c2sc' Capitals to Small Capitals lookup 26 subtable" m.sc
AlternateSubs2: "'aalt' Access All Alternates lookup 1 subtable" m.sc uniFF2D
EndChar

StartChar: N
Encoding: 78 78 13
Width: 1200
VWidth: 2048
GlyphClass: 2
Flags: W
LayerCount: 2
Fore
SplineSet
-135.599609375 45.099609375 m 4,0,1
 -135.599609375 99 -135.599609375 99 -104.400390625 105.599609375 c 4,2,3
 -99.599609375 107.799804688 -99.599609375 107.799804688 -61.2001953125 108.900390625 c 132,-1,4
 -22.7998046875 110 -22.7998046875 110 10 119.349609375 c 132,-1,5
 42.7998046875 128.700195312 42.7998046875 128.700195312 54.7998046875 146.299804688 c 4,6,7
 62.7998046875 159.5 62.7998046875 159.5 64.400390625 176 c 6,8,-1
 294 1435.5 l 5,9,10
 279.599609375 1435.5 279.599609375 1435.5 248.799804688 1436.59960938 c 132,-1,11
 218 1437.70019531 218 1437.70019531 203.599609375 1437.70019531 c 6,12,-1
 170.799804688 1437.70019531 l 6,13,14
 126.799804688 1437.70019531 126.799804688 1437.70019531 126.799804688 1485 c 4,15,16
 126.799804688 1545.5 126.799804688 1545.5 174 1545.5 c 6,17,-1
 490 1545.5 l 6,18,19
 513.200195312 1545.5 513.200195312 1545.5 524 1536.70019531 c 132,-1,20
 534.799804688 1527.90039062 534.799804688 1527.90039062 546 1496 c 6,21,-1
 932.400390625 466.400390625 l 5,22,-1
 1104.40039062 1414.59960938 l 5,23,24
 1065.20019531 1436.59960938 1065.20019531 1436.59960938 990 1437.70019531 c 4,25,26
 942.799804688 1437.70019531 942.799804688 1437.70019531 942.799804688 1482.79980469 c 4,27,28
 942.799804688 1512.5 942.799804688 1512.5 952.400390625 1526.79980469 c 132,-1,29
 962 1541.09960938 962 1541.09960938 972 1543.29980469 c 132,-1,30
 982 1545.5 982 1545.5 1001.20019531 1545.5 c 4,31,32
 1010.79980469 1545.5 1010.79980469 1545.5 1069.20019531 1542.20019531 c 132,-1,33
 1127.59960938 1538.90039062 1127.59960938 1538.90039062 1180.40039062 1538.90039062 c 4,34,35
 1221.20019531 1538.90039062 1221.20019531 1538.90039062 1273.59960938 1541.09960938 c 132,-1,36
 1326 1543.29980469 1326 1543.29980469 1338.79980469 1543.29980469 c 4,37,38
 1373.20019531 1543.29980469 1373.20019531 1543.29980469 1386.40039062 1535.59960938 c 132,-1,39
 1399.59960938 1527.90039062 1399.59960938 1527.90039062 1399.59960938 1500.40039062 c 4,40,41
 1399.59960938 1437.70019531 1399.59960938 1437.70019531 1350.79980469 1437.70019531 c 6,42,-1
 1347.59960938 1437.70019531 l 6,43,44
 1260.40039062 1435.5 1260.40039062 1435.5 1234 1420.65039062 c 132,-1,45
 1207.59960938 1405.79980469 1207.59960938 1405.79980469 1201.20019531 1373.90039062 c 4,46,47
 1198 1354.09960938 1198 1354.09960938 1190 1312.29980469 c 132,-1,48
 1182 1270.5 1182 1270.5 1178.79980469 1250.70019531 c 6,49,-1
 960.400390625 53.900390625 l 6,50,51
 954 19.7998046875 954 19.7998046875 943.200195312 9.900390625 c 132,-1,52
 932.400390625 0 932.400390625 0 906.799804688 0 c 6,53,-1
 905.200195312 0 l 6,54,55
 880.400390625 0 880.400390625 0 871.200195312 7.7001953125 c 132,-1,56
 862 15.400390625 862 15.400390625 849.200195312 47.2998046875 c 6,57,-1
 421.200195312 1186.90039062 l 6,58,59
 418 1195.70019531 418 1195.70019531 400.799804688 1241.90039062 c 132,-1,60
 383.599609375 1288.09960938 383.599609375 1288.09960938 374 1313.40039062 c 5,61,-1
 159.599609375 130.900390625 l 5,62,63
 200.400390625 108.900390625 200.400390625 108.900390625 274 107.799804688 c 6,64,-1
 275.599609375 107.799804688 l 6,65,66
 321.200195312 107.799804688 321.200195312 107.799804688 321.200195312 60.5 c 4,67,68
 321.200195312 49.5 321.200195312 49.5 318.799804688 37.400390625 c 132,-1,69
 316.400390625 25.2998046875 316.400390625 25.2998046875 305.200195312 12.650390625 c 132,-1,70
 294 0 294 0 275.599609375 0 c 4,71,72
 269.200195312 0 269.200195312 0 246.400390625 2.2001953125 c 132,-1,73
 223.599609375 4.400390625 223.599609375 4.400390625 180.799804688 5.5 c 132,-1,74
 138 6.599609375 138 6.599609375 84.400390625 6.599609375 c 4,75,76
 37.2001953125 6.599609375 37.2001953125 6.599609375 -3.2001953125 5.5 c 132,-1,77
 -43.599609375 4.400390625 -43.599609375 4.400390625 -66.7998046875 3.2998046875 c 132,-1,78
 -90 2.2001953125 -90 2.2001953125 -94.7998046875 2.2001953125 c 4,79,80
 -135.599609375 2.2001953125 -135.599609375 2.2001953125 -135.599609375 45.099609375 c 4,0,1
EndSplineSet
Validated: 513
Substitution2: "'fwid' Full Widths lookup 32 subtable" uniFF2E
Substitution2: "'c2sc' Capitals to Small Capitals lookup 26 subtable" n.sc
AlternateSubs2: "'aalt' Access All Alternates lookup 1 subtable" n.sc uniFF2E
EndChar

StartChar: O
Encoding: 79 79 14
Width: 1200
VWidth: 2048
GlyphClass: 2
Flags: W
LayerCount: 2
Fore
SplineSet
-53.5 509.299804688 m 4,0,1
 -53.5 685.299804688 -53.5 685.299804688 0.5 872.299804688 c 132,-1,2
 54.5 1059.29980469 54.5 1059.29980469 154.400390625 1222.65039062 c 132,-1,3
 254.299804688 1386 254.299804688 1386 415.400390625 1490.5 c 132,-1,4
 576.5 1595 576.5 1595 768.200195312 1595 c 4,5,6
 852.799804688 1595 852.799804688 1595 930.200195312 1569.15039062 c 132,-1,7
 1007.59960938 1543.29980469 1007.59960938 1543.29980469 1082.29980469 1483.34960938 c 132,-1,8
 1157 1423.40039062 1157 1423.40039062 1202.45019531 1306.25 c 132,-1,9
 1247.90039062 1189.09960938 1247.90039062 1189.09960938 1247.90039062 1029.59960938 c 4,10,11
 1247.90039062 883.299804688 1247.90039062 883.299804688 1213.70019531 733.150390625 c 132,-1,12
 1179.5 583 1179.5 583 1110.20019531 442.200195312 c 132,-1,13
 1040.90039062 301.400390625 1040.90039062 301.400390625 945.049804688 192.5 c 132,-1,14
 849.200195312 83.599609375 849.200195312 83.599609375 715.549804688 17.0498046875 c 132,-1,15
 581.900390625 -49.5 581.900390625 -49.5 428.900390625 -49.5 c 4,16,17
 344.299804688 -49.5 344.299804688 -49.5 266 -23.650390625 c 132,-1,18
 187.700195312 2.2001953125 187.700195312 2.2001953125 112.099609375 61.0498046875 c 132,-1,19
 36.5 119.900390625 36.5 119.900390625 -8.5 234.849609375 c 132,-1,20
 -53.5 349.799804688 -53.5 349.799804688 -53.5 509.299804688 c 4,0,1
198.5 419.099609375 m 4,21,22
 198.5 311.299804688 198.5 311.299804688 222.349609375 233.200195312 c 132,-1,23
 246.200195312 155.099609375 246.200195312 155.099609375 287.150390625 117.150390625 c 132,-1,24
 328.099609375 79.2001953125 328.099609375 79.2001953125 367.700195312 63.25 c 132,-1,25
 407.299804688 47.2998046875 407.299804688 47.2998046875 449.599609375 47.2998046875 c 4,26,27
 604.400390625 47.2998046875 604.400390625 47.2998046875 733.099609375 209 c 4,28,29
 828.5 328.900390625 828.5 328.900390625 895.099609375 542.849609375 c 132,-1,30
 961.700195312 756.799804688 961.700195312 756.799804688 982.849609375 909.150390625 c 132,-1,31
 1004 1061.5 1004 1061.5 1004 1139.59960938 c 4,32,33
 1004 1247.40039062 1004 1247.40039062 978.349609375 1324.40039062 c 132,-1,34
 952.700195312 1401.40039062 952.700195312 1401.40039062 910.400390625 1437.15039062 c 132,-1,35
 868.099609375 1472.90039062 868.099609375 1472.90039062 828.5 1487.75 c 132,-1,36
 788.900390625 1502.59960938 788.900390625 1502.59960938 745.700195312 1502.59960938 c 4,37,38
 708.799804688 1502.59960938 708.799804688 1502.59960938 666.5 1492.70019531 c 132,-1,39
 624.200195312 1482.79980469 624.200195312 1482.79980469 551.75 1430.54980469 c 132,-1,40
 479.299804688 1378.29980469 479.299804688 1378.29980469 421.700195312 1291.40039062 c 4,41,42
 314.599609375 1129.70019531 314.599609375 1129.70019531 256.549804688 851.950195312 c 132,-1,43
 198.5 574.200195312 198.5 574.200195312 198.5 419.099609375 c 4,21,22
EndSplineSet
Validated: 513
Substitution2: "Single Substitution lookup 63 subtable" ordmasculine
Substitution2: "'fwid' Full Widths lookup 32 subtable" uniFF2F
Substitution2: "'c2sc' Capitals to Small Capitals lookup 26 subtable" o.sc
AlternateSubs2: "'aalt' Access All Alternates lookup 1 subtable" ordmasculine o.sc uniFF2F
EndChar

StartChar: P
Encoding: 80 80 15
Width: 1200
VWidth: 2048
GlyphClass: 2
Flags: W
LayerCount: 2
Fore
SplineSet
-88.900390625 45.099609375 m 4,0,1
 -88.900390625 105.599609375 -88.900390625 105.599609375 -37.599609375 107.799804688 c 6,2,-1
 -6.099609375 107.799804688 l 6,3,4
 87.5 107.799804688 87.5 107.799804688 123.5 116.599609375 c 5,5,-1
 392.599609375 1433.29980469 l 5,6,7
 359.299804688 1437.70019531 359.299804688 1437.70019531 290.900390625 1437.70019531 c 6,8,-1
 254 1437.70019531 l 6,9,10
 206.299804688 1437.70019531 206.299804688 1437.70019531 206.299804688 1485 c 4,11,12
 206.299804688 1545.5 206.299804688 1545.5 263 1545.5 c 6,13,-1
 927.200195312 1545.5 l 6,14,15
 997.400390625 1545.5 997.400390625 1545.5 1060.84960938 1529.54980469 c 132,-1,16
 1124.29980469 1513.59960938 1124.29980469 1513.59960938 1183.25 1478.95019531 c 132,-1,17
 1242.20019531 1444.29980469 1242.20019531 1444.29980469 1277.29980469 1374.45019531 c 132,-1,18
 1312.40039062 1304.59960938 1312.40039062 1304.59960938 1312.40039062 1207.79980469 c 4,19,20
 1312.40039062 1097.79980469 1312.40039062 1097.79980469 1266.04980469 991.650390625 c 132,-1,21
 1219.70019531 885.5 1219.70019531 885.5 1113.95019531 797.5 c 132,-1,22
 1008.20019531 709.5 1008.20019531 709.5 862.400390625 687.5 c 4,23,24
 812.900390625 678.700195312 812.900390625 678.700195312 713 677.599609375 c 6,25,-1
 491.599609375 677.599609375 l 5,26,-1
 375.5 112.200195312 l 5,27,28
 410.599609375 107.799804688 410.599609375 107.799804688 482.599609375 107.799804688 c 6,29,-1
 517.700195312 107.799804688 l 6,30,31
 563.599609375 107.799804688 563.599609375 107.799804688 563.599609375 60.5 c 4,32,33
 563.599609375 49.5 563.599609375 49.5 560.900390625 38.5 c 132,-1,34
 558.200195312 27.5 558.200195312 27.5 545.150390625 13.75 c 132,-1,35
 532.099609375 0 532.099609375 0 512.299804688 0 c 4,36,37
 505.099609375 0 505.099609375 0 469.099609375 2.2001953125 c 132,-1,38
 433.099609375 4.400390625 433.099609375 4.400390625 369.200195312 5.5 c 132,-1,39
 305.299804688 6.599609375 305.299804688 6.599609375 231.5 6.599609375 c 4,40,41
 166.700195312 6.599609375 166.700195312 6.599609375 71.2998046875 4.400390625 c 132,-1,42
 -24.099609375 2.2001953125 -24.099609375 2.2001953125 -39.400390625 2.2001953125 c 6,43,-1
 -44.7998046875 2.2001953125 l 6,44,45
 -88.900390625 2.2001953125 -88.900390625 2.2001953125 -88.900390625 45.099609375 c 4,0,1
500.599609375 772.200195312 m 5,46,-1
 685.099609375 772.200195312 l 6,47,48
 854.299804688 772.200195312 854.299804688 772.200195312 923.599609375 838.75 c 132,-1,49
 992.900390625 905.299804688 992.900390625 905.299804688 1031.59960938 1090.09960938 c 4,50,51
 1059.5 1225.40039062 1059.5 1225.40039062 1059.5 1272.70019531 c 4,52,53
 1059.5 1331 1059.5 1331 1037.45019531 1367.29980469 c 132,-1,54
 1015.40039062 1403.59960938 1015.40039062 1403.59960938 972.200195312 1416.79980469 c 132,-1,55
 929 1430 929 1430 899.299804688 1433.84960938 c 132,-1,56
 869.599609375 1437.70019531 869.599609375 1437.70019531 820.099609375 1437.70019531 c 6,57,-1
 727.400390625 1437.70019531 l 6,58,59
 651.799804688 1437.70019531 651.799804688 1437.70019531 635.599609375 1435.5 c 5,60,-1
 500.599609375 772.200195312 l 5,46,-1
EndSplineSet
Validated: 513
Substitution2: "'fwid' Full Widths lookup 32 subtable" uniFF30
Substitution2: "'c2sc' Capitals to Small Capitals lookup 26 subtable" p.sc
AlternateSubs2: "'aalt' Access All Alternates lookup 1 subtable" p.sc uniFF30
EndChar

StartChar: Q
Encoding: 81 81 16
Width: 1200
VWidth: 2048
GlyphClass: 2
Flags: W
LayerCount: 2
Fore
SplineSet
-45.5 509.299804688 m 4,0,1
 -45.5 651.200195312 -45.5 651.200195312 -11.75 801.900390625 c 132,-1,2
 22 952.599609375 22 952.599609375 92.2001953125 1094.5 c 132,-1,3
 162.400390625 1236.40039062 162.400390625 1236.40039062 257.349609375 1348.04980469 c 132,-1,4
 352.299804688 1459.70019531 352.299804688 1459.70019531 486.849609375 1527.34960938 c 132,-1,5
 621.400390625 1595 621.400390625 1595 774.400390625 1595 c 4,6,7
 859 1595 859 1595 937.299804688 1569.15039062 c 132,-1,8
 1015.59960938 1543.29980469 1015.59960938 1543.29980469 1090.29980469 1483.34960938 c 132,-1,9
 1165 1423.40039062 1165 1423.40039062 1210.45019531 1307.34960938 c 132,-1,10
 1255.90039062 1191.29980469 1255.90039062 1191.29980469 1255.90039062 1029.59960938 c 4,11,12
 1255.90039062 786.5 1255.90039062 786.5 1160.95019531 536.25 c 132,-1,13
 1066 286 1066 286 895.900390625 133.099609375 c 4,14,15
 813.099609375 58.2998046875 813.099609375 58.2998046875 723.099609375 15.400390625 c 5,16,17
 743.799804688 -51.7001953125 743.799804688 -51.7001953125 767.200195312 -81.9501953125 c 132,-1,18
 790.599609375 -112.200195312 790.599609375 -112.200195312 839.200195312 -112.200195312 c 4,19,20
 955.299804688 -112.200195312 955.299804688 -112.200195312 1003 -22 c 4,21,22
 1006.59960938 -17.599609375 1006.59960938 -17.599609375 1013.79980469 2.2001953125 c 132,-1,23
 1021 22 1021 22 1029.09960938 29.7001953125 c 4,24,25
 1041.70019531 40.7001953125 1041.70019531 40.7001953125 1055.65039062 37.400390625 c 132,-1,26
 1069.59960938 34.099609375 1069.59960938 34.099609375 1076.79980469 15.400390625 c 4,27,28
 1078.59960938 13.2001953125 1078.59960938 13.2001953125 1078.59960938 2.2001953125 c 4,29,30
 1078.59960938 -34.099609375 1078.59960938 -34.099609375 1057.45019531 -102.849609375 c 132,-1,31
 1036.29980469 -171.599609375 1036.29980469 -171.599609375 1000.29980469 -248.049804688 c 132,-1,32
 964.299804688 -324.5 964.299804688 -324.5 900.849609375 -380.599609375 c 132,-1,33
 837.400390625 -436.700195312 837.400390625 -436.700195312 765.400390625 -436.700195312 c 4,34,35
 599.799804688 -436.700195312 599.799804688 -436.700195312 598.900390625 -176 c 4,36,37
 598.900390625 -146.299804688 598.900390625 -146.299804688 602.950195312 -94.599609375 c 132,-1,38
 607 -42.900390625 607 -42.900390625 607 -27.5 c 5,39,40
 507.099609375 -49.5 507.099609375 -49.5 436.900390625 -49.5 c 4,41,42
 210.099609375 -49.5 210.099609375 -49.5 82.2998046875 99 c 132,-1,43
 -45.5 247.5 -45.5 247.5 -45.5 509.299804688 c 4,0,1
193.900390625 419.099609375 m 4,44,45
 193.900390625 189.200195312 193.900390625 189.200195312 308.200195312 94.599609375 c 5,46,47
 308.200195312 99 308.200195312 99 307.299804688 103.400390625 c 132,-1,48
 306.400390625 107.799804688 306.400390625 107.799804688 306.400390625 112.200195312 c 4,49,50
 306.400390625 211.200195312 306.400390625 211.200195312 371.650390625 279.950195312 c 132,-1,51
 436.900390625 348.700195312 436.900390625 348.700195312 512.5 348.700195312 c 4,52,53
 639.400390625 348.700195312 639.400390625 348.700195312 691.599609375 144.099609375 c 5,54,55
 774.400390625 211.200195312 774.400390625 211.200195312 841.450195312 349.799804688 c 132,-1,56
 908.5 488.400390625 908.5 488.400390625 943.599609375 639.650390625 c 132,-1,57
 978.700195312 790.900390625 978.700195312 790.900390625 997.150390625 916.849609375 c 132,-1,58
 1015.59960938 1042.79980469 1015.59960938 1042.79980469 1015.59960938 1122 c 4,59,60
 1015.59960938 1232 1015.59960938 1232 990.849609375 1312.29980469 c 132,-1,61
 966.099609375 1392.59960938 966.099609375 1392.59960938 923.799804688 1430.54980469 c 132,-1,62
 881.5 1468.5 881.5 1468.5 841 1485.54980469 c 132,-1,63
 800.5 1502.59960938 800.5 1502.59960938 756.400390625 1502.59960938 c 4,64,65
 677.200195312 1502.59960938 677.200195312 1502.59960938 578.200195312 1446.5 c 132,-1,66
 479.200195312 1390.40039062 479.200195312 1390.40039062 392.799804688 1236.40039062 c 4,67,68
 302.799804688 1076.90039062 302.799804688 1076.90039062 248.349609375 820.049804688 c 132,-1,69
 193.900390625 563.200195312 193.900390625 563.200195312 193.900390625 419.099609375 c 4,44,45
374.799804688 116.599609375 m 4,70,71
 374.799804688 41.7998046875 374.799804688 41.7998046875 453.099609375 41.7998046875 c 6,72,73
 453.099609375 41.7998046875 453.099609375 41.7998046875 454 41.7998046875 c 4,74,75
 533.200195312 42.900390625 533.200195312 42.900390625 612.400390625 85.7998046875 c 5,76,77
 612.400390625 139.700195312 612.400390625 139.700195312 607.900390625 173.25 c 132,-1,78
 603.400390625 206.799804688 603.400390625 206.799804688 579.099609375 237.599609375 c 132,-1,79
 554.799804688 268.400390625 554.799804688 268.400390625 512.5 268.400390625 c 4,80,81
 453.099609375 268.400390625 453.099609375 268.400390625 413.950195312 218.349609375 c 132,-1,82
 374.799804688 168.299804688 374.799804688 168.299804688 374.799804688 116.599609375 c 4,70,71
EndSplineSet
Validated: 513
Substitution2: "'fwid' Full Widths lookup 32 subtable" uniFF31
Substitution2: "'c2sc' Capitals to Small Capitals lookup 26 subtable" q.sc
AlternateSubs2: "'aalt' Access All Alternates lookup 1 subtable" q.sc uniFF31
EndChar

StartChar: R
Encoding: 82 82 17
Width: 1200
VWidth: 2048
GlyphClass: 2
Flags: W
LayerCount: 2
Fore
SplineSet
-207 45.099609375 m 4,0,1
 -207 107.799804688 -207 107.799804688 -150 107.799804688 c 6,2,-1
 -113 107.799804688 l 6,3,4
 -7 107.799804688 -7 107.799804688 29 116.599609375 c 5,5,-1
 328 1433.29980469 l 5,6,7
 291 1437.70019531 291 1437.70019531 215 1437.70019531 c 6,8,-1
 174 1437.70019531 l 6,9,10
 121 1437.70019531 121 1437.70019531 121 1482.79980469 c 4,11,12
 121 1545.5 121 1545.5 182 1545.5 c 6,13,-1
 817 1545.5 l 6,14,15
 1272 1545.5 1272 1545.5 1339 1283.70019531 c 4,16,17
 1349 1243 1349 1243 1350 1205.59960938 c 4,18,19
 1350 1081.29980469 1350 1081.29980469 1269 972.950195312 c 132,-1,20
 1188 864.599609375 1188 864.599609375 1042 801.900390625 c 4,21,22
 1007 786.5 1007 786.5 934 763.400390625 c 5,23,24
 1098 688.599609375 1098 688.599609375 1098 520.299804688 c 4,25,26
 1098 484 1098 484 1077.5 346.5 c 132,-1,27
 1057 209 1057 209 1057 157.299804688 c 4,28,29
 1057 34.099609375 1057 34.099609375 1134 34.099609375 c 6,30,31
 1134 34.099609375 1134 34.099609375 1135 34.099609375 c 4,32,33
 1229 34.099609375 1229 34.099609375 1280 214.5 c 4,34,35
 1290 244.200195312 1290 244.200195312 1301.5 254.099609375 c 132,-1,36
 1313 264 1313 264 1341 264 c 6,37,-1
 1348 264 l 6,38,39
 1397 264 1397 264 1397 221.099609375 c 4,40,41
 1397 160.599609375 1397 160.599609375 1323 55.5498046875 c 132,-1,42
 1249 -49.5 1249 -49.5 1126 -49.5 c 4,43,44
 1058 -49.5 1058 -49.5 1000 -37.400390625 c 132,-1,45
 942 -25.2998046875 942 -25.2998046875 885.5 2.2001953125 c 132,-1,46
 829 29.7001953125 829 29.7001953125 796.5 83.599609375 c 132,-1,47
 764 137.5 764 137.5 764 212.299804688 c 4,48,49
 764 259.599609375 764 259.599609375 794.5 386.650390625 c 132,-1,50
 825 513.700195312 825 513.700195312 825 554.400390625 c 4,51,52
 825 629.200195312 825 629.200195312 786 680.900390625 c 132,-1,53
 747 732.599609375 747 732.599609375 653 732.599609375 c 6,54,-1
 438 732.599609375 l 5,55,-1
 297 112.200195312 l 5,56,57
 336 107.799804688 336 107.799804688 418 107.799804688 c 6,58,-1
 455 107.799804688 l 6,59,60
 506 107.799804688 506 107.799804688 506 60.5 c 4,61,62
 506 0 506 0 440 0 c 4,63,64
 430 0 430 0 393 2.2001953125 c 132,-1,65
 356 4.400390625 356 4.400390625 290.5 5.5 c 132,-1,66
 225 6.599609375 225 6.599609375 143 6.599609375 c 4,67,68
 49 6.599609375 49 6.599609375 -18.5 5.5 c 132,-1,69
 -86 4.400390625 -86 4.400390625 -116.5 2.2001953125 c 132,-1,70
 -147 0 -147 0 -154 0 c 4,71,72
 -207 0 -207 0 -207 45.099609375 c 4,0,1
457 812.900390625 m 5,73,-1
 633 812.900390625 l 6,74,75
 750 812.900390625 750 812.900390625 828.5 836.549804688 c 132,-1,76
 907 860.200195312 907 860.200195312 949 910.799804688 c 132,-1,77
 991 961.400390625 991 961.400390625 1008.5 1005.40039062 c 132,-1,78
 1026 1049.40039062 1026 1049.40039062 1044 1128.59960938 c 4,79,80
 1064 1218.79980469 1064 1218.79980469 1065 1266.09960938 c 4,81,82
 1065 1326.59960938 1065 1326.59960938 1038.5 1364 c 132,-1,83
 1012 1401.40039062 1012 1401.40039062 958.5 1415.70019531 c 132,-1,84
 905 1430 905 1430 869.5 1433.84960938 c 132,-1,85
 834 1437.70019531 834 1437.70019531 772 1437.70019531 c 6,86,-1
 692 1437.70019531 l 6,87,88
 614 1437.70019531 614 1437.70019531 598 1435.5 c 5,89,-1
 457 812.900390625 l 5,73,-1
EndSplineSet
Validated: 513
Substitution2: "'fwid' Full Widths lookup 32 subtable" uniFF32
Substitution2: "'c2sc' Capitals to Small Capitals lookup 26 subtable" r.sc
AlternateSubs2: "'aalt' Access All Alternates lookup 1 subtable" r.sc uniFF32
EndChar

StartChar: S
Encoding: 83 83 18
Width: 1200
VWidth: 2048
GlyphClass: 2
Flags: W
LayerCount: 2
Fore
SplineSet
-106.400390625 -13.2001953125 m 4,0,1
 -106.400390625 4.400390625 -106.400390625 4.400390625 11.2998046875 459.799804688 c 4,2,3
 22.2998046875 498.299804688 22.2998046875 498.299804688 33.2998046875 506 c 132,-1,4
 44.2998046875 513.700195312 44.2998046875 513.700195312 87.2001953125 513.700195312 c 4,5,6
 141.099609375 513.700195312 141.099609375 513.700195312 141.099609375 477.400390625 c 4,7,8
 141.099609375 468.599609375 141.099609375 468.599609375 133.400390625 425.700195312 c 132,-1,9
 125.700195312 382.799804688 125.700195312 382.799804688 125.700195312 354.200195312 c 4,10,11
 125.700195312 244.200195312 125.700195312 244.200195312 187.849609375 173.799804688 c 132,-1,12
 250 103.400390625 250 103.400390625 326.450195312 80.849609375 c 132,-1,13
 402.900390625 58.2998046875 402.900390625 58.2998046875 490.900390625 58.2998046875 c 4,14,15
 655.900390625 58.2998046875 655.900390625 58.2998046875 748.849609375 177.650390625 c 132,-1,16
 841.799804688 297 841.799804688 297 841.799804688 423.5 c 4,17,18
 841.799804688 511.5 841.799804688 511.5 793.400390625 559.900390625 c 132,-1,19
 745 608.299804688 745 608.299804688 668.549804688 626.450195312 c 132,-1,20
 592.099609375 644.599609375 592.099609375 644.599609375 510.150390625 660 c 132,-1,21
 428.200195312 675.400390625 428.200195312 675.400390625 345.700195312 718.299804688 c 132,-1,22
 263.200195312 761.200195312 263.200195312 761.200195312 218.099609375 838.200195312 c 4,23,24
 166.400390625 928.400390625 166.400390625 928.400390625 166.400390625 1029.59960938 c 4,25,26
 166.400390625 1119.79980469 166.400390625 1119.79980469 204.900390625 1216.59960938 c 132,-1,27
 243.400390625 1313.40039062 243.400390625 1313.40039062 314.349609375 1399.20019531 c 132,-1,28
 385.299804688 1485 385.299804688 1485 501.349609375 1540 c 132,-1,29
 617.400390625 1595 617.400390625 1595 754.900390625 1595 c 4,30,31
 961.700195312 1595 961.700195312 1595 1073.90039062 1468.5 c 5,32,33
 1087.09960938 1481.70019531 1087.09960938 1481.70019531 1105.25 1497.65039062 c 132,-1,34
 1123.40039062 1513.59960938 1123.40039062 1513.59960938 1133.84960938 1522.95019531 c 132,-1,35
 1144.29980469 1532.29980469 1144.29980469 1532.29980469 1155.29980469 1543.29980469 c 132,-1,36
 1166.29980469 1554.29980469 1166.29980469 1554.29980469 1174.54980469 1559.79980469 c 132,-1,37
 1182.79980469 1565.29980469 1182.79980469 1565.29980469 1190.5 1572.45019531 c 132,-1,38
 1198.20019531 1579.59960938 1198.20019531 1579.59960938 1203.70019531 1582.90039062 c 132,-1,39
 1209.20019531 1586.20019531 1209.20019531 1586.20019531 1215.79980469 1589.5 c 132,-1,40
 1222.40039062 1592.79980469 1222.40039062 1592.79980469 1227.34960938 1593.90039062 c 132,-1,41
 1232.29980469 1595 1232.29980469 1595 1238.90039062 1595 c 4,42,43
 1279.59960938 1595 1279.59960938 1595 1279.59960938 1558.70019531 c 4,44,45
 1279.59960938 1543.29980469 1279.59960938 1543.29980469 1161.90039062 1081.29980469 c 4,46,47
 1155.29980469 1056 1155.29980469 1056 1146.5 1046.09960938 c 132,-1,48
 1137.70019531 1036.20019531 1137.70019531 1036.20019531 1129.45019531 1034 c 132,-1,49
 1121.20019531 1031.79980469 1121.20019531 1031.79980469 1101.40039062 1031.79980469 c 6,50,-1
 1097 1031.79980469 l 6,51,52
 1058.5 1031.79980469 1058.5 1031.79980469 1045.84960938 1039.5 c 132,-1,53
 1033.20019531 1047.20019531 1033.20019531 1047.20019531 1033.20019531 1070.29980469 c 4,54,55
 1033.20019531 1076.90039062 1033.20019531 1076.90039062 1037.04980469 1114.29980469 c 132,-1,56
 1040.90039062 1151.70019531 1040.90039062 1151.70019531 1040.90039062 1182.5 c 4,57,58
 1040.90039062 1354.09960938 1040.90039062 1354.09960938 956.200195312 1426.15039062 c 132,-1,59
 871.5 1498.20019531 871.5 1498.20019531 747.200195312 1498.20019531 c 4,60,61
 587.700195312 1498.20019531 587.700195312 1498.20019531 498.599609375 1390.95019531 c 132,-1,62
 409.5 1283.70019531 409.5 1283.70019531 409.5 1171.5 c 4,63,64
 409.5 1092.29980469 409.5 1092.29980469 454.599609375 1047.20019531 c 132,-1,65
 499.700195312 1002.09960938 499.700195312 1002.09960938 572.849609375 984.5 c 132,-1,66
 646 966.900390625 646 966.900390625 725.200195312 952.049804688 c 132,-1,67
 804.400390625 937.200195312 804.400390625 937.200195312 885.25 898.700195312 c 132,-1,68
 966.099609375 860.200195312 966.099609375 860.200195312 1013.40039062 795.299804688 c 4,69,70
 1082.70019531 698.5 1082.70019531 698.5 1083.79980469 565.400390625 c 4,71,72
 1083.79980469 470.799804688 1083.79980469 470.799804688 1045.29980469 367.400390625 c 132,-1,73
 1006.79980469 264 1006.79980469 264 936.950195312 169.400390625 c 132,-1,74
 867.099609375 74.7998046875 867.099609375 74.7998046875 746.650390625 12.650390625 c 132,-1,75
 626.200195312 -49.5 626.200195312 -49.5 482.099609375 -49.5 c 4,76,77
 247.799804688 -49.5 247.799804688 -49.5 101.5 77 c 5,78,79
 -25 -37.400390625 -25 -37.400390625 -45.900390625 -45.099609375 c 4,80,81
 -54.7001953125 -49.5 -54.7001953125 -49.5 -65.7001953125 -49.5 c 4,82,83
 -106.400390625 -49.5 -106.400390625 -49.5 -106.400390625 -13.2001953125 c 4,0,1
EndSplineSet
Validated: 513
Substitution2: "'fwid' Full Widths lookup 32 subtable" uniFF33
Substitution2: "'c2sc' Capitals to Small Capitals lookup 26 subtable" s.sc
AlternateSubs2: "'aalt' Access All Alternates lookup 1 subtable" s.sc uniFF33
EndChar

StartChar: T
Encoding: 84 84 19
Width: 1200
VWidth: 2048
GlyphClass: 2
Flags: W
LayerCount: 2
Fore
SplineSet
-83 45.099609375 m 4,0,1
 -83 107.799804688 -83 107.799804688 -22 107.799804688 c 6,2,-1
 44 107.799804688 l 6,3,4
 196 107.799804688 196 107.799804688 222 114.950195312 c 132,-1,5
 248 122.099609375 248 122.099609375 257 167.200195312 c 4,6,7
 259 178.200195312 259 178.200195312 261 184.799804688 c 6,8,-1
 513 1295.79980469 l 6,9,10
 529 1372.79980469 529 1372.79980469 539 1410.20019531 c 5,11,12
 514 1412.40039062 514 1412.40039062 461 1412.40039062 c 6,13,-1
 441 1412.40039062 l 6,14,15
 267 1412.40039062 267 1412.40039062 191 1341.45019531 c 132,-1,16
 115 1270.5 115 1270.5 40 1036.20019531 c 4,17,18
 30 999.900390625 30 999.900390625 16.5 987.799804688 c 132,-1,19
 3 975.700195312 3 975.700195312 -28 975.700195312 c 4,20,21
 -81 975.700195312 -81 975.700195312 -81 1018.59960938 c 4,22,23
 -81 1031.79980469 -81 1031.79980469 56 1470.70019531 c 4,24,25
 66 1502.59960938 66 1502.59960938 79.5 1511.40039062 c 132,-1,26
 93 1520.20019531 93 1520.20019531 121 1520.20019531 c 6,27,-1
 1268 1520.20019531 l 6,28,29
 1325 1520.20019531 1325 1520.20019531 1326 1470.70019531 c 4,30,31
 1326 1455.29980469 1326 1455.29980469 1266 1042.79980469 c 4,32,33
 1262 1015.29980469 1262 1015.29980469 1259 1004.29980469 c 132,-1,34
 1256 993.299804688 1256 993.299804688 1242.5 984.5 c 132,-1,35
 1229 975.700195312 1229 975.700195312 1205 975.700195312 c 4,36,37
 1150 975.700195312 1150 975.700195312 1150 1023 c 4,38,39
 1150 1027.40039062 1150 1027.40039062 1159 1102.75 c 132,-1,40
 1168 1178.09960938 1168 1178.09960938 1168 1232 c 4,41,42
 1168 1292.5 1168 1292.5 1150.5 1331 c 132,-1,43
 1133 1369.5 1133 1369.5 1096 1386.54980469 c 132,-1,44
 1059 1403.59960938 1059 1403.59960938 1025.5 1408 c 132,-1,45
 992 1412.40039062 992 1412.40039062 937 1412.40039062 c 6,46,-1
 918 1412.40039062 l 6,47,48
 852 1412.40039062 852 1412.40039062 820 1408 c 5,49,-1
 527 114.400390625 l 5,50,51
 529 114.400390625 529 114.400390625 699 107.799804688 c 5,52,-1
 767 107.799804688 l 6,53,54
 826 107.799804688 826 107.799804688 826 60.5 c 4,55,56
 826 0 826 0 767 0 c 4,57,58
 757 0 757 0 706.5 2.2001953125 c 132,-1,59
 656 4.400390625 656 4.400390625 570 5.5 c 132,-1,60
 484 6.599609375 484 6.599609375 382 6.599609375 c 6,61,-1
 277 6.599609375 l 6,62,63
 230 6.599609375 230 6.599609375 156.5 5.5 c 132,-1,64
 83 4.400390625 83 4.400390625 25 2.2001953125 c 6,65,-1
 -30 0 l 6,66,67
 -83 0 -83 0 -83 45.099609375 c 4,0,1
EndSplineSet
Validated: 513
Substitution2: "'fwid' Full Widths lookup 32 subtable" uniFF34
Substitution2: "'c2sc' Capitals to Small Capitals lookup 26 subtable" t.sc
AlternateSubs2: "'aalt' Access All Alternates lookup 1 subtable" t.sc uniFF34
EndChar

StartChar: U
Encoding: 85 85 20
Width: 1200
VWidth: 2048
GlyphClass: 2
Flags: W
LayerCount: 2
Fore
SplineSet
-50.2998046875 382.799804688 m 4,0,1
 -50.2998046875 445.5 -50.2998046875 445.5 -24.2001953125 576.400390625 c 6,2,-1
 99.099609375 1182.5 l 5,3,-1
 151.299804688 1433.29980469 l 5,4,5
 116.200195312 1437.70019531 116.200195312 1437.70019531 42.400390625 1437.70019531 c 6,6,-1
 10.900390625 1437.70019531 l 6,7,8
 -36.7998046875 1437.70019531 -36.7998046875 1437.70019531 -36.7998046875 1485 c 4,9,10
 -36.7998046875 1496 -36.7998046875 1496 -34.099609375 1507 c 132,-1,11
 -31.400390625 1518 -31.400390625 1518 -18.349609375 1531.75 c 132,-1,12
 -5.2998046875 1545.5 -5.2998046875 1545.5 16.2998046875 1545.5 c 4,13,14
 21.7001953125 1545.5 21.7001953125 1545.5 32.0498046875 1544.40039062 c 132,-1,15
 42.400390625 1543.29980469 42.400390625 1543.29980469 47.7998046875 1543.29980469 c 4,16,17
 176.5 1538.90039062 176.5 1538.90039062 263.799804688 1538.90039062 c 6,18,-1
 287.200195312 1538.90039062 l 6,19,20
 361 1538.90039062 361 1538.90039062 425.349609375 1540 c 132,-1,21
 489.700195312 1541.09960938 489.700195312 1541.09960938 526.599609375 1542.20019531 c 132,-1,22
 563.5 1543.29980469 563.5 1543.29980469 571.599609375 1543.29980469 c 4,23,24
 615.700195312 1543.29980469 615.700195312 1543.29980469 615.700195312 1500.40039062 c 4,25,26
 615.700195312 1437.70019531 615.700195312 1437.70019531 558.099609375 1437.70019531 c 6,27,-1
 530.200195312 1437.70019531 l 6,28,29
 505.900390625 1437.70019531 505.900390625 1437.70019531 491.5 1437.70019531 c 132,-1,30
 477.099609375 1437.70019531 477.099609375 1437.70019531 463.150390625 1437.70019531 c 132,-1,31
 449.200195312 1437.70019531 449.200195312 1437.70019531 441.099609375 1435.5 c 132,-1,32
 433 1433.29980469 433 1433.29980469 425.799804688 1431.65039062 c 132,-1,33
 418.599609375 1430 418.599609375 1430 414.549804688 1426.70019531 c 132,-1,34
 410.5 1423.40039062 410.5 1423.40039062 406.900390625 1421.20019531 c 132,-1,35
 403.299804688 1419 403.299804688 1419 401.5 1412.40039062 c 132,-1,36
 399.700195312 1405.79980469 399.700195312 1405.79980469 398.799804688 1402.5 c 132,-1,37
 397.900390625 1399.20019531 397.900390625 1399.20019531 396.099609375 1388.75 c 132,-1,38
 394.299804688 1378.29980469 394.299804688 1378.29980469 392.5 1371.70019531 c 6,39,-1
 248.5 666.599609375 l 6,40,41
 244.900390625 644.599609375 244.900390625 644.599609375 230.049804688 574.75 c 132,-1,42
 215.200195312 504.900390625 215.200195312 504.900390625 208 467.5 c 132,-1,43
 200.799804688 430.099609375 200.799804688 430.099609375 193.599609375 378.400390625 c 132,-1,44
 186.400390625 326.700195312 186.400390625 326.700195312 186.400390625 290.400390625 c 4,45,46
 186.400390625 163.900390625 186.400390625 163.900390625 248.950195312 111.099609375 c 132,-1,47
 311.5 58.2998046875 311.5 58.2998046875 401.5 58.2998046875 c 4,48,49
 482.5 58.2998046875 482.5 58.2998046875 559 90.2001953125 c 132,-1,50
 635.5 122.099609375 635.5 122.099609375 714.700195312 214.5 c 132,-1,51
 793.900390625 306.900390625 793.900390625 306.900390625 836.200195312 453.200195312 c 4,52,53
 852.400390625 509.299804688 852.400390625 509.299804688 864.099609375 567.599609375 c 6,54,-1
 1037.79980469 1414.59960938 l 5,55,56
 991.900390625 1436.59960938 991.900390625 1436.59960938 906.400390625 1437.70019531 c 4,57,58
 853.299804688 1437.70019531 853.299804688 1437.70019531 853.299804688 1482.79980469 c 4,59,60
 853.299804688 1545.5 853.299804688 1545.5 904.599609375 1545.5 c 4,61,62
 910 1545.5 910 1545.5 938.799804688 1543.29980469 c 132,-1,63
 967.599609375 1541.09960938 967.599609375 1541.09960938 1017.09960938 1540 c 132,-1,64
 1066.59960938 1538.90039062 1066.59960938 1538.90039062 1124.20019531 1538.90039062 c 4,65,66
 1194.40039062 1538.90039062 1194.40039062 1538.90039062 1254.25 1541.09960938 c 132,-1,67
 1314.09960938 1543.29980469 1314.09960938 1543.29980469 1324.90039062 1543.29980469 c 4,68,69
 1367.20019531 1543.29980469 1367.20019531 1543.29980469 1367.20019531 1500.40039062 c 4,70,71
 1367.20019531 1437.70019531 1367.20019531 1437.70019531 1314.09960938 1437.70019531 c 4,72,73
 1277.20019531 1437.70019531 1277.20019531 1437.70019531 1249.29980469 1435.5 c 132,-1,74
 1221.40039062 1433.29980469 1221.40039062 1433.29980469 1203.40039062 1426.15039062 c 132,-1,75
 1185.40039062 1419 1185.40039062 1419 1175.04980469 1415.70019531 c 132,-1,76
 1164.70019531 1412.40039062 1164.70019531 1412.40039062 1157.5 1401.40039062 c 132,-1,77
 1150.29980469 1390.40039062 1150.29980469 1390.40039062 1148.5 1385.45019531 c 132,-1,78
 1146.70019531 1380.5 1146.70019531 1380.5 1143.54980469 1365.09960938 c 132,-1,79
 1140.40039062 1349.70019531 1140.40039062 1349.70019531 1138.59960938 1345.29980469 c 6,80,-1
 978.400390625 556.599609375 l 6,81,82
 917.200195312 259.599609375 917.200195312 259.599609375 763.299804688 105.599609375 c 4,83,84
 610.299804688 -49.5 610.299804688 -49.5 387.099609375 -49.5 c 4,85,86
 197.200195312 -49.5 197.200195312 -49.5 73.4501953125 59.400390625 c 132,-1,87
 -50.2998046875 168.299804688 -50.2998046875 168.299804688 -50.2998046875 382.799804688 c 4,0,1
EndSplineSet
Validated: 513
Substitution2: "'fwid' Full Widths lookup 32 subtable" uniFF35
Substitution2: "'c2sc' Capitals to Small Capitals lookup 26 subtable" u.sc
AlternateSubs2: "'aalt' Access All Alternates lookup 1 subtable" u.sc uniFF35
EndChar

StartChar: V
Encoding: 86 86 21
Width: 1200
VWidth: 2048
GlyphClass: 2
Flags: W
LayerCount: 2
Fore
SplineSet
-83.2001953125 1482.79980469 m 4,0,1
 -83.2001953125 1545.5 -83.2001953125 1545.5 -29.2001953125 1545.5 c 4,2,3
 -23.7998046875 1545.5 -23.7998046875 1545.5 -0.849609375 1543.29980469 c 132,-1,4
 22.099609375 1541.09960938 22.099609375 1541.09960938 81.0498046875 1540 c 132,-1,5
 140 1538.90039062 140 1538.90039062 230.900390625 1538.90039062 c 4,6,7
 297.5 1538.90039062 297.5 1538.90039062 352.400390625 1540 c 132,-1,8
 407.299804688 1541.09960938 407.299804688 1541.09960938 438.799804688 1543.29980469 c 132,-1,9
 470.299804688 1545.5 470.299804688 1545.5 477.5 1545.5 c 4,10,11
 521.599609375 1545.5 521.599609375 1545.5 521.599609375 1498.20019531 c 4,12,13
 521.599609375 1437.70019531 521.599609375 1437.70019531 463.099609375 1437.70019531 c 6,14,-1
 451.400390625 1437.70019531 l 6,15,16
 392 1437.70019531 392 1437.70019531 335.299804688 1425.59960938 c 5,17,-1
 457.700195312 378.400390625 l 5,18,-1
 1001.29980469 1414.59960938 l 5,19,20
 973.400390625 1425.59960938 973.400390625 1425.59960938 941 1431.65039062 c 132,-1,21
 908.599609375 1437.70019531 908.599609375 1437.70019531 890.150390625 1439.90039062 c 132,-1,22
 871.700195312 1442.09960938 871.700195312 1442.09960938 860 1452 c 132,-1,23
 848.299804688 1461.90039062 848.299804688 1461.90039062 848.299804688 1485 c 4,24,25
 848.299804688 1545.5 848.299804688 1545.5 897.799804688 1545.5 c 4,26,27
 903.200195312 1545.5 903.200195312 1545.5 930.200195312 1543.29980469 c 132,-1,28
 957.200195312 1541.09960938 957.200195312 1541.09960938 1004 1540 c 132,-1,29
 1050.79980469 1538.90039062 1050.79980469 1538.90039062 1105.70019531 1538.90039062 c 4,30,31
 1149.79980469 1538.90039062 1149.79980469 1538.90039062 1186.70019531 1540 c 132,-1,32
 1223.59960938 1541.09960938 1223.59960938 1541.09960938 1245.20019531 1542.20019531 c 132,-1,33
 1266.79980469 1543.29980469 1266.79980469 1543.29980469 1272.20019531 1543.29980469 c 4,34,35
 1314.5 1543.29980469 1314.5 1543.29980469 1314.5 1500.40039062 c 132,-1,36
 1314.5 1457.5 1314.5 1457.5 1290.65039062 1446.5 c 132,-1,37
 1266.79980469 1435.5 1266.79980469 1435.5 1219.54980469 1432.75 c 132,-1,38
 1172.29980469 1430 1172.29980469 1430 1142.59960938 1414.59960938 c 4,39,40
 1111.09960938 1397 1111.09960938 1397 1084.09960938 1340.90039062 c 6,41,-1
 398.299804688 34.099609375 l 6,42,43
 366.799804688 -28.599609375 366.799804688 -28.599609375 313.700195312 -29.7001953125 c 6,44,-1
 296.599609375 -29.7001953125 l 6,45,46
 282.200195312 -29.7001953125 282.200195312 -29.7001953125 270.950195312 -24.75 c 132,-1,47
 259.700195312 -19.7998046875 259.700195312 -19.7998046875 254.299804688 -16.5 c 132,-1,48
 248.900390625 -13.2001953125 248.900390625 -13.2001953125 244.400390625 0 c 132,-1,49
 239.900390625 13.2001953125 239.900390625 13.2001953125 239 19.25 c 132,-1,50
 238.099609375 25.2998046875 238.099609375 25.2998046875 235.400390625 44 c 132,-1,51
 232.700195312 62.7001953125 232.700195312 62.7001953125 232.700195312 67.099609375 c 6,52,-1
 92.2998046875 1291.40039062 l 5,53,-1
 76.099609375 1433.29980469 l 5,54,55
 16.7001953125 1437.70019531 16.7001953125 1437.70019531 -14.7998046875 1437.70019531 c 6,56,-1
 -31 1437.70019531 l 6,57,58
 -83.2001953125 1437.70019531 -83.2001953125 1437.70019531 -83.2001953125 1482.79980469 c 4,0,1
EndSplineSet
Validated: 513
Substitution2: "'fwid' Full Widths lookup 32 subtable" uniFF36
Substitution2: "'c2sc' Capitals to Small Capitals lookup 26 subtable" v.sc
AlternateSubs2: "'aalt' Access All Alternates lookup 1 subtable" v.sc uniFF36
EndChar

StartChar: W
Encoding: 87 87 22
Width: 1200
VWidth: 2048
GlyphClass: 2
Flags: W
LayerCount: 2
Fore
SplineSet
-165.25 1482.79980469 m 4,0,1
 -165.25 1545.5 -165.25 1545.5 -120.25 1545.5 c 4,2,3
 -115.75 1545.5 -115.75 1545.5 -98.125 1543.29980469 c 132,-1,4
 -80.5 1541.09960938 -80.5 1541.09960938 -34.375 1540 c 132,-1,5
 11.75 1538.90039062 11.75 1538.90039062 85.25 1538.90039062 c 4,6,7
 139.25 1538.90039062 139.25 1538.90039062 186.125 1540 c 132,-1,8
 233 1541.09960938 233 1541.09960938 258.875 1543.29980469 c 132,-1,9
 284.75 1545.5 284.75 1545.5 291.5 1545.5 c 4,10,11
 328.25 1545.5 328.25 1545.5 328.25 1498.20019531 c 4,12,13
 328.25 1437.70019531 328.25 1437.70019531 280.25 1437.70019531 c 6,14,-1
 268.25 1437.70019531 l 6,15,16
 179 1437.70019531 179 1437.70019531 171.5 1425.59960938 c 5,17,-1
 234.5 425.700195312 l 5,18,-1
 236 425.700195312 l 5,19,-1
 266.75 504.900390625 l 5,20,-1
 535.25 1169.29980469 l 6,21,22
 547.25 1199 547.25 1199 548 1223.20019531 c 4,23,24
 548 1229.79980469 548 1229.79980469 535.25 1433.29980469 c 5,25,26
 512 1437.70019531 512 1437.70019531 467.75 1437.70019531 c 6,27,-1
 457.25 1437.70019531 l 6,28,29
 414.5 1437.70019531 414.5 1437.70019531 414.5 1485 c 4,30,31
 414.5 1545.5 414.5 1545.5 458.75 1545.5 c 4,32,33
 463.25 1545.5 463.25 1545.5 480.875 1543.29980469 c 132,-1,34
 498.5 1541.09960938 498.5 1541.09960938 544.625 1540 c 132,-1,35
 590.75 1538.90039062 590.75 1538.90039062 663.125 1538.90039062 c 132,-1,36
 735.5 1538.90039062 735.5 1538.90039062 797.375 1542.20019531 c 132,-1,37
 859.25 1545.5 859.25 1545.5 870.5 1545.5 c 4,38,39
 907.25 1545.5 907.25 1545.5 907.25 1500.40039062 c 132,-1,40
 907.25 1455.29980469 907.25 1455.29980469 885.5 1444.29980469 c 4,41,42
 879.5 1439.90039062 879.5 1439.90039062 861.125 1439.90039062 c 132,-1,43
 842.75 1439.90039062 842.75 1439.90039062 810.5 1436.59960938 c 132,-1,44
 778.25 1433.29980469 778.25 1433.29980469 749 1425.59960938 c 5,45,-1
 813.5 425.700195312 l 5,46,-1
 1214.75 1412.40039062 l 5,47,48
 1175 1430 1175 1430 1132.625 1434.95019531 c 132,-1,49
 1090.25 1439.90039062 1090.25 1439.90039062 1078.625 1447.59960938 c 132,-1,50
 1067 1455.29980469 1067 1455.29980469 1067 1489.40039062 c 4,51,52
 1067 1545.5 1067 1545.5 1108.25 1545.5 c 4,53,54
 1112.75 1545.5 1112.75 1545.5 1137.5 1543.29980469 c 132,-1,55
 1162.25 1541.09960938 1162.25 1541.09960938 1204.625 1540 c 132,-1,56
 1247 1538.90039062 1247 1538.90039062 1297.25 1538.90039062 c 4,57,58
 1329.5 1538.90039062 1329.5 1538.90039062 1357.25 1540 c 132,-1,59
 1385 1541.09960938 1385 1541.09960938 1401.125 1542.20019531 c 132,-1,60
 1417.25 1543.29980469 1417.25 1543.29980469 1420.25 1543.29980469 c 4,61,62
 1455.5 1543.29980469 1455.5 1543.29980469 1455.5 1500.40039062 c 4,63,64
 1455.5 1459.70019531 1455.5 1459.70019531 1437.125 1448.70019531 c 132,-1,65
 1418.75 1437.70019531 1418.75 1437.70019531 1382.75 1433.84960938 c 132,-1,66
 1346.75 1430 1346.75 1430 1326.5 1416.79980469 c 4,67,68
 1301.75 1401.40039062 1301.75 1401.40039062 1274 1338.70019531 c 6,69,-1
 747.5 36.2998046875 l 6,70,71
 730.25 -4.400390625 730.25 -4.400390625 715.625 -17.0498046875 c 132,-1,72
 701 -29.7001953125 701 -29.7001953125 674 -29.7001953125 c 4,73,74
 644.75 -29.7001953125 644.75 -29.7001953125 636.125 -12.650390625 c 132,-1,75
 627.5 4.400390625 627.5 4.400390625 624.5 47.2998046875 c 6,76,-1
 569 903.099609375 l 6,77,78
 567.5 920.700195312 567.5 920.700195312 566 955.900390625 c 132,-1,79
 564.5 991.099609375 564.5 991.099609375 563 1009.79980469 c 5,80,-1
 168.5 34.099609375 l 6,81,82
 151.25 -4.400390625 151.25 -4.400390625 136.625 -17.0498046875 c 132,-1,83
 122 -29.7001953125 122 -29.7001953125 98 -29.7001953125 c 6,84,-1
 95 -29.7001953125 l 6,85,86
 77.75 -29.7001953125 77.75 -29.7001953125 67.625 -24.75 c 132,-1,87
 57.5 -19.7998046875 57.5 -19.7998046875 53 -1.099609375 c 132,-1,88
 48.5 17.599609375 48.5 17.599609375 47.75 23.650390625 c 132,-1,89
 47 29.7001953125 47 29.7001953125 45.5 60.5 c 6,90,-1
 -34.75 1304.59960938 l 5,91,-1
 -43.75 1433.29980469 l 5,92,93
 -67 1437.70019531 -67 1437.70019531 -111.25 1437.70019531 c 6,94,-1
 -121.75 1437.70019531 l 6,95,96
 -165.25 1437.70019531 -165.25 1437.70019531 -165.25 1482.79980469 c 4,0,1
EndSplineSet
Validated: 513
Substitution2: "'fwid' Full Widths lookup 32 subtable" uniFF37
Substitution2: "'c2sc' Capitals to Small Capitals lookup 26 subtable" w.sc
AlternateSubs2: "'aalt' Access All Alternates lookup 1 subtable" w.sc uniFF37
EndChar

StartChar: X
Encoding: 88 88 23
Width: 1200
VWidth: 2048
GlyphClass: 2
Flags: W
LayerCount: 2
Fore
SplineSet
-102.799804688 45.099609375 m 4,0,1
 -102.799804688 107.799804688 -102.799804688 107.799804688 -54.7998046875 107.799804688 c 6,2,-1
 -50 107.799804688 l 5,3,4
 53.2001953125 112.200195312 53.2001953125 112.200195312 88.400390625 133.650390625 c 132,-1,5
 123.599609375 155.099609375 123.599609375 155.099609375 170.799804688 225.5 c 6,6,-1
 485.200195312 691.900390625 l 5,7,-1
 530 759 l 5,8,-1
 346 1386 l 6,9,10
 341.200195312 1401.40039062 341.200195312 1401.40039062 338.799804688 1408 c 132,-1,11
 336.400390625 1414.59960938 336.400390625 1414.59960938 331.599609375 1422.29980469 c 132,-1,12
 326.799804688 1430 326.799804688 1430 323.599609375 1431.65039062 c 132,-1,13
 320.400390625 1433.29980469 320.400390625 1433.29980469 309.599609375 1435.5 c 132,-1,14
 298.799804688 1437.70019531 298.799804688 1437.70019531 290.400390625 1436.59960938 c 132,-1,15
 282 1435.5 282 1435.5 260.799804688 1436.59960938 c 132,-1,16
 239.599609375 1437.70019531 239.599609375 1437.70019531 222 1437.70019531 c 4,17,18
 182.799804688 1437.70019531 182.799804688 1437.70019531 182.799804688 1487.20019531 c 4,19,20
 182.799804688 1545.5 182.799804688 1545.5 226.799804688 1545.5 c 4,21,22
 233.200195312 1545.5 233.200195312 1545.5 260.400390625 1543.29980469 c 132,-1,23
 287.599609375 1541.09960938 287.599609375 1541.09960938 335.599609375 1540 c 132,-1,24
 383.599609375 1538.90039062 383.599609375 1538.90039062 441.200195312 1538.90039062 c 4,25,26
 506.799804688 1538.90039062 506.799804688 1538.90039062 561.599609375 1540 c 132,-1,27
 616.400390625 1541.09960938 616.400390625 1541.09960938 647.599609375 1543.29980469 c 132,-1,28
 678.799804688 1545.5 678.799804688 1545.5 685.200195312 1545.5 c 4,29,30
 726 1545.5 726 1545.5 726 1500.40039062 c 4,31,32
 726 1478.40039062 726 1478.40039062 719.599609375 1463.54980469 c 132,-1,33
 713.200195312 1448.70019531 713.200195312 1448.70019531 698.400390625 1443.20019531 c 132,-1,34
 683.599609375 1437.70019531 683.599609375 1437.70019531 668.799804688 1435.5 c 132,-1,35
 654 1433.29980469 654 1433.29980469 627.200195312 1430.54980469 c 132,-1,36
 600.400390625 1427.79980469 600.400390625 1427.79980469 582 1423.40039062 c 5,37,-1
 700.400390625 1014.20019531 l 5,38,-1
 969.200195312 1412.40039062 l 5,39,40
 936.400390625 1427.79980469 936.400390625 1427.79980469 896.799804688 1432.75 c 132,-1,41
 857.200195312 1437.70019531 857.200195312 1437.70019531 844.400390625 1446.5 c 132,-1,42
 831.599609375 1455.29980469 831.599609375 1455.29980469 831.599609375 1485 c 4,43,44
 831.599609375 1545.5 831.599609375 1545.5 878.799804688 1545.5 c 4,45,46
 885.200195312 1545.5 885.200195312 1545.5 911.599609375 1543.29980469 c 132,-1,47
 938 1541.09960938 938 1541.09960938 984.400390625 1540 c 132,-1,48
 1030.79980469 1538.90039062 1030.79980469 1538.90039062 1085.20019531 1538.90039062 c 4,49,50
 1132.40039062 1538.90039062 1132.40039062 1538.90039062 1172.79980469 1540 c 132,-1,51
 1213.20019531 1541.09960938 1213.20019531 1541.09960938 1236 1542.20019531 c 132,-1,52
 1258.79980469 1543.29980469 1258.79980469 1543.29980469 1263.59960938 1543.29980469 c 4,53,54
 1302.79980469 1543.29980469 1302.79980469 1543.29980469 1302.79980469 1500.40039062 c 4,55,56
 1302.79980469 1437.70019531 1302.79980469 1437.70019531 1255.59960938 1437.70019531 c 6,57,-1
 1252.40039062 1437.70019531 l 6,58,59
 1183.59960938 1435.5 1183.59960938 1435.5 1140.79980469 1420.65039062 c 132,-1,60
 1098 1405.79980469 1098 1405.79980469 1081.59960938 1389.84960938 c 132,-1,61
 1065.20019531 1373.90039062 1065.20019531 1373.90039062 1039.59960938 1335.40039062 c 4,62,63
 756.400390625 914.099609375 756.400390625 914.099609375 747.599609375 894.299804688 c 4,64,65
 744.400390625 887.700195312 744.400390625 887.700195312 744.400390625 878.900390625 c 260,66,67
 744.400390625 870.099609375 744.400390625 870.099609375 749.200195312 851.400390625 c 6,68,-1
 954 148.5 l 6,69,70
 960.400390625 128.700195312 960.400390625 128.700195312 965.599609375 122.650390625 c 132,-1,71
 970.799804688 116.599609375 970.799804688 116.599609375 990.400390625 112.200195312 c 132,-1,72
 1010 107.799804688 1010 107.799804688 1055.59960938 107.799804688 c 6,73,-1
 1066.79980469 107.799804688 l 6,74,75
 1115.59960938 107.799804688 1115.59960938 107.799804688 1116.40039062 60.5 c 4,76,77
 1116.40039062 49.5 1116.40039062 49.5 1114 37.400390625 c 132,-1,78
 1111.59960938 25.2998046875 1111.59960938 25.2998046875 1100 12.650390625 c 132,-1,79
 1088.40039062 0 1088.40039062 0 1070.79980469 0 c 4,80,81
 1069.20019531 0 1069.20019531 0 1002 3.2998046875 c 132,-1,82
 934.799804688 6.599609375 934.799804688 6.599609375 891.599609375 6.599609375 c 6,83,-1
 827.599609375 6.599609375 l 6,84,85
 794.799804688 6.599609375 794.799804688 6.599609375 728 3.2998046875 c 132,-1,86
 661.200195312 0 661.200195312 0 613.200195312 0 c 4,87,88
 570.799804688 0 570.799804688 0 570.799804688 47.2998046875 c 4,89,90
 570.799804688 83.599609375 570.799804688 83.599609375 585.599609375 95.7001953125 c 132,-1,91
 600.400390625 107.799804688 600.400390625 107.799804688 648 112.200195312 c 132,-1,92
 695.599609375 116.599609375 695.599609375 116.599609375 716.400390625 122.099609375 c 5,93,-1
 567.599609375 630.299804688 l 5,94,-1
 231.599609375 133.099609375 l 5,95,96
 264.400390625 117.700195312 264.400390625 117.700195312 303.599609375 112.75 c 132,-1,97
 342.799804688 107.799804688 342.799804688 107.799804688 356.799804688 99 c 132,-1,98
 370.799804688 90.2001953125 370.799804688 90.2001953125 370.799804688 60.5 c 4,99,100
 370.799804688 0 370.799804688 0 323.599609375 0 c 4,101,102
 317.200195312 0 317.200195312 0 290.799804688 2.2001953125 c 132,-1,103
 264.400390625 4.400390625 264.400390625 4.400390625 217.599609375 5.5 c 132,-1,104
 170.799804688 6.599609375 170.799804688 6.599609375 117.200195312 6.599609375 c 4,105,106
 66.7998046875 6.599609375 66.7998046875 6.599609375 11.599609375 4.400390625 c 132,-1,107
 -43.599609375 2.2001953125 -43.599609375 2.2001953125 -51.599609375 2.2001953125 c 4,108,109
 -102.799804688 2.2001953125 -102.799804688 2.2001953125 -102.799804688 45.099609375 c 4,0,1
EndSplineSet
Validated: 513
Substitution2: "'fwid' Full Widths lookup 32 subtable" uniFF38
Substitution2: "'c2sc' Capitals to Small Capitals lookup 26 subtable" x.sc
AlternateSubs2: "'aalt' Access All Alternates lookup 1 subtable" x.sc uniFF38
EndChar

StartChar: Y
Encoding: 89 89 24
Width: 1200
VWidth: 2048
GlyphClass: 2
Flags: W
LayerCount: 2
Fore
SplineSet
-23.7998046875 1485 m 4,0,1
 -23.7998046875 1545.5 -23.7998046875 1545.5 22.599609375 1545.5 c 4,2,3
 29 1545.5 29 1545.5 84.599609375 1542.20019531 c 132,-1,4
 140.200195312 1538.90039062 140.200195312 1538.90039062 243.400390625 1538.90039062 c 6,5,-1
 287.400390625 1538.90039062 l 6,6,7
 353 1538.90039062 353 1538.90039062 415.400390625 1542.20019531 c 132,-1,8
 477.799804688 1545.5 477.799804688 1545.5 482.599609375 1545.5 c 4,9,10
 528.200195312 1545.5 528.200195312 1545.5 528.200195312 1500.40039062 c 4,11,12
 528.200195312 1439.90039062 528.200195312 1439.90039062 484.200195312 1437.70019531 c 6,13,-1
 461 1437.70019531 l 6,14,15
 434.599609375 1437.70019531 434.599609375 1437.70019531 379.400390625 1427.79980469 c 5,16,-1
 546.599609375 793.099609375 l 5,17,-1
 939.400390625 1419 l 5,18,19
 913 1430 913 1430 878.200195312 1433.84960938 c 132,-1,20
 843.400390625 1437.70019531 843.400390625 1437.70019531 831 1447.59960938 c 132,-1,21
 818.599609375 1457.5 818.599609375 1457.5 818.599609375 1489.40039062 c 4,22,23
 818.599609375 1545.5 818.599609375 1545.5 864.200195312 1545.5 c 4,24,25
 869 1545.5 869 1545.5 913.400390625 1542.20019531 c 132,-1,26
 957.799804688 1538.90039062 957.799804688 1538.90039062 1041 1538.90039062 c 6,27,-1
 1067.40039062 1538.90039062 l 6,28,29
 1114.59960938 1538.90039062 1114.59960938 1538.90039062 1155 1541.09960938 c 132,-1,30
 1195.40039062 1543.29980469 1195.40039062 1543.29980469 1201.79980469 1543.29980469 c 4,31,32
 1237.79980469 1543.29980469 1237.79980469 1543.29980469 1237.79980469 1500.40039062 c 4,33,34
 1237.79980469 1437.70019531 1237.79980469 1437.70019531 1189 1437.70019531 c 4,35,36
 1109 1435.5 1109 1435.5 1075 1415.15039062 c 132,-1,37
 1041 1394.79980469 1041 1394.79980469 1003.40039062 1333.20019531 c 6,38,-1
 576.200195312 651.200195312 l 6,39,40
 557.799804688 621.5 557.799804688 621.5 549.799804688 583 c 4,41,42
 545 561 545 561 462.599609375 112.200195312 c 5,43,44
 493.799804688 107.799804688 493.799804688 107.799804688 559.400390625 107.799804688 c 6,45,-1
 590.599609375 107.799804688 l 6,46,47
 629.799804688 107.799804688 629.799804688 107.799804688 629.799804688 60.5 c 4,48,49
 629.799804688 49.5 629.799804688 49.5 627.400390625 37.400390625 c 132,-1,50
 625 25.2998046875 625 25.2998046875 613.799804688 12.650390625 c 132,-1,51
 602.599609375 0 602.599609375 0 584.200195312 0 c 4,52,53
 581 0 581 0 571.799804688 1.099609375 c 132,-1,54
 562.599609375 2.2001953125 562.599609375 2.2001953125 557.799804688 2.2001953125 c 4,55,56
 393.799804688 6.599609375 393.799804688 6.599609375 353 6.599609375 c 4,57,58
 287.400390625 6.599609375 287.400390625 6.599609375 229.400390625 5.5 c 132,-1,59
 171.400390625 4.400390625 171.400390625 4.400390625 138.599609375 2.2001953125 c 132,-1,60
 105.799804688 0 105.799804688 0 99.400390625 0 c 4,61,62
 60.2001953125 0 60.2001953125 0 60.2001953125 47.2998046875 c 4,63,64
 60.2001953125 105.599609375 60.2001953125 105.599609375 105.799804688 107.799804688 c 6,65,-1
 127.400390625 107.799804688 l 6,66,67
 152.200195312 107.799804688 152.200195312 107.799804688 166.599609375 107.799804688 c 132,-1,68
 181 107.799804688 181 107.799804688 195.799804688 108.900390625 c 132,-1,69
 210.599609375 110 210.599609375 110 217.799804688 110 c 132,-1,70
 225 110 225 110 233.400390625 114.950195312 c 132,-1,71
 241.799804688 119.900390625 241.799804688 119.900390625 244.200195312 121 c 132,-1,72
 246.599609375 122.099609375 246.599609375 122.099609375 249.799804688 129.799804688 c 132,-1,73
 253 137.5 253 137.5 253.799804688 139.700195312 c 132,-1,74
 254.599609375 141.900390625 254.599609375 141.900390625 256.200195312 155.650390625 c 132,-1,75
 257.799804688 169.400390625 257.799804688 169.400390625 259.400390625 173.799804688 c 4,76,77
 337.799804688 597.299804688 337.799804688 597.299804688 338.599609375 619.299804688 c 4,78,79
 338.599609375 625.900390625 338.599609375 625.900390625 332.200195312 653.400390625 c 6,80,-1
 140.200195312 1380.5 l 6,81,82
 138.599609375 1384.90039062 138.599609375 1384.90039062 137 1392.59960938 c 4,83,84
 127.400390625 1426.70019531 127.400390625 1426.70019531 115 1432.20019531 c 132,-1,85
 102.599609375 1437.70019531 102.599609375 1437.70019531 35.400390625 1437.70019531 c 6,86,-1
 24.2001953125 1437.70019531 l 6,87,88
 -23.7998046875 1437.70019531 -23.7998046875 1437.70019531 -23.7998046875 1485 c 4,0,1
EndSplineSet
Validated: 513
Substitution2: "'fwid' Full Widths lookup 32 subtable" uniFF39
Substitution2: "'c2sc' Capitals to Small Capitals lookup 26 subtable" y.sc
AlternateSubs2: "'aalt' Access All Alternates lookup 1 subtable" y.sc uniFF39
EndChar

StartChar: Z
Encoding: 90 90 25
Width: 1200
VWidth: 2048
GlyphClass: 2
Flags: W
LayerCount: 2
Fore
SplineSet
-24.5 36.2998046875 m 4,0,1
 -24.5 81.400390625 -24.5 81.400390625 14.2001953125 133.099609375 c 6,2,-1
 948.400390625 1437.70019531 l 5,3,-1
 778.299804688 1437.70019531 l 6,4,5
 695.5 1437.70019531 695.5 1437.70019531 637.450195312 1426.15039062 c 132,-1,6
 579.400390625 1414.59960938 579.400390625 1414.59960938 515.049804688 1377.75 c 132,-1,7
 450.700195312 1340.90039062 450.700195312 1340.90039062 400.75 1261.70019531 c 132,-1,8
 350.799804688 1182.5 350.799804688 1182.5 315.700195312 1061.5 c 4,9,10
 304.900390625 1023 304.900390625 1023 295.900390625 1011.45019531 c 132,-1,11
 286.900390625 999.900390625 286.900390625 999.900390625 259 999.900390625 c 6,12,-1
 251.799804688 999.900390625 l 6,13,14
 209.5 999.900390625 209.5 999.900390625 209.5 1045 c 4,15,16
 209.5 1056 209.5 1056 317.5 1493.79980469 c 4,17,18
 326.5 1523.5 326.5 1523.5 336.849609375 1534.5 c 132,-1,19
 347.200195312 1545.5 347.200195312 1545.5 369.700195312 1545.5 c 6,20,-1
 1213.90039062 1545.5 l 6,21,22
 1249 1545.5 1249 1545.5 1249 1509.20019531 c 4,23,24
 1249 1470.70019531 1249 1470.70019531 1221.09960938 1433.29980469 c 6,25,-1
 278.799804688 116.599609375 l 5,26,-1
 465.099609375 116.599609375 l 6,27,28
 669.400390625 116.599609375 669.400390625 116.599609375 779.200195312 207.900390625 c 132,-1,29
 889 299.200195312 889 299.200195312 961 569.799804688 c 4,30,31
 973.599609375 617.099609375 973.599609375 617.099609375 983.950195312 630.849609375 c 132,-1,32
 994.299804688 644.599609375 994.299804688 644.599609375 1024 644.599609375 c 4,33,34
 1073.5 644.599609375 1073.5 644.599609375 1073.5 599.5 c 4,35,36
 1073.5 577.5 1073.5 577.5 1064.5 550 c 4,37,38
 1033 433.400390625 1033 433.400390625 992.5 266.200195312 c 4,39,40
 935.799804688 36.2998046875 935.799804688 36.2998046875 916.900390625 13.2001953125 c 4,41,42
 907.900390625 0 907.900390625 0 878.200195312 0 c 6,43,-1
 19.599609375 0 l 6,44,45
 -24.5 0 -24.5 0 -24.5 36.2998046875 c 4,0,1
EndSplineSet
Validated: 513
Substitution2: "'fwid' Full Widths lookup 32 subtable" uniFF3A
Substitution2: "'c2sc' Capitals to Small Capitals lookup 26 subtable" z.sc
AlternateSubs2: "'aalt' Access All Alternates lookup 1 subtable" z.sc uniFF3A
EndChar

StartChar: a
Encoding: 97 97 26
Width: 1200
VWidth: 2048
GlyphClass: 2
Flags: W
LayerCount: 2
Fore
SplineSet
8.599609375 368.400390625 m 4,0,1
 8.599609375 548.400390625 8.599609375 548.400390625 89.599609375 718.799804688 c 132,-1,2
 170.599609375 889.200195312 170.599609375 889.200195312 326.599609375 1005 c 132,-1,3
 482.599609375 1120.79980469 482.599609375 1120.79980469 672.200195312 1120.79980469 c 4,4,5
 812.599609375 1120.79980469 812.599609375 1120.79980469 913.400390625 1022.40039062 c 5,6,7
 967.400390625 1069.20019531 967.400390625 1069.20019531 1023.79980469 1069.20019531 c 4,8,9
 1068.20019531 1069.20019531 1068.20019531 1069.20019531 1101.20019531 1042.20019531 c 132,-1,10
 1134.20019531 1015.20019531 1134.20019531 1015.20019531 1134.20019531 966 c 4,11,12
 1134.20019531 936 1134.20019531 936 1039.40039062 566.400390625 c 132,-1,13
 944.599609375 196.799804688 944.599609375 196.799804688 944.599609375 140.400390625 c 4,14,15
 944.599609375 64.7998046875 944.599609375 64.7998046875 991.400390625 63.599609375 c 4,16,17
 1073 63.599609375 1073 63.599609375 1141.40039062 339.599609375 c 4,18,19
 1148.59960938 374.400390625 1148.59960938 374.400390625 1161.20019531 386.400390625 c 132,-1,20
 1173.79980469 398.400390625 1173.79980469 398.400390625 1209.79980469 398.400390625 c 6,21,-1
 1220.59960938 398.400390625 l 6,22,23
 1284.20019531 398.400390625 1284.20019531 398.400390625 1284.20019531 356.400390625 c 4,24,25
 1281.79980469 342 1281.79980469 342 1275.79980469 316.200195312 c 132,-1,26
 1269.79980469 290.400390625 1269.79980469 290.400390625 1246.40039062 223.799804688 c 132,-1,27
 1223 157.200195312 1223 157.200195312 1190.59960938 106.799804688 c 132,-1,28
 1158.20019531 56.400390625 1158.20019531 56.400390625 1101.79980469 14.400390625 c 132,-1,29
 1045.40039062 -27.599609375 1045.40039062 -27.599609375 977 -27.599609375 c 4,30,31
 812.599609375 -27.599609375 812.599609375 -27.599609375 726.200195312 100.799804688 c 5,32,33
 573.799804688 -26.400390625 573.799804688 -26.400390625 402.200195312 -27.599609375 c 4,34,35
 235.400390625 -27.599609375 235.400390625 -27.599609375 122 72 c 132,-1,36
 8.599609375 171.599609375 8.599609375 171.599609375 8.599609375 368.400390625 c 4,0,1
273.799804688 238.799804688 m 4,37,38
 273.799804688 145.200195312 273.799804688 145.200195312 317 104.400390625 c 132,-1,39
 360.200195312 63.599609375 360.200195312 63.599609375 414.200195312 63.599609375 c 4,40,41
 505.400390625 63.599609375 505.400390625 63.599609375 586.400390625 126.599609375 c 132,-1,42
 667.400390625 189.599609375 667.400390625 189.599609375 691.400390625 238.799804688 c 4,43,44
 696.200195312 248.400390625 696.200195312 248.400390625 772.400390625 552 c 132,-1,45
 848.599609375 855.599609375 848.599609375 855.599609375 848.599609375 870 c 4,46,47
 848.599609375 914.400390625 848.599609375 914.400390625 803.599609375 972 c 132,-1,48
 758.599609375 1029.59960938 758.599609375 1029.59960938 672.200195312 1029.59960938 c 4,49,50
 539 1029.59960938 539 1029.59960938 446.599609375 877.200195312 c 4,51,52
 390.200195312 778.799804688 390.200195312 778.799804688 332 558 c 132,-1,53
 273.799804688 337.200195312 273.799804688 337.200195312 273.799804688 238.799804688 c 4,37,38
EndSplineSet
Validated: 513
Substitution2: "Single Substitution lookup 63 subtable" ordfeminine
Substitution2: "'ss06' Style Set 6 lookup 46 subtable" a.alternate
Substitution2: "'fwid' Full Widths lookup 32 subtable" uniFF41
Substitution2: "'smcp' Lowercase to Small Capitals lookup 27 subtable" a.sc
Substitution2: "'sinf' Scientific Inferiors lookup 14 subtable" uni2090
Substitution2: "'subs' Subscript lookup 13 subtable" uni2090
AlternateSubs2: "'aalt' Access All Alternates lookup 1 subtable" uni2090 ordfeminine a.sc uniFF41 a.alternate
EndChar

StartChar: b
Encoding: 98 98 27
Width: 1200
VWidth: 2048
GlyphClass: 2
InSpiro: 1
Flags: W
LayerCount: 2
Fore
SplineSet
143.700195312 331.099609375 m 4,0,1
 143.700195312 430.099609375 143.700195312 430.099609375 177.799804688 556.599609375 c 6,2,-1
 332.900390625 1171.5 l 6,3,4
 382.400390625 1367.29980469 382.400390625 1367.29980469 398.900390625 1433.29980469 c 5,5,6
 379.099609375 1435.5 379.099609375 1435.5 350.5 1435.5 c 132,-1,7
 321.900390625 1435.5 321.900390625 1435.5 305.950195312 1436.59960938 c 132,-1,8
 290 1437.70019531 290 1437.70019531 273.5 1442.09960938 c 132,-1,9
 257 1446.5 257 1446.5 249.849609375 1456.40039062 c 132,-1,10
 242.700195312 1466.29980469 242.700195312 1466.29980469 242.700195312 1485 c 4,11,12
 242.700195312 1530.09960938 242.700195312 1530.09960938 280.099609375 1540 c 132,-1,13
 317.5 1549.90039062 317.5 1549.90039062 459.400390625 1556.5 c 4,14,15
 538.599609375 1560.90039062 538.599609375 1560.90039062 588.099609375 1563.09960938 c 6,16,-1
 605.700195312 1563.09960938 l 6,17,18
 657.400390625 1563.09960938 657.400390625 1563.09960938 657.400390625 1520.20019531 c 4,19,20
 657.400390625 1498.20019531 657.400390625 1498.20019531 650.799804688 1477.29980469 c 6,21,-1
 522.099609375 961.400390625 l 5,22,23
 638.700195312 1026.29980469 638.700195312 1026.29980469 745.400390625 1027.40039062 c 4,24,25
 792.700195312 1027.40039062 792.700195312 1027.40039062 837.799804688 1018.59960938 c 132,-1,26
 882.900390625 1009.79980469 882.900390625 1009.79980469 932.400390625 983.400390625 c 132,-1,27
 981.900390625 957 981.900390625 957 1020.40039062 917.950195312 c 132,-1,28
 1058.90039062 878.900390625 1058.90039062 878.900390625 1082.54980469 813.450195312 c 132,-1,29
 1106.20019531 748 1106.20019531 748 1106.20019531 664.400390625 c 4,30,31
 1106.20019531 507.099609375 1106.20019531 507.099609375 1036.34960938 352.549804688 c 132,-1,32
 966.5 198 966.5 198 821.299804688 86.349609375 c 132,-1,33
 676.099609375 -25.2998046875 676.099609375 -25.2998046875 493.5 -25.2998046875 c 4,34,35
 336.200195312 -25.2998046875 336.200195312 -25.2998046875 239.950195312 67.099609375 c 132,-1,36
 143.700195312 159.5 143.700195312 159.5 143.700195312 331.099609375 c 4,0,1
  Spiro
    143.7 331.1 o
    152.225 436.975 o
    177.8 556.6 [
    332.9 1171.5 ]
    374.15 1334.85 o
    398.9 1433.3 v
    376.9 1434.95 o
    350.5 1435.5 o
    325.063 1435.78 o
    305.95 1436.6 o
    289.863 1438.53 o
    273.5 1442.1 o
    259.338 1447.88 o
    249.85 1456.4 o
    244.488 1468.5 o
    242.7 1485 o
    252.05 1521.3 o
    280.1 1540 o
    343.625 1549.08 o
    459.4 1556.5 o
    531.175 1560.35 o
    588.1 1563.1 [
    605.7 1563.1 ]
    644.475 1552.38 o
    657.4 1520.2 o
    655.75 1498.48 o
    650.8 1477.3 [
    522.1 961.4 v
    636.225 1010.35 o
    745.4 1027.4 o
    792.15 1025.2 o
    837.8 1018.6 o
    884 1005.4 o
    932.4 983.4 o
    979.15 953.838 o
    1020.4 917.95 o
    1055.19 872.3 o
    1082.55 813.45 o
    1100.29 743.463 o
    1106.2 664.4 o
    1088.74 507.788 o
    1036.35 352.55 o
    947.663 208.725 o
    821.3 86.35 o
    666.75 2.6125 o
    493.5 -25.3 o
    351.463 -2.2 o
    239.95 67.1 o
    167.763 179.3 o
    0 0 z
  EndSpiro
360.400390625 232.099609375 m 4,37,38
 360.400390625 137.5 360.400390625 137.5 402.200195312 97.900390625 c 132,-1,39
 444 58.2998046875 444 58.2998046875 497.900390625 58.2998046875 c 4,40,41
 558.400390625 58.2998046875 558.400390625 58.2998046875 615.049804688 100.099609375 c 132,-1,42
 671.700195312 141.900390625 671.700195312 141.900390625 702.5 193.599609375 c 4,43,44
 758.599609375 283.799804688 758.599609375 283.799804688 810.849609375 490.049804688 c 132,-1,45
 863.099609375 696.299804688 863.099609375 696.299804688 863.099609375 784.299804688 c 4,46,47
 863.099609375 870.099609375 863.099609375 870.099609375 823.5 906.950195312 c 132,-1,48
 783.900390625 943.799804688 783.900390625 943.799804688 734.400390625 943.799804688 c 4,49,50
 650.799804688 943.799804688 650.799804688 943.799804688 576.549804688 886.599609375 c 132,-1,51
 502.299804688 829.400390625 502.299804688 829.400390625 479.200195312 784.299804688 c 4,52,53
 472.599609375 766.700195312 472.599609375 766.700195312 446.75 668.25 c 132,-1,54
 420.900390625 569.799804688 420.900390625 569.799804688 390.650390625 430.099609375 c 132,-1,55
 360.400390625 290.400390625 360.400390625 290.400390625 360.400390625 232.099609375 c 4,37,38
  Spiro
    360.4 232.1 o
    370.85 151.25 o
    402.2 97.9 o
    447.025 68.2 o
    497.9 58.3 o
    557.438 68.75 o
    615.05 100.1 o
    665.238 144.375 o
    702.5 193.6 o
    757.638 312.812 o
    810.85 490.05 o
    850.038 666.738 o
    863.1 784.3 o
    853.2 857.863 o
    823.5 906.95 o
    781.425 934.588 o
    734.4 943.8 o
    653.138 929.5 o
    576.55 886.6 o
    515.088 832.425 o
    479.2 784.3 o
    467.788 746.488 o
    446.75 668.25 o
    419.8 559.488 o
    390.65 430.1 o
    367.963 310.75 o
    0 0 z
  EndSpiro
EndSplineSet
Validated: 513
Substitution2: "'fwid' Full Widths lookup 32 subtable" uniFF42
Substitution2: "'smcp' Lowercase to Small Capitals lookup 27 subtable" b.sc
AlternateSubs2: "'aalt' Access All Alternates lookup 1 subtable" b.sc uniFF42
EndChar

StartChar: c
Encoding: 99 99 28
Width: 1200
VWidth: 2048
GlyphClass: 2
InSpiro: 1
Flags: W
LayerCount: 2
Fore
SplineSet
82.400390625 391.200195312 m 4,0,1
 82.400390625 668.400390625 82.400390625 668.400390625 287.599609375 894.599609375 c 132,-1,2
 492.799804688 1120.79980469 492.799804688 1120.79980469 812 1120.79980469 c 4,3,4
 950 1120.79980469 950 1120.79980469 1037 1055.40039062 c 132,-1,5
 1124 990 1124 990 1124 884.400390625 c 4,6,7
 1124 802.799804688 1124 802.799804688 1072.40039062 748.200195312 c 132,-1,8
 1020.79980469 693.599609375 1020.79980469 693.599609375 947.599609375 693.599609375 c 4,9,10
 896 693.599609375 896 693.599609375 861.799804688 724.200195312 c 132,-1,11
 827.599609375 754.799804688 827.599609375 754.799804688 827.599609375 806.400390625 c 4,12,13
 827.599609375 853.200195312 827.599609375 853.200195312 858.200195312 903.599609375 c 132,-1,14
 888.799804688 954 888.799804688 954 954.799804688 973.200195312 c 5,15,16
 898.400390625 1029.59960938 898.400390625 1029.59960938 812 1029.59960938 c 4,17,18
 676.400390625 1029.59960938 676.400390625 1029.59960938 569.599609375 921.599609375 c 4,19,20
 494 846 494 846 439.400390625 685.799804688 c 132,-1,21
 384.799804688 525.599609375 384.799804688 525.599609375 368.599609375 420 c 132,-1,22
 352.400390625 314.400390625 352.400390625 314.400390625 352.400390625 277.200195312 c 4,23,24
 352.400390625 171.599609375 352.400390625 171.599609375 408.200195312 116.400390625 c 132,-1,25
 464 61.2001953125 464 61.2001953125 563.599609375 61.2001953125 c 4,26,27
 819.200195312 61.2001953125 819.200195312 61.2001953125 996.799804688 236.400390625 c 4,28,29
 1046 285.599609375 1046 285.599609375 1062.79980469 285.599609375 c 4,30,31
 1084.40039062 285.599609375 1084.40039062 285.599609375 1109.59960938 258.599609375 c 132,-1,32
 1134.79980469 231.599609375 1134.79980469 231.599609375 1134.79980469 211.200195312 c 4,33,34
 1134.79980469 196.799804688 1134.79980469 196.799804688 1113.79980469 169.799804688 c 132,-1,35
 1092.79980469 142.799804688 1092.79980469 142.799804688 1046 108 c 132,-1,36
 999.200195312 73.2001953125 999.200195312 73.2001953125 935 43.7998046875 c 132,-1,37
 870.799804688 14.400390625 870.799804688 14.400390625 771.799804688 -6.599609375 c 132,-1,38
 672.799804688 -27.599609375 672.799804688 -27.599609375 556.400390625 -27.599609375 c 4,39,40
 335.599609375 -27.599609375 335.599609375 -27.599609375 209 82.2001953125 c 132,-1,41
 82.400390625 192 82.400390625 192 82.400390625 391.200195312 c 4,0,1
  Spiro
    82.4 391.2 o
    133.7 655.65 o
    287.6 894.6 o
    521.3 1064.25 o
    812 1120.8 o
    937.25 1104.45 o
    1037 1055.4 o
    1102.25 979.95 o
    1124 884.4 o
    1111.1 809.55 o
    1072.4 748.2 o
    1015.4 707.25 o
    947.6 693.6 o
    900.35 701.25 o
    861.8 724.2 o
    836.15 760.05 o
    827.6 806.4 o
    835.25 854.1 o
    858.2 903.6 o
    897.65 946.2 o
    954.8 973.2 v
    890.9 1015.5 o
    812 1029.6 o
    683.6 1002.6 o
    569.6 921.6 o
    499.25 824.85 o
    439.4 685.8 o
    394.4 539.25 o
    368.6 420 o
    356.45 331.5 o
    352.4 277.2 o
    366.35 184.2 o
    408.2 116.4 o
    474.95 75 o
    563.6 61.2 o
    799.7 105 o
    996.8 236.4 o
    1037.9 273.3 o
    1062.8 285.6 o
    1085.3 278.85 o
    1109.6 258.6 o
    1128.5 233.25 o
    1134.8 211.2 o
    1129.55 193.65 o
    1113.8 169.8 o
    1086.35 140.85 o
    1046 108 o
    994.85 74.55 o
    935 43.8 o
    862.1 16.5 o
    771.8 -6.6 o
    668.45 -22.35 o
    556.4 -27.6 o
    359.15 -0.15 o
    209 82.2 o
    114.05 214.35 o
    0 0 z
  EndSpiro
EndSplineSet
Validated: 513
Substitution2: "'fwid' Full Widths lookup 32 subtable" uniFF43
Substitution2: "'smcp' Lowercase to Small Capitals lookup 27 subtable" c.sc
AlternateSubs2: "'aalt' Access All Alternates lookup 1 subtable" c.sc uniFF43
EndChar

StartChar: d
Encoding: 100 100 29
Width: 1200
VWidth: 2048
GlyphClass: 2
Flags: W
LayerCount: 2
Fore
SplineSet
3.099609375 337.700195312 m 4,0,1
 3.099609375 502.700195312 3.099609375 502.700195312 77.349609375 658.900390625 c 132,-1,2
 151.599609375 815.099609375 151.599609375 815.099609375 294.599609375 921.25 c 132,-1,3
 437.599609375 1027.40039062 437.599609375 1027.40039062 611.400390625 1027.40039062 c 4,4,5
 719.200195312 1027.40039062 719.200195312 1027.40039062 813.799804688 952.599609375 c 5,6,-1
 933.700195312 1433.29980469 l 5,7,8
 913.900390625 1435.5 913.900390625 1435.5 885.299804688 1435.5 c 132,-1,9
 856.700195312 1435.5 856.700195312 1435.5 842.400390625 1436.59960938 c 132,-1,10
 828.099609375 1437.70019531 828.099609375 1437.70019531 812.150390625 1442.09960938 c 132,-1,11
 796.200195312 1446.5 796.200195312 1446.5 789.599609375 1456.40039062 c 132,-1,12
 783 1466.29980469 783 1466.29980469 783 1485 c 4,13,14
 783 1530.09960938 783 1530.09960938 816.549804688 1540 c 132,-1,15
 850.099609375 1549.90039062 850.099609375 1549.90039062 972.200195312 1554.29980469 c 4,16,17
 1058 1558.70019531 1058 1558.70019531 1111.90039062 1560.90039062 c 4,18,19
 1116.29980469 1560.90039062 1116.29980469 1560.90039062 1126.20019531 1562 c 132,-1,20
 1136.09960938 1563.09960938 1136.09960938 1563.09960938 1140.5 1563.09960938 c 4,21,22
 1194.40039062 1563.09960938 1194.40039062 1563.09960938 1194.40039062 1518 c 4,23,24
 1194.40039062 1504.79980469 1194.40039062 1504.79980469 1190 1487.20019531 c 6,25,-1
 888.599609375 277.200195312 l 6,26,27
 861.099609375 178.200195312 861.099609375 178.200195312 861.099609375 124.299804688 c 4,28,29
 861.099609375 59.400390625 861.099609375 59.400390625 904 58.2998046875 c 4,30,31
 973.299804688 58.2998046875 973.299804688 58.2998046875 1041.5 311.299804688 c 4,32,33
 1048.09960938 347.599609375 1048.09960938 347.599609375 1061.84960938 356.400390625 c 132,-1,34
 1075.59960938 365.200195312 1075.59960938 365.200195312 1099.79980469 365.200195312 c 6,35,-1
 1114.09960938 365.200195312 l 6,36,37
 1172.40039062 365.200195312 1172.40039062 365.200195312 1172.40039062 331.099609375 c 4,38,39
 1172.40039062 324.5 1172.40039062 324.5 1164.70019531 290.400390625 c 132,-1,40
 1157 256.299804688 1157 256.299804688 1136.65039062 201.299804688 c 132,-1,41
 1116.29980469 146.299804688 1116.29980469 146.299804688 1086.59960938 96.7998046875 c 132,-1,42
 1056.90039062 47.2998046875 1056.90039062 47.2998046875 1005.20019531 11 c 132,-1,43
 953.5 -25.2998046875 953.5 -25.2998046875 893 -25.2998046875 c 4,44,45
 740.099609375 -25.2998046875 740.099609375 -25.2998046875 660.900390625 92.400390625 c 5,46,47
 516.799804688 -24.2001953125 516.799804688 -24.2001953125 363.900390625 -25.2998046875 c 4,48,49
 305.599609375 -25.2998046875 305.599609375 -25.2998046875 247.849609375 -8.25 c 132,-1,50
 190.099609375 8.7998046875 190.099609375 8.7998046875 132.900390625 46.2001953125 c 132,-1,51
 75.7001953125 83.599609375 75.7001953125 83.599609375 39.400390625 158.950195312 c 132,-1,52
 3.099609375 234.299804688 3.099609375 234.299804688 3.099609375 337.700195312 c 4,0,1
246.200195312 218.900390625 m 4,53,54
 246.200195312 133.099609375 246.200195312 133.099609375 285.799804688 95.7001953125 c 132,-1,55
 325.400390625 58.2998046875 325.400390625 58.2998046875 374.900390625 58.2998046875 c 4,56,57
 458.5 58.2998046875 458.5 58.2998046875 532.75 116.049804688 c 132,-1,58
 607 173.799804688 607 173.799804688 629 218.900390625 c 4,59,60
 633.400390625 229.900390625 633.400390625 229.900390625 703.25 507.099609375 c 132,-1,61
 773.099609375 784.299804688 773.099609375 784.299804688 773.099609375 797.5 c 4,62,63
 773.099609375 842.599609375 773.099609375 842.599609375 728 893.200195312 c 132,-1,64
 682.900390625 943.799804688 682.900390625 943.799804688 611.400390625 943.799804688 c 4,65,66
 489.299804688 943.799804688 489.299804688 943.799804688 404.599609375 804.099609375 c 4,67,68
 352.900390625 713.900390625 352.900390625 713.900390625 299.549804688 511.5 c 132,-1,69
 246.200195312 309.099609375 246.200195312 309.099609375 246.200195312 218.900390625 c 4,53,54
EndSplineSet
Validated: 513
Substitution2: "'fwid' Full Widths lookup 32 subtable" uniFF44
Substitution2: "'smcp' Lowercase to Small Capitals lookup 27 subtable" d.sc
AlternateSubs2: "'aalt' Access All Alternates lookup 1 subtable" d.sc uniFF44
EndChar

StartChar: e
Encoding: 101 101 30
Width: 1200
VWidth: 2048
GlyphClass: 2
Flags: W
LayerCount: 2
Fore
SplineSet
73.7998046875 403.200195312 m 4,0,1
 73.7998046875 696 73.7998046875 696 277.799804688 908.400390625 c 132,-1,2
 481.799804688 1120.79980469 481.799804688 1120.79980469 796.200195312 1120.79980469 c 4,3,4
 939 1120.79980469 939 1120.79980469 1027.79980469 1054.20019531 c 132,-1,5
 1116.59960938 987.599609375 1116.59960938 987.599609375 1116.59960938 879.599609375 c 4,6,7
 1116.59960938 739.200195312 1116.59960938 739.200195312 990.599609375 646.799804688 c 4,8,9
 840.599609375 536.400390625 840.599609375 536.400390625 435 535.200195312 c 6,10,-1
 381 535.200195312 l 5,11,12
 341.400390625 363.599609375 341.400390625 363.599609375 341.400390625 288 c 4,13,14
 341.400390625 177.599609375 341.400390625 177.599609375 397.200195312 119.400390625 c 132,-1,15
 453 61.2001953125 453 61.2001953125 550.200195312 61.2001953125 c 4,16,17
 793.799804688 61.2001953125 793.799804688 61.2001953125 973.799804688 228 c 4,18,19
 983.400390625 237.599609375 983.400390625 237.599609375 994.200195312 249 c 132,-1,20
 1005 260.400390625 1005 260.400390625 1011.59960938 265.200195312 c 132,-1,21
 1018.20019531 270 1018.20019531 270 1024.20019531 276.599609375 c 132,-1,22
 1030.20019531 283.200195312 1030.20019531 283.200195312 1035 284.400390625 c 132,-1,23
 1039.79980469 285.599609375 1039.79980469 285.599609375 1047 285.599609375 c 4,24,25
 1068.59960938 285.599609375 1068.59960938 285.599609375 1095 258.599609375 c 132,-1,26
 1121.40039062 231.599609375 1121.40039062 231.599609375 1121.40039062 211.200195312 c 4,27,28
 1121.40039062 196.799804688 1121.40039062 196.799804688 1101.59960938 169.799804688 c 132,-1,29
 1081.79980469 142.799804688 1081.79980469 142.799804688 1035 108 c 132,-1,30
 988.200195312 73.2001953125 988.200195312 73.2001953125 924.599609375 43.7998046875 c 132,-1,31
 861 14.400390625 861 14.400390625 760.200195312 -6.599609375 c 132,-1,32
 659.400390625 -27.599609375 659.400390625 -27.599609375 543 -27.599609375 c 4,33,34
 324.599609375 -27.599609375 324.599609375 -27.599609375 199.200195312 85.7998046875 c 132,-1,35
 73.7998046875 199.200195312 73.7998046875 199.200195312 73.7998046875 403.200195312 c 4,0,1
406.200195312 624 m 5,36,37
 953.400390625 624 953.400390625 624 953.400390625 880.799804688 c 4,38,39
 953.400390625 948 953.400390625 948 909.599609375 988.799804688 c 132,-1,40
 865.799804688 1029.59960938 865.799804688 1029.59960938 796.200195312 1029.59960938 c 4,41,42
 766.200195312 1029.59960938 766.200195312 1029.59960938 733.200195312 1023.59960938 c 132,-1,43
 700.200195312 1017.59960938 700.200195312 1017.59960938 649.799804688 993 c 132,-1,44
 599.400390625 968.400390625 599.400390625 968.400390625 556.799804688 927.599609375 c 132,-1,45
 514.200195312 886.799804688 514.200195312 886.799804688 472.200195312 808.200195312 c 132,-1,46
 430.200195312 729.599609375 430.200195312 729.599609375 406.200195312 624 c 5,36,37
EndSplineSet
Validated: 513
Substitution2: "'fwid' Full Widths lookup 32 subtable" uniFF45
Substitution2: "'smcp' Lowercase to Small Capitals lookup 27 subtable" e.sc
Substitution2: "'sinf' Scientific Inferiors lookup 14 subtable" uni2091
Substitution2: "'subs' Subscript lookup 13 subtable" uni2091
AlternateSubs2: "'aalt' Access All Alternates lookup 1 subtable" uni2091 e.sc uniFF45
EndChar

StartChar: f
Encoding: 102 102 31
Width: 1200
VWidth: 2048
GlyphClass: 2
Flags: W
LayerCount: 2
Fore
SplineSet
-35.900390625 -277.200195312 m 4,0,1
 -35.900390625 -207.900390625 -35.900390625 -207.900390625 12.5 -158.950195312 c 132,-1,2
 60.900390625 -110 60.900390625 -110 126.900390625 -110 c 4,3,4
 174.200195312 -110 174.200195312 -110 205.549804688 -138.599609375 c 132,-1,5
 236.900390625 -167.200195312 236.900390625 -167.200195312 236.900390625 -214.5 c 4,6,7
 236.900390625 -315.700195312 236.900390625 -315.700195312 137.900390625 -360.799804688 c 5,8,9
 187.400390625 -380.599609375 187.400390625 -380.599609375 207.200195312 -380.599609375 c 4,10,11
 276.5 -380.599609375 276.5 -380.599609375 312.799804688 -260.150390625 c 132,-1,12
 349.099609375 -139.700195312 349.099609375 -139.700195312 430.5 306.900390625 c 6,13,-1
 538.299804688 894.299804688 l 5,14,-1
 346.900390625 894.299804688 l 5,15,-1
 344.700195312 892.099609375 l 6,16,17
 340.299804688 892.099609375 340.299804688 892.099609375 338.099609375 892.099609375 c 4,18,19
 275.400390625 892.099609375 275.400390625 892.099609375 275.400390625 939.400390625 c 4,20,21
 275.400390625 999.900390625 275.400390625 999.900390625 342.5 999.900390625 c 6,22,-1
 557 999.900390625 l 5,23,-1
 559.200195312 1002.09960938 l 5,24,25
 610.900390625 1346.40039062 610.900390625 1346.40039062 686.799804688 1453.09960938 c 4,26,27
 734.099609375 1518 734.099609375 1518 810 1554.29980469 c 132,-1,28
 885.900390625 1590.59960938 885.900390625 1590.59960938 964 1590.59960938 c 4,29,30
 1071.79980469 1590.59960938 1071.79980469 1590.59960938 1144.40039062 1537.79980469 c 132,-1,31
 1217 1485 1217 1485 1217 1403.59960938 c 4,32,33
 1217 1326.59960938 1217 1326.59960938 1167.5 1281.5 c 132,-1,34
 1118 1236.40039062 1118 1236.40039062 1056.40039062 1236.40039062 c 4,35,36
 1009.09960938 1236.40039062 1009.09960938 1236.40039062 977.75 1265 c 132,-1,37
 946.400390625 1293.59960938 946.400390625 1293.59960938 946.400390625 1340.90039062 c 4,38,39
 946.400390625 1437.70019531 946.400390625 1437.70019531 1043.20019531 1485 c 5,40,41
 1002.5 1504.79980469 1002.5 1504.79980469 973.900390625 1504.79980469 c 4,42,43
 917.799804688 1504.79980469 917.799804688 1504.79980469 888.099609375 1446.5 c 4,44,45
 879.299804688 1428.90039062 879.299804688 1428.90039062 856.75 1318.34960938 c 132,-1,46
 834.200195312 1207.79980469 834.200195312 1207.79980469 816.049804688 1106.04980469 c 132,-1,47
 797.900390625 1004.29980469 797.900390625 1004.29980469 797.900390625 999.900390625 c 5,48,-1
 1041 999.900390625 l 6,49,50
 1103.70019531 999.900390625 1103.70019531 999.900390625 1103.70019531 954.799804688 c 4,51,52
 1103.70019531 892.099609375 1103.70019531 892.099609375 1036.59960938 892.099609375 c 4,53,54
 1034.40039062 892.099609375 1034.40039062 892.099609375 1034.40039062 893.200195312 c 132,-1,55
 1034.40039062 894.299804688 1034.40039062 894.299804688 1032.20019531 894.299804688 c 6,56,-1
 777 894.299804688 l 5,57,58
 654.900390625 189.200195312 654.900390625 189.200195312 604.299804688 -6.599609375 c 4,59,60
 568 -139.700195312 568 -139.700195312 522.900390625 -231 c 132,-1,61
 477.799804688 -322.299804688 477.799804688 -322.299804688 392 -391.599609375 c 4,62,63
 301.799804688 -464.200195312 301.799804688 -464.200195312 207.200195312 -464.200195312 c 4,64,65
 114.799804688 -464.200195312 114.799804688 -464.200195312 39.4501953125 -415.799804688 c 132,-1,66
 -35.900390625 -367.400390625 -35.900390625 -367.400390625 -35.900390625 -277.200195312 c 4,0,1
EndSplineSet
Validated: 513
Substitution2: "Single Substitution lookup 73 subtable" f.alternate
Substitution2: "'fwid' Full Widths lookup 32 subtable" uniFF46
Substitution2: "'smcp' Lowercase to Small Capitals lookup 27 subtable" f.sc
AlternateSubs2: "'aalt' Access All Alternates lookup 1 subtable" f.sc uniFF46 f.alternate
EndChar

StartChar: g
Encoding: 103 103 32
Width: 1200
VWidth: 2048
GlyphClass: 2
Flags: W
LayerCount: 2
Fore
SplineSet
-15.7998046875 -321.599609375 m 4,0,1
 -15.7998046875 -248.400390625 -15.7998046875 -248.400390625 37 -195.599609375 c 132,-1,2
 89.7998046875 -142.799804688 89.7998046875 -142.799804688 160.599609375 -142.799804688 c 4,3,4
 214.599609375 -142.799804688 214.599609375 -142.799804688 247 -174.599609375 c 132,-1,5
 279.400390625 -206.400390625 279.400390625 -206.400390625 279.400390625 -255.599609375 c 4,6,7
 279.400390625 -334.799804688 279.400390625 -334.799804688 207.400390625 -398.400390625 c 5,8,9
 298.599609375 -415.200195312 298.599609375 -415.200195312 362.200195312 -415.200195312 c 4,10,11
 482.200195312 -415.200195312 482.200195312 -415.200195312 560.200195312 -345 c 132,-1,12
 638.200195312 -274.799804688 638.200195312 -274.799804688 669.400390625 -199.200195312 c 4,13,14
 679 -175.200195312 679 -175.200195312 741.400390625 68.400390625 c 5,15,16
 621.400390625 0 621.400390625 0 502.599609375 0 c 4,17,18
 322.599609375 0 322.599609375 0 212.200195312 102 c 132,-1,19
 101.799804688 204 101.799804688 204 101.799804688 391.200195312 c 4,20,21
 101.799804688 666 101.799804688 666 289.599609375 893.400390625 c 132,-1,22
 477.400390625 1120.79980469 477.400390625 1120.79980469 758.200195312 1120.79980469 c 4,23,24
 905.799804688 1120.79980469 905.799804688 1120.79980469 1001.79980469 1024.79980469 c 5,25,26
 1055.79980469 1069.20019531 1055.79980469 1069.20019531 1112.20019531 1069.20019531 c 4,27,28
 1159 1069.20019531 1159 1069.20019531 1190.79980469 1039.79980469 c 132,-1,29
 1222.59960938 1010.40039062 1222.59960938 1010.40039062 1222.59960938 966 c 4,30,31
 1222.59960938 944.400390625 1222.59960938 944.400390625 1213 904.799804688 c 6,32,-1
 957.400390625 -112.799804688 l 6,33,34
 947.799804688 -157.200195312 947.799804688 -157.200195312 943.599609375 -171 c 132,-1,35
 939.400390625 -184.799804688 939.400390625 -184.799804688 919 -232.200195312 c 132,-1,36
 898.599609375 -279.599609375 898.599609375 -279.599609375 875.200195312 -307.200195312 c 132,-1,37
 851.799804688 -334.799804688 851.799804688 -334.799804688 803.799804688 -372.599609375 c 132,-1,38
 755.799804688 -410.400390625 755.799804688 -410.400390625 692.200195312 -440.400390625 c 4,39,40
 539.799804688 -506.400390625 539.799804688 -506.400390625 364.599609375 -506.400390625 c 4,41,42
 -15.7998046875 -506.400390625 -15.7998046875 -506.400390625 -15.7998046875 -321.599609375 c 4,0,1
367 262.799804688 m 4,43,44
 367 169.200195312 367 169.200195312 411.400390625 130.200195312 c 132,-1,45
 455.799804688 91.2001953125 455.799804688 91.2001953125 509.799804688 91.2001953125 c 4,46,47
 593.799804688 91.2001953125 593.799804688 91.2001953125 676 148.799804688 c 132,-1,48
 758.200195312 206.400390625 758.200195312 206.400390625 784.599609375 258 c 4,49,50
 796.599609375 279.599609375 796.599609375 279.599609375 868 573.599609375 c 132,-1,51
 939.400390625 867.599609375 939.400390625 867.599609375 939.400390625 877.200195312 c 4,52,53
 939.400390625 924 939.400390625 924 890.799804688 976.799804688 c 132,-1,54
 842.200195312 1029.59960938 842.200195312 1029.59960938 760.599609375 1029.59960938 c 4,55,56
 627.400390625 1029.59960938 627.400390625 1029.59960938 535 879.599609375 c 4,57,58
 478.599609375 788.400390625 478.599609375 788.400390625 422.799804688 573.599609375 c 132,-1,59
 367 358.799804688 367 358.799804688 367 262.799804688 c 4,43,44
EndSplineSet
Validated: 513
Substitution2: "'ss01' Style Set 1 lookup 41 subtable" g.alt
Substitution2: "'fwid' Full Widths lookup 32 subtable" uniFF47
Substitution2: "'smcp' Lowercase to Small Capitals lookup 27 subtable" g.sc
AlternateSubs2: "'aalt' Access All Alternates lookup 1 subtable" g.sc uniFF47 g.alt
EndChar

StartChar: h
Encoding: 104 104 33
Width: 1200
VWidth: 2048
GlyphClass: 2
Flags: W
LayerCount: 2
Fore
SplineSet
-11 72.599609375 m 4,0,1
 -11 92.400390625 -11 92.400390625 4.400390625 150.700195312 c 6,2,-1
 288.200195312 1285.90039062 l 6,3,4
 294.799804688 1311.20019531 294.799804688 1311.20019531 306.349609375 1359.59960938 c 132,-1,5
 317.900390625 1408 317.900390625 1408 324.5 1433.29980469 c 5,6,7
 304.700195312 1435.5 304.700195312 1435.5 276.099609375 1436.59960938 c 132,-1,8
 247.5 1437.70019531 247.5 1437.70019531 231.549804688 1438.79980469 c 132,-1,9
 215.599609375 1439.90039062 215.599609375 1439.90039062 200.200195312 1443.20019531 c 132,-1,10
 184.799804688 1446.5 184.799804688 1446.5 177.650390625 1456.40039062 c 132,-1,11
 170.5 1466.29980469 170.5 1466.29980469 170.5 1485 c 4,12,13
 170.5 1527.90039062 170.5 1527.90039062 205.700195312 1538.90039062 c 132,-1,14
 240.900390625 1549.90039062 240.900390625 1549.90039062 367.400390625 1554.29980469 c 4,15,16
 446.599609375 1558.70019531 446.599609375 1558.70019531 497.200195312 1560.90039062 c 4,17,18
 501.599609375 1560.90039062 501.599609375 1560.90039062 513.150390625 1562 c 132,-1,19
 524.700195312 1563.09960938 524.700195312 1563.09960938 531.299804688 1563.09960938 c 4,20,21
 585.200195312 1563.09960938 585.200195312 1563.09960938 585.200195312 1518 c 4,22,23
 585.200195312 1509.20019531 585.200195312 1509.20019531 580.799804688 1491.04980469 c 132,-1,24
 576.400390625 1472.90039062 576.400390625 1472.90039062 576.400390625 1470.70019531 c 6,25,-1
 436.700195312 909.700195312 l 5,26,27
 574.200195312 1026.29980469 574.200195312 1026.29980469 741.400390625 1027.40039062 c 4,28,29
 870.099609375 1027.40039062 870.099609375 1027.40039062 958.650390625 968.549804688 c 132,-1,30
 1047.20019531 909.700195312 1047.20019531 909.700195312 1047.20019531 770 c 4,31,32
 1047.20019531 653.400390625 1047.20019531 653.400390625 954.799804688 397.650390625 c 132,-1,33
 862.400390625 141.900390625 862.400390625 141.900390625 862.400390625 101.200195312 c 4,34,35
 862.400390625 58.2998046875 862.400390625 58.2998046875 896.5 58.2998046875 c 4,36,37
 924 58.2998046875 924 58.2998046875 952.049804688 74.25 c 132,-1,38
 980.099609375 90.2001953125 980.099609375 90.2001953125 1022.45019531 152.349609375 c 132,-1,39
 1064.79980469 214.5 1064.79980469 214.5 1094.5 315.700195312 c 4,40,41
 1101.09960938 341 1101.09960938 341 1112.65039062 350.900390625 c 132,-1,42
 1124.20019531 360.799804688 1124.20019531 360.799804688 1134.09960938 363 c 132,-1,43
 1144 365.200195312 1144 365.200195312 1169.29980469 365.200195312 c 4,44,45
 1223.20019531 365.200195312 1223.20019531 365.200195312 1223.20019531 328.900390625 c 132,-1,46
 1223.20019531 292.599609375 1223.20019531 292.599609375 1188 213.950195312 c 132,-1,47
 1152.79980469 135.299804688 1152.79980469 135.299804688 1068.65039062 55 c 132,-1,48
 984.5 -25.2998046875 984.5 -25.2998046875 881.099609375 -25.2998046875 c 4,49,50
 782.099609375 -25.2998046875 782.099609375 -25.2998046875 714.450195312 31.349609375 c 132,-1,51
 646.799804688 88 646.799804688 88 646.799804688 178.200195312 c 4,52,53
 646.799804688 216.700195312 646.799804688 216.700195312 733.150390625 456.5 c 132,-1,54
 819.5 696.299804688 819.5 696.299804688 819.5 820.049804688 c 132,-1,55
 819.5 943.799804688 819.5 943.799804688 718.299804688 943.799804688 c 4,56,57
 544.5 943.799804688 544.5 943.799804688 416.900390625 752.400390625 c 4,58,59
 389.400390625 709.5 389.400390625 709.5 374.549804688 657.799804688 c 132,-1,60
 359.700195312 606.099609375 359.700195312 606.099609375 240.900390625 128.700195312 c 4,61,62
 202.400390625 -24.2001953125 202.400390625 -24.2001953125 92.400390625 -25.2998046875 c 4,63,64
 49.5 -25.2998046875 49.5 -25.2998046875 19.25 2.2001953125 c 132,-1,65
 -11 29.7001953125 -11 29.7001953125 -11 72.599609375 c 4,0,1
EndSplineSet
Validated: 513
Substitution2: "'fwid' Full Widths lookup 32 subtable" uniFF48
Substitution2: "'smcp' Lowercase to Small Capitals lookup 27 subtable" h.sc
Substitution2: "'sinf' Scientific Inferiors lookup 14 subtable" uni2095
Substitution2: "'subs' Subscript lookup 13 subtable" uni2095
AlternateSubs2: "'aalt' Access All Alternates lookup 1 subtable" uni2095 h.sc uniFF48
EndChar

StartChar: i
Encoding: 105 105 34
Width: 1200
VWidth: 2048
GlyphClass: 2
Flags: W
LayerCount: 2
Fore
SplineSet
181.799804688 673.200195312 m 4,0,1
 181.799804688 707.299804688 181.799804688 707.299804688 216.450195312 785.950195312 c 132,-1,2
 251.099609375 864.599609375 251.099609375 864.599609375 336.900390625 946 c 132,-1,3
 422.700195312 1027.40039062 422.700195312 1027.40039062 526.099609375 1027.40039062 c 4,4,5
 622.900390625 1027.40039062 622.900390625 1027.40039062 691.650390625 969.650390625 c 132,-1,6
 760.400390625 911.900390625 760.400390625 911.900390625 760.400390625 822.799804688 c 4,7,8
 760.400390625 768.900390625 760.400390625 768.900390625 639.950195312 463.099609375 c 132,-1,9
 519.5 157.299804688 519.5 157.299804688 519.5 101.200195312 c 4,10,11
 519.5 58.2998046875 519.5 58.2998046875 555.799804688 58.2998046875 c 4,12,13
 600.900390625 58.2998046875 600.900390625 58.2998046875 642.150390625 102.299804688 c 132,-1,14
 683.400390625 146.299804688 683.400390625 146.299804688 704.849609375 196.900390625 c 132,-1,15
 726.299804688 247.5 726.299804688 247.5 744.450195312 297 c 132,-1,16
 762.599609375 346.5 762.599609375 346.5 764.799804688 348.700195312 c 4,17,18
 778 364.099609375 778 364.099609375 812.099609375 365.200195312 c 6,19,-1
 825.299804688 365.200195312 l 6,20,21
 879.200195312 365.200195312 879.200195312 365.200195312 881.400390625 328.900390625 c 4,22,23
 881.400390625 313.5 881.400390625 313.5 868.200195312 275 c 132,-1,24
 855 236.5 855 236.5 825.849609375 184.799804688 c 132,-1,25
 796.700195312 133.099609375 796.700195312 133.099609375 758.200195312 86.900390625 c 132,-1,26
 719.700195312 40.7001953125 719.700195312 40.7001953125 661.400390625 7.7001953125 c 132,-1,27
 603.099609375 -25.2998046875 603.099609375 -25.2998046875 537.099609375 -25.2998046875 c 4,28,29
 444.700195312 -25.2998046875 444.700195312 -25.2998046875 373.75 29.150390625 c 132,-1,30
 302.799804688 83.599609375 302.799804688 83.599609375 302.799804688 178.200195312 c 4,31,32
 302.799804688 232.099609375 302.799804688 232.099609375 423.25 537.349609375 c 132,-1,33
 543.700195312 842.599609375 543.700195312 842.599609375 543.700195312 898.700195312 c 4,34,35
 543.700195312 941.599609375 543.700195312 941.599609375 506.299804688 941.599609375 c 4,36,37
 450.200195312 941.599609375 450.200195312 941.599609375 390.799804688 862.400390625 c 4,38,39
 356.700195312 815.099609375 356.700195312 815.099609375 338 767.799804688 c 132,-1,40
 319.299804688 720.5 319.299804688 720.5 314.349609375 694.650390625 c 132,-1,41
 309.400390625 668.799804688 309.400390625 668.799804688 296.200195312 652.299804688 c 132,-1,42
 283 635.799804688 283 635.799804688 251.099609375 635.799804688 c 6,43,-1
 240.099609375 635.799804688 l 6,44,45
 239 635.799804688 239 635.799804688 236.799804688 635.799804688 c 4,46,47
 181.799804688 635.799804688 181.799804688 635.799804688 181.799804688 673.200195312 c 4,0,1
573.400390625 1408 m 4,48,49
 573.400390625 1468.5 573.400390625 1468.5 621.799804688 1514.70019531 c 132,-1,50
 670.200195312 1560.90039062 670.200195312 1560.90039062 730.700195312 1560.90039062 c 4,51,52
 778 1560.90039062 778 1560.90039062 809.900390625 1529.54980469 c 132,-1,53
 841.799804688 1498.20019531 841.799804688 1498.20019531 841.799804688 1453.09960938 c 4,54,55
 841.799804688 1397 841.799804688 1397 794.5 1348.59960938 c 132,-1,56
 747.200195312 1300.20019531 747.200195312 1300.20019531 683.400390625 1300.20019531 c 4,57,58
 636.099609375 1300.20019531 636.099609375 1300.20019531 604.75 1330.45019531 c 132,-1,59
 573.400390625 1360.70019531 573.400390625 1360.70019531 573.400390625 1408 c 4,48,49
EndSplineSet
Validated: 513
Substitution2: "Single Substitution lookup 61 subtable" dotlessi
Substitution2: "'fwid' Full Widths lookup 32 subtable" uniFF49
Substitution2: "'smcp' Lowercase to Small Capitals lookup 27 subtable" i.sc
Substitution2: "'locl' Localized Forms in Latin lookup 7 per glyph data 4" i.loclTRK
Substitution2: "'locl' Localized Forms in Latin lookup 7 per glyph data 3" i.loclTRK
Substitution2: "'locl' Localized Forms in Latin lookup 7 per glyph data 2" i.loclTRK
Substitution2: "'locl' Localized Forms in Latin lookup 7 per glyph data 1" i.loclTRK
Substitution2: "'locl' Localized Forms in Latin lookup 7 per glyph data 0" i.loclTRK
AlternateSubs2: "'aalt' Access All Alternates lookup 1 subtable" i.loclTRK i.sc uniFF49
EndChar

StartChar: j
Encoding: 106 106 35
Width: 1200
VWidth: 2048
GlyphClass: 2
Flags: W
LayerCount: 2
Fore
SplineSet
65.900390625 -297 m 4,0,1
 65.900390625 -229.900390625 65.900390625 -229.900390625 113.200195312 -180.400390625 c 132,-1,2
 160.5 -130.900390625 160.5 -130.900390625 225.400390625 -130.900390625 c 4,3,4
 272.700195312 -130.900390625 272.700195312 -130.900390625 305.150390625 -158.950195312 c 132,-1,5
 337.599609375 -187 337.599609375 -187 337.599609375 -234.299804688 c 4,6,7
 337.599609375 -320.099609375 337.599609375 -320.099609375 247.400390625 -376.200195312 c 5,8,9
 254 -378.400390625 254 -378.400390625 274.900390625 -378.400390625 c 4,10,11
 450.900390625 -378.400390625 450.900390625 -378.400390625 531.200195312 -53.900390625 c 6,12,-1
 725.900390625 722.700195312 l 6,13,14
 753.400390625 830.5 753.400390625 830.5 752.299804688 876.700195312 c 4,15,16
 752.299804688 941.599609375 752.299804688 941.599609375 702.799804688 941.599609375 c 4,17,18
 648.900390625 941.599609375 648.900390625 941.599609375 577.950195312 884.400390625 c 132,-1,19
 507 827.200195312 507 827.200195312 446.5 691.900390625 c 4,20,21
 431.099609375 653.400390625 431.099609375 653.400390625 418.450195312 644.599609375 c 132,-1,22
 405.799804688 635.799804688 405.799804688 635.799804688 376.099609375 635.799804688 c 6,23,-1
 356.299804688 635.799804688 l 6,24,25
 311.200195312 635.799804688 311.200195312 635.799804688 311.200195312 668.799804688 c 4,26,27
 311.200195312 690.799804688 311.200195312 690.799804688 340.349609375 746.349609375 c 132,-1,28
 369.5 801.900390625 369.5 801.900390625 417.900390625 865.150390625 c 132,-1,29
 466.299804688 928.400390625 466.299804688 928.400390625 547.700195312 976.799804688 c 132,-1,30
 629.099609375 1025.20019531 629.099609375 1025.20019531 718.200195312 1025.20019531 c 4,31,32
 828.200195312 1025.20019531 828.200195312 1025.20019531 904.099609375 963.049804688 c 132,-1,33
 980 900.900390625 980 900.900390625 980 801.900390625 c 4,34,35
 980 779.900390625 980 779.900390625 975.599609375 755.150390625 c 132,-1,36
 971.200195312 730.400390625 971.200195312 730.400390625 963.5 704 c 132,-1,37
 955.799804688 677.599609375 955.799804688 677.599609375 952.5 668.799804688 c 6,38,-1
 768.799804688 -77 l 6,39,40
 741.299804688 -178.200195312 741.299804688 -178.200195312 713.799804688 -223.299804688 c 4,41,42
 646.700195312 -335.5 646.700195312 -335.5 522.950195312 -399.849609375 c 132,-1,43
 399.200195312 -464.200195312 399.200195312 -464.200195312 277.099609375 -464.200195312 c 4,44,45
 184.700195312 -464.200195312 184.700195312 -464.200195312 125.299804688 -418 c 132,-1,46
 65.900390625 -371.799804688 65.900390625 -371.799804688 65.900390625 -297 c 4,0,1
793 1408 m 4,47,48
 793 1466.29980469 793 1466.29980469 841.400390625 1513.59960938 c 132,-1,49
 889.799804688 1560.90039062 889.799804688 1560.90039062 950.299804688 1560.90039062 c 4,50,51
 997.599609375 1560.90039062 997.599609375 1560.90039062 1029.5 1530.65039062 c 132,-1,52
 1061.40039062 1500.40039062 1061.40039062 1500.40039062 1061.40039062 1453.09960938 c 4,53,54
 1061.40039062 1394.79980469 1061.40039062 1394.79980469 1013 1347.5 c 132,-1,55
 964.599609375 1300.20019531 964.599609375 1300.20019531 903 1300.20019531 c 4,56,57
 853.5 1300.20019531 853.5 1300.20019531 823.25 1330.45019531 c 132,-1,58
 793 1360.70019531 793 1360.70019531 793 1408 c 4,47,48
EndSplineSet
Validated: 545
Substitution2: "Single Substitution lookup 61 subtable" uni0237
Substitution2: "'ss03' Style Set 3 lookup 43 subtable" j.alt
Substitution2: "'fwid' Full Widths lookup 32 subtable" uniFF4A
Substitution2: "'smcp' Lowercase to Small Capitals lookup 27 subtable" j.sc
AlternateSubs2: "'aalt' Access All Alternates lookup 1 subtable" j.sc uniFF4A j.alt
EndChar

StartChar: k
Encoding: 107 107 36
Width: 1200
VWidth: 2048
GlyphClass: 2
Flags: W
LayerCount: 2
Fore
SplineSet
32.2001953125 72.599609375 m 4,0,1
 32.2001953125 92.400390625 32.2001953125 92.400390625 41 128.700195312 c 6,2,-1
 335.799804688 1306.79980469 l 6,3,4
 361.099609375 1401.40039062 361.099609375 1401.40039062 367.700195312 1433.29980469 c 5,5,6
 318.200195312 1437.70019531 318.200195312 1437.70019531 292.900390625 1437.70019531 c 6,7,-1
 284.099609375 1437.70019531 l 6,8,9
 214.799804688 1437.70019531 214.799804688 1437.70019531 213.700195312 1485 c 4,10,11
 213.700195312 1527.90039062 213.700195312 1527.90039062 250 1538.90039062 c 132,-1,12
 286.299804688 1549.90039062 286.299804688 1549.90039062 410.599609375 1554.29980469 c 4,13,14
 496.400390625 1558.70019531 496.400390625 1558.70019531 552.5 1560.90039062 c 4,15,16
 554.700195312 1560.90039062 554.700195312 1560.90039062 562.400390625 1562 c 132,-1,17
 570.099609375 1563.09960938 570.099609375 1563.09960938 574.5 1563.09960938 c 4,18,19
 628.400390625 1563.09960938 628.400390625 1563.09960938 628.400390625 1518 c 5,20,-1
 621.799804688 1485 l 5,21,-1
 406.200195312 617.099609375 l 5,22,23
 468.900390625 660 468.900390625 660 547.549804688 737.549804688 c 132,-1,24
 626.200195312 815.099609375 626.200195312 815.099609375 681.75 873.950195312 c 132,-1,25
 737.299804688 932.799804688 737.299804688 932.799804688 814.849609375 979 c 132,-1,26
 892.400390625 1025.20019531 892.400390625 1025.20019531 971.599609375 1025.20019531 c 4,27,28
 1057.40039062 1025.20019531 1057.40039062 1025.20019531 1093.15039062 969.650390625 c 132,-1,29
 1128.90039062 914.099609375 1128.90039062 914.099609375 1128.90039062 847 c 4,30,31
 1128.90039062 745.799804688 1128.90039062 745.799804688 1077.20019531 698.5 c 132,-1,32
 1025.5 651.200195312 1025.5 651.200195312 963.900390625 651.200195312 c 4,33,34
 916.599609375 651.200195312 916.599609375 651.200195312 885.25 679.25 c 132,-1,35
 853.900390625 707.299804688 853.900390625 707.299804688 853.900390625 754.599609375 c 4,36,37
 853.900390625 806.299804688 853.900390625 806.299804688 892.400390625 855.799804688 c 132,-1,38
 930.900390625 905.299804688 930.900390625 905.299804688 1004.59960938 914.099609375 c 5,39,40
 987 943.799804688 987 943.799804688 961.700195312 943.799804688 c 4,41,42
 882.5 943.799804688 882.5 943.799804688 799.450195312 878.349609375 c 132,-1,43
 716.400390625 812.900390625 716.400390625 812.900390625 619.599609375 710.599609375 c 132,-1,44
 522.799804688 608.299804688 522.799804688 608.299804688 464.5 565.400390625 c 5,45,-1
 464.5 563.200195312 l 5,46,47
 819.799804688 524.700195312 819.799804688 524.700195312 819.799804688 325.599609375 c 4,48,49
 819.799804688 297 819.799804688 297 806.599609375 235.400390625 c 132,-1,50
 793.400390625 173.799804688 793.400390625 173.799804688 793.400390625 130.900390625 c 4,51,52
 793.400390625 58.2998046875 793.400390625 58.2998046875 842.900390625 58.2998046875 c 4,53,54
 896.799804688 58.2998046875 896.799804688 58.2998046875 935.299804688 123.75 c 132,-1,55
 973.799804688 189.200195312 973.799804688 189.200195312 993.599609375 265.650390625 c 132,-1,56
 1013.40039062 342.099609375 1013.40039062 342.099609375 1021.09960938 348.700195312 c 4,57,58
 1034.29980469 364.099609375 1034.29980469 364.099609375 1083.79980469 365.200195312 c 4,59,60
 1135.5 365.200195312 1135.5 365.200195312 1135.5 328.900390625 c 4,61,62
 1135.5 313.5 1135.5 313.5 1117.34960938 261.25 c 132,-1,63
 1099.20019531 209 1099.20019531 209 1065.65039062 143 c 132,-1,64
 1032.09960938 77 1032.09960938 77 968.849609375 25.849609375 c 132,-1,65
 905.599609375 -25.2998046875 905.599609375 -25.2998046875 829.700195312 -25.2998046875 c 4,66,67
 728.5 -25.2998046875 728.5 -25.2998046875 648.200195312 36.849609375 c 132,-1,68
 567.900390625 99 567.900390625 99 567.900390625 206.799804688 c 4,69,70
 567.900390625 224.400390625 567.900390625 224.400390625 573.400390625 261.799804688 c 132,-1,71
 578.900390625 299.200195312 578.900390625 299.200195312 578.900390625 317.900390625 c 4,72,73
 578.900390625 440 578.900390625 440 372.099609375 481.799804688 c 5,74,75
 279.700195312 78.099609375 279.700195312 78.099609375 247.799804688 34.099609375 c 4,76,77
 200.5 -24.2001953125 200.5 -24.2001953125 135.599609375 -25.2998046875 c 4,78,79
 92.7001953125 -25.2998046875 92.7001953125 -25.2998046875 62.4501953125 2.2001953125 c 132,-1,80
 32.2001953125 29.7001953125 32.2001953125 29.7001953125 32.2001953125 72.599609375 c 4,0,1
EndSplineSet
Validated: 513
Substitution2: "'fwid' Full Widths lookup 32 subtable" uniFF4B
Substitution2: "'smcp' Lowercase to Small Capitals lookup 27 subtable" k.sc
Substitution2: "'sinf' Scientific Inferiors lookup 14 subtable" uni2096
Substitution2: "'subs' Subscript lookup 13 subtable" uni2096
AlternateSubs2: "'aalt' Access All Alternates lookup 1 subtable" uni2096 k.sc uniFF4B
EndChar

StartChar: l
Encoding: 108 108 37
Width: 1200
VWidth: 2048
GlyphClass: 2
Flags: W
LayerCount: 2
Fore
SplineSet
270.400390625 198 m 4,0,1
 270.400390625 238.700195312 270.400390625 238.700195312 289.099609375 299.200195312 c 6,2,-1
 538.799804688 1298 l 6,3,4
 545.400390625 1320 545.400390625 1320 554.75 1365.09960938 c 132,-1,5
 564.099609375 1410.20019531 564.099609375 1410.20019531 570.700195312 1433.29980469 c 5,6,7
 550.900390625 1435.5 550.900390625 1435.5 521.200195312 1435.5 c 132,-1,8
 491.5 1435.5 491.5 1435.5 476.650390625 1436.59960938 c 132,-1,9
 461.799804688 1437.70019531 461.799804688 1437.70019531 447.5 1442.09960938 c 132,-1,10
 433.200195312 1446.5 433.200195312 1446.5 426.049804688 1456.40039062 c 132,-1,11
 418.900390625 1466.29980469 418.900390625 1466.29980469 418.900390625 1485 c 4,12,13
 418.900390625 1523.5 418.900390625 1523.5 444.200195312 1538.90039062 c 4,14,15
 453 1545.5 453 1545.5 536.599609375 1551 c 132,-1,16
 620.200195312 1556.5 620.200195312 1556.5 698.299804688 1558.70019531 c 6,17,-1
 777.5 1563.09960938 l 6,18,19
 831.400390625 1563.09960938 831.400390625 1563.09960938 831.400390625 1518 c 4,20,21
 831.400390625 1507 831.400390625 1507 827 1489.40039062 c 6,22,-1
 525.599609375 277.200195312 l 6,23,24
 498.099609375 169.400390625 498.099609375 169.400390625 498.099609375 126.5 c 4,25,26
 498.099609375 59.400390625 498.099609375 59.400390625 538.799804688 58.2998046875 c 4,27,28
 581.700195312 58.2998046875 581.700195312 58.2998046875 613.049804688 122.650390625 c 132,-1,29
 644.400390625 187 644.400390625 187 664.75 263.450195312 c 132,-1,30
 685.099609375 339.900390625 685.099609375 339.900390625 689.5 346.5 c 4,31,32
 702.700195312 364.099609375 702.700195312 364.099609375 741.200195312 365.200195312 c 4,33,34
 806.099609375 365.200195312 806.099609375 365.200195312 807.200195312 328.900390625 c 4,35,36
 807.200195312 313.5 807.200195312 313.5 792.349609375 264 c 132,-1,37
 777.5 214.5 777.5 214.5 748.349609375 145.75 c 132,-1,38
 719.200195312 77 719.200195312 77 660.349609375 25.849609375 c 132,-1,39
 601.5 -25.2998046875 601.5 -25.2998046875 530 -25.2998046875 c 4,40,41
 428.799804688 -25.2998046875 428.799804688 -25.2998046875 349.599609375 35.75 c 132,-1,42
 270.400390625 96.7998046875 270.400390625 96.7998046875 270.400390625 198 c 4,0,1
EndSplineSet
Validated: 513
Substitution2: "'fwid' Full Widths lookup 32 subtable" uniFF4C
Substitution2: "'smcp' Lowercase to Small Capitals lookup 27 subtable" l.sc
Substitution2: "'sinf' Scientific Inferiors lookup 14 subtable" uni2097
Substitution2: "'subs' Subscript lookup 13 subtable" uni2097
AlternateSubs2: "'aalt' Access All Alternates lookup 1 subtable" uni2097 l.sc uniFF4C
EndChar

StartChar: m
Encoding: 109 109 38
Width: 1200
VWidth: 2048
GlyphClass: 2
Flags: W
LayerCount: 2
Fore
SplineSet
-165.580078125 734.400390625 m 4,0,1
 -165.580078125 741.599609375 -165.580078125 741.599609375 -159.700195312 777.599609375 c 132,-1,2
 -153.8203125 813.599609375 -153.8203125 813.599609375 -138.279296875 872.400390625 c 132,-1,3
 -122.740234375 931.200195312 -122.740234375 931.200195312 -99.6396484375 985.200195312 c 132,-1,4
 -76.5400390625 1039.20019531 -76.5400390625 1039.20019531 -37.060546875 1078.79980469 c 132,-1,5
 2.4208984375 1118.40039062 2.4208984375 1118.40039062 49.4599609375 1118.40039062 c 4,6,7
 102.379882812 1118.40039062 102.379882812 1118.40039062 159.080078125 1078.79980469 c 132,-1,8
 215.779296875 1039.20019531 215.779296875 1039.20019531 238.459960938 945.599609375 c 5,9,10
 356.900390625 1119.59960938 356.900390625 1119.59960938 503.060546875 1120.79980469 c 4,11,12
 693.740234375 1120.79980469 693.740234375 1120.79980469 732.379882812 928.799804688 c 5,13,14
 860.060546875 1120.79980469 860.060546875 1120.79980469 1011.25976562 1120.79980469 c 4,15,16
 1109.54003906 1120.79980469 1109.54003906 1120.79980469 1178 1056.59960938 c 132,-1,17
 1246.45996094 992.400390625 1246.45996094 992.400390625 1246.45996094 840 c 4,18,19
 1246.45996094 717.599609375 1246.45996094 717.599609375 1175.90039062 437.400390625 c 132,-1,20
 1105.33984375 157.200195312 1105.33984375 157.200195312 1105.33984375 108 c 4,21,22
 1105.33984375 63.599609375 1105.33984375 63.599609375 1133.06054688 63.599609375 c 4,23,24
 1169.1796875 63.599609375 1169.1796875 63.599609375 1200.25976562 111.599609375 c 132,-1,25
 1231.33984375 159.599609375 1231.33984375 159.599609375 1247.72070312 214.799804688 c 132,-1,26
 1264.09960938 270 1264.09960938 270 1277.54003906 324 c 132,-1,27
 1290.97949219 378 1290.97949219 378 1292.66015625 380.400390625 c 4,28,29
 1301.06054688 397.200195312 1301.06054688 397.200195312 1328.77929688 398.400390625 c 6,30,-1
 1346.42089844 398.400390625 l 6,31,32
 1380.86035156 398.400390625 1380.86035156 398.400390625 1380.86035156 356.400390625 c 4,33,34
 1380.86035156 334.799804688 1380.86035156 334.799804688 1364.47949219 276.599609375 c 132,-1,35
 1348.09960938 218.400390625 1348.09960938 218.400390625 1317.86035156 148.799804688 c 132,-1,36
 1287.62011719 79.2001953125 1287.62011719 79.2001953125 1234.27929688 25.7998046875 c 132,-1,37
 1180.93945312 -27.599609375 1180.93945312 -27.599609375 1119.62011719 -27.599609375 c 4,38,39
 1045.70019531 -27.599609375 1045.70019531 -27.599609375 993.200195312 34.2001953125 c 132,-1,40
 940.700195312 96 940.700195312 96 940.700195312 194.400390625 c 4,41,42
 940.700195312 234 940.700195312 234 1005.79980469 500.400390625 c 132,-1,43
 1070.90039062 766.799804688 1070.90039062 766.799804688 1070.90039062 894 c 4,44,45
 1070.90039062 1029.59960938 1070.90039062 1029.59960938 993.620117188 1029.59960938 c 4,46,47
 870.139648438 1029.59960938 870.139648438 1029.59960938 775.220703125 846 c 4,48,49
 739.099609375 775.200195312 739.099609375 775.200195312 727.33984375 703.200195312 c 4,50,51
 617.299804688 79.2001953125 617.299804688 79.2001953125 613.099609375 66 c 4,52,53
 583.700195312 -27.599609375 583.700195312 -27.599609375 513.979492188 -27.599609375 c 4,54,55
 481.220703125 -27.599609375 481.220703125 -27.599609375 459.799804688 1.2001953125 c 132,-1,56
 438.379882812 30 438.379882812 30 438.379882812 75.599609375 c 4,57,58
 438.379882812 110.400390625 438.379882812 110.400390625 501.799804688 462 c 132,-1,59
 565.220703125 813.599609375 565.220703125 813.599609375 565.220703125 891.599609375 c 4,60,61
 565.220703125 1029.59960938 565.220703125 1029.59960938 489.620117188 1029.59960938 c 4,62,63
 351.860351562 1029.59960938 351.860351562 1029.59960938 251.900390625 811.200195312 c 4,64,65
 235.099609375 774 235.099609375 774 219.139648438 690 c 4,66,67
 114.139648438 90 114.139648438 90 107.420898438 68.400390625 c 4,68,69
 79.7001953125 -27.599609375 79.7001953125 -27.599609375 8.2998046875 -27.599609375 c 4,70,71
 -24.4599609375 -27.599609375 -24.4599609375 -27.599609375 -47.1396484375 1.2001953125 c 132,-1,72
 -69.8203125 30 -69.8203125 30 -69.8203125 75.599609375 c 4,73,74
 -69.8203125 94.7998046875 -69.8203125 94.7998046875 -57.220703125 164.400390625 c 6,75,-1
 51.1396484375 786 l 6,76,77
 51.1396484375 790.799804688 51.1396484375 790.799804688 57.8603515625 823.200195312 c 132,-1,78
 64.580078125 855.599609375 64.580078125 855.599609375 68.779296875 889.799804688 c 132,-1,79
 72.9794921875 924 72.9794921875 924 72.9794921875 951.599609375 c 4,80,81
 72.9794921875 1027.20019531 72.9794921875 1027.20019531 38.5400390625 1027.20019531 c 4,82,83
 7.4599609375 1027.20019531 7.4599609375 1027.20019531 -17.3203125 957 c 132,-1,84
 -42.099609375 886.799804688 -42.099609375 886.799804688 -57.6396484375 803.400390625 c 132,-1,85
 -73.1796875 720 -73.1796875 720 -76.5400390625 715.200195312 c 4,86,87
 -86.6201171875 693.599609375 -86.6201171875 693.599609375 -110.979492188 693.599609375 c 6,88,-1
 -122.740234375 693.599609375 l 6,89,90
 -123.580078125 693.599609375 -123.580078125 693.599609375 -125.259765625 693.599609375 c 4,91,92
 -165.580078125 693.599609375 -165.580078125 693.599609375 -165.580078125 734.400390625 c 4,0,1
EndSplineSet
Validated: 513
Substitution2: "'fwid' Full Widths lookup 32 subtable" uniFF4D
Substitution2: "'smcp' Lowercase to Small Capitals lookup 27 subtable" m.sc
Substitution2: "'sinf' Scientific Inferiors lookup 14 subtable" uni2098
Substitution2: "'subs' Subscript lookup 13 subtable" uni2098
AlternateSubs2: "'aalt' Access All Alternates lookup 1 subtable" uni2098 m.sc uniFF4D
EndChar

StartChar: n
Encoding: 110 110 39
Width: 1200
VWidth: 2048
GlyphClass: 2
Flags: W
LayerCount: 2
Fore
SplineSet
-56.2998046875 734.400390625 m 0,0,1
 -56.2998046875 741.599609375 -56.2998046875 741.599609375 -48.9501953125 777.599609375 c 128,-1,2
 -41.599609375 813.599609375 -41.599609375 813.599609375 -22.1748046875 872.400390625 c 128,-1,3
 -2.75 931.200195312 -2.75 931.200195312 26.125 985.200195312 c 128,-1,4
 55 1039.20019531 55 1039.20019531 104.349609375 1078.79980469 c 128,-1,5
 153.700195312 1118.40039062 153.700195312 1118.40039062 212.5 1118.40039062 c 0,6,7
 278.650390625 1118.40039062 278.650390625 1118.40039062 349.525390625 1078.79980469 c 128,-1,8
 420.400390625 1039.20019531 420.400390625 1039.20019531 448.75 945.599609375 c 1,9,10
 596.799804688 1119.59960938 596.799804688 1119.59960938 777.400390625 1120.79980469 c 0,11,12
 914.950195312 1120.79980469 914.950195312 1120.79980469 995.799804688 1053 c 128,-1,13
 1076.65039062 985.200195312 1076.65039062 985.200195312 1076.65039062 840 c 0,14,15
 1076.65039062 717.599609375 1076.65039062 717.599609375 987.400390625 436.200195312 c 128,-1,16
 898.150390625 154.799804688 898.150390625 154.799804688 898.150390625 110.400390625 c 0,17,18
 898.150390625 63.599609375 898.150390625 63.599609375 932.799804688 63.599609375 c 0,19,20
 984.25 63.599609375 984.25 63.599609375 1033.59960938 133.200195312 c 0,21,22
 1078.75 196.799804688 1078.75 196.799804688 1104.47460938 287.400390625 c 128,-1,23
 1130.20019531 378 1130.20019531 378 1140.70019531 388.799804688 c 0,24,25
 1157.5 400.799804688 1157.5 400.799804688 1191.09960938 400.799804688 c 0,26,27
 1244.65039062 400.799804688 1244.65039062 400.799804688 1245.70019531 358.799804688 c 0,28,29
 1245.70019531 321.599609375 1245.70019531 321.599609375 1211.57519531 235.799804688 c 128,-1,30
 1177.45019531 150 1177.45019531 150 1096.07519531 61.2001953125 c 128,-1,31
 1014.70019531 -27.599609375 1014.70019531 -27.599609375 914.950195312 -27.599609375 c 0,32,33
 826.75 -27.599609375 826.75 -27.599609375 759.025390625 31.7998046875 c 128,-1,34
 691.299804688 91.2001953125 691.299804688 91.2001953125 691.299804688 194.400390625 c 0,35,36
 691.299804688 238.799804688 691.299804688 238.799804688 774.25 498 c 128,-1,37
 857.200195312 757.200195312 857.200195312 757.200195312 857.200195312 891.599609375 c 0,38,39
 857.200195312 1029.59960938 857.200195312 1029.59960938 758.5 1029.59960938 c 0,40,41
 596.799804688 1029.59960938 596.799804688 1029.59960938 475 825.599609375 c 0,42,43
 442.450195312 771.599609375 442.450195312 771.599609375 424.599609375 690 c 0,44,45
 317.5 206.400390625 317.5 206.400390625 301.224609375 135 c 128,-1,46
 284.950195312 63.599609375 284.950195312 63.599609375 270.25 39.599609375 c 0,47,48
 229.299804688 -26.400390625 229.299804688 -26.400390625 161.049804688 -27.599609375 c 0,49,50
 122.200195312 -27.599609375 122.200195312 -27.599609375 92.7998046875 1.2001953125 c 128,-1,51
 63.400390625 30 63.400390625 30 63.400390625 75.599609375 c 0,52,53
 63.400390625 92.400390625 63.400390625 92.400390625 74.9501953125 147.599609375 c 2,54,-1
 210.400390625 766.799804688 l 2,55,56
 240.849609375 909.599609375 240.849609375 909.599609375 239.799804688 954 c 0,57,58
 239.799804688 1027.20019531 239.799804688 1027.20019531 198.849609375 1027.20019531 c 128,-1,59
 157.900390625 1027.20019531 157.900390625 1027.20019531 127.974609375 957 c 128,-1,60
 98.0498046875 886.799804688 98.0498046875 886.799804688 78.625 803.400390625 c 128,-1,61
 59.2001953125 720 59.2001953125 720 55 712.799804688 c 0,62,63
 42.400390625 693.599609375 42.400390625 693.599609375 -2.75 693.599609375 c 0,64,65
 -3.7998046875 693.599609375 -3.7998046875 693.599609375 -5.900390625 693.599609375 c 0,66,67
 -56.2998046875 693.599609375 -56.2998046875 693.599609375 -56.2998046875 734.400390625 c 0,0,1
EndSplineSet
Validated: 545
Substitution2: "'fwid' Full Widths lookup 32 subtable" uniFF4E
Substitution2: "'smcp' Lowercase to Small Capitals lookup 27 subtable" n.sc
Substitution2: "'sinf' Scientific Inferiors lookup 14 subtable" uni2099
Substitution2: "'subs' Subscript lookup 13 subtable" uni2099
AlternateSubs2: "'aalt' Access All Alternates lookup 1 subtable" uni2099 n.sc uniFF4E
EndChar

StartChar: o
Encoding: 111 111 40
Width: 1200
VWidth: 2048
GlyphClass: 2
Flags: W
LayerCount: 2
Fore
SplineSet
-3.599609375 391.200195312 m 4,0,1
 -3.599609375 668.400390625 -3.599609375 668.400390625 201.599609375 894.599609375 c 132,-1,2
 406.799804688 1120.79980469 406.799804688 1120.79980469 733.200195312 1120.79980469 c 4,3,4
 946.799804688 1120.79980469 946.799804688 1120.79980469 1072.79980469 1011.59960938 c 132,-1,5
 1198.79980469 902.400390625 1198.79980469 902.400390625 1198.79980469 703.200195312 c 4,6,7
 1198.79980469 583.200195312 1198.79980469 583.200195312 1152 457.200195312 c 132,-1,8
 1105.20019531 331.200195312 1105.20019531 331.200195312 1017.59960938 222 c 132,-1,9
 930 112.799804688 930 112.799804688 784.200195312 42.599609375 c 132,-1,10
 638.400390625 -27.599609375 638.400390625 -27.599609375 463.200195312 -27.599609375 c 4,11,12
 249.599609375 -27.599609375 249.599609375 -27.599609375 123 82.2001953125 c 132,-1,13
 -3.599609375 192 -3.599609375 192 -3.599609375 391.200195312 c 4,0,1
266.400390625 277.200195312 m 4,14,15
 266.400390625 162 266.400390625 162 327 111.599609375 c 132,-1,16
 387.599609375 61.2001953125 387.599609375 61.2001953125 468 61.2001953125 c 4,17,18
 522 61.2001953125 522 61.2001953125 570 77.400390625 c 132,-1,19
 618 93.599609375 618 93.599609375 655.200195312 121.799804688 c 132,-1,20
 692.400390625 150 692.400390625 150 723 183 c 132,-1,21
 753.599609375 216 753.599609375 216 777 259.200195312 c 132,-1,22
 800.400390625 302.400390625 800.400390625 302.400390625 817.200195312 339 c 132,-1,23
 834 375.599609375 834 375.599609375 847.799804688 417.599609375 c 132,-1,24
 861.599609375 459.599609375 861.599609375 459.599609375 867.599609375 486.599609375 c 132,-1,25
 873.599609375 513.599609375 873.599609375 513.599609375 880.799804688 541.200195312 c 6,26,-1
 885.599609375 565.200195312 l 5,27,28
 927.599609375 732 927.599609375 732 927.599609375 816 c 4,29,30
 927.599609375 931.200195312 927.599609375 931.200195312 867.599609375 980.400390625 c 132,-1,31
 807.599609375 1029.59960938 807.599609375 1029.59960938 726 1029.59960938 c 4,32,33
 416.400390625 1029.59960938 416.400390625 1029.59960938 308.400390625 528 c 5,34,35
 266.400390625 361.200195312 266.400390625 361.200195312 266.400390625 277.200195312 c 4,14,15
EndSplineSet
Validated: 513
Substitution2: "Single Substitution lookup 63 subtable" ordmasculine
Substitution2: "'fwid' Full Widths lookup 32 subtable" uniFF4F
Substitution2: "'smcp' Lowercase to Small Capitals lookup 27 subtable" o.sc
Substitution2: "'sinf' Scientific Inferiors lookup 14 subtable" uni2092
Substitution2: "'subs' Subscript lookup 13 subtable" uni2092
AlternateSubs2: "'aalt' Access All Alternates lookup 1 subtable" uni2092 ordmasculine o.sc uniFF4F
EndChar

StartChar: p
Encoding: 112 112 41
Width: 1200
VWidth: 2048
GlyphClass: 2
Flags: W
LayerCount: 2
Fore
SplineSet
-35.5 -427.200195312 m 4,0,1
 -35.5 -361.200195312 -35.5 -361.200195312 29.599609375 -361.200195312 c 6,2,-1
 35.900390625 -361.200195312 l 6,3,4
 54.7998046875 -361.200195312 54.7998046875 -361.200195312 97.849609375 -356.400390625 c 5,5,6
 102.049804688 -334.799804688 102.049804688 -334.799804688 113.075195312 -289.200195312 c 132,-1,7
 124.099609375 -243.599609375 124.099609375 -243.599609375 128.299804688 -220.799804688 c 6,8,-1
 351.950195312 801.599609375 l 6,9,10
 376.099609375 912 376.099609375 912 375.049804688 954 c 4,11,12
 375.049804688 1027.20019531 375.049804688 1027.20019531 334.099609375 1027.20019531 c 4,13,14
 295.25 1027.20019531 295.25 1027.20019531 264.275390625 958.200195312 c 132,-1,15
 233.299804688 889.200195312 233.299804688 889.200195312 213.875 805.799804688 c 132,-1,16
 194.450195312 722.400390625 194.450195312 722.400390625 192.349609375 717.599609375 c 4,17,18
 179.75 693.599609375 179.75 693.599609375 140.900390625 693.599609375 c 4,19,20
 78.9501953125 693.599609375 78.9501953125 693.599609375 78.9501953125 732 c 4,21,22
 78.9501953125 739.200195312 78.9501953125 739.200195312 86.2998046875 776.400390625 c 132,-1,23
 93.650390625 813.599609375 93.650390625 813.599609375 113.075195312 872.400390625 c 132,-1,24
 132.5 931.200195312 132.5 931.200195312 161.375 985.200195312 c 132,-1,25
 190.25 1039.20019531 190.25 1039.20019531 239.599609375 1078.79980469 c 132,-1,26
 288.950195312 1118.40039062 288.950195312 1118.40039062 347.75 1118.40039062 c 4,27,28
 493.700195312 1118.40039062 493.700195312 1118.40039062 565.099609375 990 c 5,29,30
 708.950195312 1120.79980469 708.950195312 1120.79980469 848.599609375 1120.79980469 c 4,31,32
 906.349609375 1120.79980469 906.349609375 1120.79980469 961.474609375 1102.20019531 c 132,-1,33
 1016.59960938 1083.59960938 1016.59960938 1083.59960938 1072.25 1042.20019531 c 132,-1,34
 1127.90039062 1000.79980469 1127.90039062 1000.79980469 1161.5 918 c 132,-1,35
 1195.09960938 835.200195312 1195.09960938 835.200195312 1195.09960938 724.799804688 c 4,36,37
 1195.09960938 602.400390625 1195.09960938 602.400390625 1155.20019531 472.200195312 c 132,-1,38
 1115.29980469 342 1115.29980469 342 1044.42480469 229.799804688 c 132,-1,39
 973.549804688 117.599609375 973.549804688 117.599609375 860.674804688 45 c 132,-1,40
 747.799804688 -27.599609375 747.799804688 -27.599609375 614.450195312 -27.599609375 c 4,41,42
 503.150390625 -27.599609375 503.150390625 -27.599609375 418.099609375 51.599609375 c 5,43,-1
 329.900390625 -356.400390625 l 5,44,45
 381.349609375 -361.200195312 381.349609375 -361.200195312 409.700195312 -361.200195312 c 4,46,47
 475.849609375 -361.200195312 475.849609375 -361.200195312 476.900390625 -408 c 4,48,49
 476.900390625 -476.400390625 476.900390625 -476.400390625 418.099609375 -476.400390625 c 4,50,51
 411.799804688 -476.400390625 411.799804688 -476.400390625 382.924804688 -475.200195312 c 132,-1,52
 354.049804688 -474 354.049804688 -474 303.650390625 -472.799804688 c 132,-1,53
 253.25 -471.599609375 253.25 -471.599609375 194.450195312 -471.599609375 c 4,54,55
 130.400390625 -471.599609375 130.400390625 -471.599609375 90.5 -472.799804688 c 132,-1,56
 50.599609375 -474 50.599609375 -474 35.375 -475.200195312 c 132,-1,57
 20.150390625 -476.400390625 20.150390625 -476.400390625 15.9501953125 -476.400390625 c 4,58,59
 -35.5 -476.400390625 -35.5 -476.400390625 -35.5 -427.200195312 c 4,0,1
459.049804688 218.400390625 m 4,60,61
 459.049804688 169.200195312 459.049804688 169.200195312 502.099609375 116.400390625 c 132,-1,62
 545.150390625 63.599609375 545.150390625 63.599609375 614.450195312 63.599609375 c 4,63,64
 731 63.599609375 731 63.599609375 809.75 211.200195312 c 4,65,66
 863.299804688 314.400390625 863.299804688 314.400390625 912.650390625 539.400390625 c 132,-1,67
 962 764.400390625 962 764.400390625 962 855.599609375 c 4,68,69
 962 949.200195312 962 949.200195312 924.724609375 989.400390625 c 132,-1,70
 887.450195312 1029.59960938 887.450195312 1029.59960938 840.200195312 1029.59960938 c 4,71,72
 764.599609375 1029.59960938 764.599609375 1029.59960938 692.674804688 969.599609375 c 132,-1,73
 620.75 909.599609375 620.75 909.599609375 596.599609375 855.599609375 c 4,74,75
 592.400390625 843.599609375 592.400390625 843.599609375 525.724609375 538.200195312 c 132,-1,76
 459.049804688 232.799804688 459.049804688 232.799804688 459.049804688 218.400390625 c 4,60,61
EndSplineSet
Validated: 545
Substitution2: "'fwid' Full Widths lookup 32 subtable" uniFF50
Substitution2: "'smcp' Lowercase to Small Capitals lookup 27 subtable" p.sc
Substitution2: "'sinf' Scientific Inferiors lookup 14 subtable" uni209A
Substitution2: "'subs' Subscript lookup 13 subtable" uni209A
AlternateSubs2: "'aalt' Access All Alternates lookup 1 subtable" uni209A p.sc uniFF50
EndChar

StartChar: q
Encoding: 113 113 42
Width: 1200
VWidth: 2048
GlyphClass: 2
Flags: W
LayerCount: 2
Fore
SplineSet
20.400390625 368.400390625 m 4,0,1
 20.400390625 488.400390625 20.400390625 488.400390625 64.7998046875 619.200195312 c 132,-1,2
 109.200195312 750 109.200195312 750 189 862.799804688 c 132,-1,3
 268.799804688 975.599609375 268.799804688 975.599609375 397.799804688 1048.20019531 c 132,-1,4
 526.799804688 1120.79980469 526.799804688 1120.79980469 681.599609375 1120.79980469 c 4,5,6
 819.599609375 1120.79980469 819.599609375 1120.79980469 922.799804688 1024.79980469 c 5,7,8
 969.599609375 1066.79980469 969.599609375 1066.79980469 1036.79980469 1091.40039062 c 132,-1,9
 1104 1116 1104 1116 1129.20019531 1116 c 4,10,11
 1176 1116 1176 1116 1176 1071.59960938 c 4,12,13
 1176 1059.59960938 1176 1059.59960938 1087.20019531 708 c 6,14,-1
 822 -356.400390625 l 5,15,16
 880.799804688 -361.200195312 880.799804688 -361.200195312 912 -361.200195312 c 6,17,-1
 922.799804688 -361.200195312 l 6,18,19
 988.799804688 -361.200195312 988.799804688 -361.200195312 988.799804688 -417.599609375 c 4,20,21
 988.799804688 -476.400390625 988.799804688 -476.400390625 920.400390625 -476.400390625 c 4,22,23
 913.200195312 -476.400390625 913.200195312 -476.400390625 845.400390625 -474 c 132,-1,24
 777.599609375 -471.599609375 777.599609375 -471.599609375 649.200195312 -471.599609375 c 6,25,-1
 604.799804688 -471.599609375 l 6,26,27
 560.400390625 -471.599609375 560.400390625 -471.599609375 500.400390625 -474 c 132,-1,28
 440.400390625 -476.400390625 440.400390625 -476.400390625 426 -476.400390625 c 4,29,30
 357.599609375 -476.400390625 357.599609375 -476.400390625 357.599609375 -427.200195312 c 4,31,32
 357.599609375 -375.599609375 357.599609375 -375.599609375 398.400390625 -363.599609375 c 4,33,34
 408 -361.200195312 408 -361.200195312 458.400390625 -361.200195312 c 4,35,36
 512.400390625 -361.200195312 512.400390625 -361.200195312 559.200195312 -351.599609375 c 5,37,-1
 656.400390625 42 l 5,38,39
 531.599609375 -26.400390625 531.599609375 -26.400390625 414 -27.599609375 c 4,40,41
 348 -27.599609375 348 -27.599609375 285 -9 c 132,-1,42
 222 9.599609375 222 9.599609375 159 50.400390625 c 132,-1,43
 96 91.2001953125 96 91.2001953125 58.2001953125 173.400390625 c 132,-1,44
 20.400390625 255.599609375 20.400390625 255.599609375 20.400390625 368.400390625 c 4,0,1
285.599609375 238.799804688 m 4,45,46
 285.599609375 145.200195312 285.599609375 145.200195312 328.799804688 104.400390625 c 132,-1,47
 372 63.599609375 372 63.599609375 426 63.599609375 c 4,48,49
 517.200195312 63.599609375 517.200195312 63.599609375 597 124.200195312 c 132,-1,50
 676.799804688 184.799804688 676.799804688 184.799804688 700.799804688 234 c 4,51,52
 712.799804688 258 712.799804688 258 786.599609375 559.200195312 c 132,-1,53
 860.400390625 860.400390625 860.400390625 860.400390625 860.400390625 870 c 4,54,55
 860.400390625 919.200195312 860.400390625 919.200195312 811.200195312 974.400390625 c 132,-1,56
 762 1029.59960938 762 1029.59960938 684 1029.59960938 c 4,57,58
 550.799804688 1029.59960938 550.799804688 1029.59960938 458.400390625 877.200195312 c 4,59,60
 402 778.799804688 402 778.799804688 343.799804688 558 c 132,-1,61
 285.599609375 337.200195312 285.599609375 337.200195312 285.599609375 238.799804688 c 4,45,46
EndSplineSet
Validated: 513
Substitution2: "'fwid' Full Widths lookup 32 subtable" uniFF51
Substitution2: "'smcp' Lowercase to Small Capitals lookup 27 subtable" q.sc
AlternateSubs2: "'aalt' Access All Alternates lookup 1 subtable" q.sc uniFF51
EndChar

StartChar: r
Encoding: 114 114 43
Width: 1200
VWidth: 2048
GlyphClass: 2
Flags: W
LayerCount: 2
Fore
SplineSet
6 734.400390625 m 4,0,1
 8.400390625 748.799804688 8.400390625 748.799804688 14.400390625 775.200195312 c 132,-1,2
 20.400390625 801.599609375 20.400390625 801.599609375 43.7998046875 867.599609375 c 132,-1,3
 67.2001953125 933.599609375 67.2001953125 933.599609375 99 984 c 132,-1,4
 130.799804688 1034.40039062 130.799804688 1034.40039062 187.200195312 1076.40039062 c 132,-1,5
 243.599609375 1118.40039062 243.599609375 1118.40039062 313.200195312 1118.40039062 c 4,6,7
 484.799804688 1118.40039062 484.799804688 1118.40039062 568.799804688 982.799804688 c 5,8,9
 714 1120.79980469 714 1120.79980469 885.599609375 1120.79980469 c 4,10,11
 1005.59960938 1120.79980469 1005.59960938 1120.79980469 1099.20019531 1063.20019531 c 132,-1,12
 1192.79980469 1005.59960938 1192.79980469 1005.59960938 1192.79980469 897.599609375 c 4,13,14
 1192.79980469 822 1192.79980469 822 1140 766.200195312 c 132,-1,15
 1087.20019531 710.400390625 1087.20019531 710.400390625 1015.20019531 710.400390625 c 4,16,17
 958.799804688 710.400390625 958.799804688 710.400390625 927 743.400390625 c 132,-1,18
 895.200195312 776.400390625 895.200195312 776.400390625 895.200195312 825.599609375 c 4,19,20
 895.200195312 933.599609375 895.200195312 933.599609375 1012.79980469 985.200195312 c 5,21,22
 946.799804688 1029.59960938 946.799804688 1029.59960938 880.799804688 1029.59960938 c 4,23,24
 819.599609375 1029.59960938 819.599609375 1029.59960938 763.799804688 1001.40039062 c 132,-1,25
 708 973.200195312 708 973.200195312 672.599609375 932.400390625 c 132,-1,26
 637.200195312 891.599609375 637.200195312 891.599609375 616.200195312 861 c 132,-1,27
 595.200195312 830.400390625 595.200195312 830.400390625 588 813.599609375 c 4,28,29
 578.400390625 794.400390625 578.400390625 794.400390625 568.799804688 739.200195312 c 6,30,-1
 414 124.799804688 l 6,31,32
 379.200195312 -27.599609375 379.200195312 -27.599609375 254.400390625 -27.599609375 c 4,33,34
 207.599609375 -27.599609375 207.599609375 -27.599609375 175.200195312 1.2001953125 c 132,-1,35
 142.799804688 30 142.799804688 30 142.799804688 75.599609375 c 4,36,37
 142.799804688 97.2001953125 142.799804688 97.2001953125 153.599609375 138 c 6,38,-1
 318 788.400390625 l 6,39,40
 345.599609375 908.400390625 345.599609375 908.400390625 344.400390625 951.599609375 c 4,41,42
 344.400390625 1027.20019531 344.400390625 1027.20019531 297.599609375 1027.20019531 c 4,43,44
 253.200195312 1027.20019531 253.200195312 1027.20019531 217.799804688 957 c 132,-1,45
 182.400390625 886.799804688 182.400390625 886.799804688 161.400390625 803.400390625 c 132,-1,46
 140.400390625 720 140.400390625 720 135.599609375 715.200195312 c 4,47,48
 121.200195312 693.599609375 121.200195312 693.599609375 84 693.599609375 c 6,49,-1
 67.2001953125 693.599609375 l 6,50,51
 66 693.599609375 66 693.599609375 63.599609375 693.599609375 c 4,52,53
 6 693.599609375 6 693.599609375 6 734.400390625 c 4,0,1
EndSplineSet
Validated: 545
Substitution2: "Single Substitution lookup 74 subtable" r.alternate
Substitution2: "'fwid' Full Widths lookup 32 subtable" uniFF52
Substitution2: "'smcp' Lowercase to Small Capitals lookup 27 subtable" r.sc
AlternateSubs2: "'aalt' Access All Alternates lookup 1 subtable" r.sc uniFF52 r.alternate
EndChar

StartChar: s
Encoding: 115 115 44
Width: 1200
VWidth: 2048
GlyphClass: 2
Flags: W
LayerCount: 2
Fore
SplineSet
98.599609375 220.799804688 m 4,0,1
 98.599609375 304.799804688 98.599609375 304.799804688 150.200195312 360 c 132,-1,2
 201.799804688 415.200195312 201.799804688 415.200195312 275 415.200195312 c 4,3,4
 329 415.200195312 329 415.200195312 362.599609375 383.400390625 c 132,-1,5
 396.200195312 351.599609375 396.200195312 351.599609375 396.200195312 302.400390625 c 4,6,7
 396.200195312 258 396.200195312 258 366.799804688 208.799804688 c 132,-1,8
 337.400390625 159.599609375 337.400390625 159.599609375 272.599609375 138 c 5,9,10
 356.599609375 62.400390625 356.599609375 62.400390625 501.799804688 61.2001953125 c 4,11,12
 689 61.2001953125 689 61.2001953125 766.400390625 142.200195312 c 132,-1,13
 843.799804688 223.200195312 843.799804688 223.200195312 843.799804688 302.400390625 c 4,14,15
 843.799804688 356.400390625 843.799804688 356.400390625 801.799804688 391.799804688 c 132,-1,16
 759.799804688 427.200195312 759.799804688 427.200195312 710.599609375 441 c 132,-1,17
 661.400390625 454.799804688 661.400390625 454.799804688 588.799804688 468 c 132,-1,18
 516.200195312 481.200195312 516.200195312 481.200195312 487.400390625 492 c 4,19,20
 416.599609375 516 416.599609375 516 358.400390625 577.200195312 c 132,-1,21
 300.200195312 638.400390625 300.200195312 638.400390625 300.200195312 734.400390625 c 4,22,23
 300.200195312 778.799804688 300.200195312 778.799804688 318.799804688 835.200195312 c 132,-1,24
 337.400390625 891.599609375 337.400390625 891.599609375 381.200195312 960.599609375 c 132,-1,25
 425 1029.59960938 425 1029.59960938 522.200195312 1075.20019531 c 132,-1,26
 619.400390625 1120.79980469 619.400390625 1120.79980469 755 1120.79980469 c 4,27,28
 905 1120.79980469 905 1120.79980469 994.400390625 1059 c 132,-1,29
 1083.79980469 997.200195312 1083.79980469 997.200195312 1083.79980469 897.599609375 c 4,30,31
 1083.79980469 816 1083.79980469 816 1034.59960938 771.599609375 c 132,-1,32
 985.400390625 727.200195312 985.400390625 727.200195312 931.400390625 727.200195312 c 4,33,34
 884.599609375 727.200195312 884.599609375 727.200195312 855.200195312 756.599609375 c 132,-1,35
 825.799804688 786 825.799804688 786 825.799804688 828 c 4,36,37
 825.799804688 919.200195312 825.799804688 919.200195312 921.799804688 966 c 5,38,39
 851 1029.59960938 851 1029.59960938 747.799804688 1029.59960938 c 4,40,41
 605 1029.59960938 605 1029.59960938 547.400390625 963.599609375 c 132,-1,42
 489.799804688 897.599609375 489.799804688 897.599609375 489.799804688 835.200195312 c 4,43,44
 489.799804688 793.200195312 489.799804688 793.200195312 513.799804688 766.799804688 c 4,45,46
 541.400390625 736.799804688 541.400390625 736.799804688 585.200195312 723.599609375 c 132,-1,47
 629 710.400390625 629 710.400390625 696.799804688 699 c 132,-1,48
 764.599609375 687.599609375 764.599609375 687.599609375 811.400390625 673.200195312 c 4,49,50
 893 645.599609375 893 645.599609375 961.400390625 578.400390625 c 132,-1,51
 1029.79980469 511.200195312 1029.79980469 511.200195312 1029.79980469 403.200195312 c 4,52,53
 1029.79980469 346.799804688 1029.79980469 346.799804688 1006.40039062 281.400390625 c 132,-1,54
 983 216 983 216 929 142.200195312 c 132,-1,55
 875 68.400390625 875 68.400390625 762.200195312 20.400390625 c 132,-1,56
 649.400390625 -27.599609375 649.400390625 -27.599609375 494.599609375 -27.599609375 c 4,57,58
 312.200195312 -27.599609375 312.200195312 -27.599609375 205.400390625 40.2001953125 c 132,-1,59
 98.599609375 108 98.599609375 108 98.599609375 220.799804688 c 4,0,1
EndSplineSet
Validated: 513
Substitution2: "'fwid' Full Widths lookup 32 subtable" uniFF53
Substitution2: "'smcp' Lowercase to Small Capitals lookup 27 subtable" s.sc
Substitution2: "'sinf' Scientific Inferiors lookup 14 subtable" uni209B
Substitution2: "'subs' Subscript lookup 13 subtable" uni209B
AlternateSubs2: "'aalt' Access All Alternates lookup 1 subtable" uni209B s.sc uniFF53
EndChar

StartChar: t
Encoding: 116 116 45
Width: 1200
VWidth: 2048
GlyphClass: 2
Flags: W
LayerCount: 2
Fore
SplineSet
224.599609375 939.400390625 m 4,0,1
 224.599609375 997.700195312 224.599609375 997.700195312 288.400390625 999.900390625 c 6,2,-1
 484.200195312 999.900390625 l 5,3,4
 501.799804688 1079.09960938 501.799804688 1079.09960938 561.200195312 1317.79980469 c 4,5,6
 597.5 1455.29980469 597.5 1455.29980469 709.700195312 1455.29980469 c 4,7,8
 750.400390625 1455.29980469 750.400390625 1455.29980469 779.549804688 1428.34960938 c 132,-1,9
 808.700195312 1401.40039062 808.700195312 1401.40039062 808.700195312 1360.70019531 c 4,10,11
 808.700195312 1343.09960938 808.700195312 1343.09960938 793.849609375 1279.84960938 c 132,-1,12
 779 1216.59960938 779 1216.59960938 756.450195312 1127.5 c 132,-1,13
 733.900390625 1038.40039062 733.900390625 1038.40039062 725.099609375 999.900390625 c 5,14,-1
 894.5 999.900390625 l 6,15,16
 955 999.900390625 955 999.900390625 955 957 c 4,17,18
 955 896.5 955 896.5 892.299804688 894.299804688 c 6,19,-1
 695.400390625 894.299804688 l 5,20,-1
 544.700195312 283.799804688 l 6,21,22
 517.200195312 182.599609375 517.200195312 182.599609375 518.299804688 124.299804688 c 4,23,24
 518.299804688 59.400390625 518.299804688 59.400390625 565.599609375 58.2998046875 c 4,25,26
 619.5 58.2998046875 619.5 58.2998046875 691.549804688 116.049804688 c 132,-1,27
 763.599609375 173.799804688 763.599609375 173.799804688 824.099609375 311.299804688 c 4,28,29
 835.099609375 333.299804688 835.099609375 333.299804688 841.150390625 343.75 c 132,-1,30
 847.200195312 354.200195312 847.200195312 354.200195312 858.200195312 359.700195312 c 132,-1,31
 869.200195312 365.200195312 869.200195312 365.200195312 886.799804688 365.200195312 c 6,32,-1
 901.099609375 365.200195312 l 6,33,34
 959.400390625 365.200195312 959.400390625 365.200195312 959.400390625 331.099609375 c 4,35,36
 959.400390625 311.299804688 959.400390625 311.299804688 930.25 255.75 c 132,-1,37
 901.099609375 200.200195312 901.099609375 200.200195312 852.700195312 136.400390625 c 132,-1,38
 804.299804688 72.599609375 804.299804688 72.599609375 721.799804688 23.650390625 c 132,-1,39
 639.299804688 -25.2998046875 639.299804688 -25.2998046875 551.299804688 -25.2998046875 c 4,40,41
 439.099609375 -25.2998046875 439.099609375 -25.2998046875 364.849609375 36.849609375 c 132,-1,42
 290.599609375 99 290.599609375 99 290.599609375 198 c 4,43,44
 290.599609375 225.5 290.599609375 225.5 317 337.700195312 c 6,45,-1
 454.5 894.299804688 l 5,46,-1
 284 894.299804688 l 6,47,48
 224.599609375 894.299804688 224.599609375 894.299804688 224.599609375 939.400390625 c 4,0,1
EndSplineSet
Validated: 545
Substitution2: "'fwid' Full Widths lookup 32 subtable" uniFF54
Substitution2: "'smcp' Lowercase to Small Capitals lookup 27 subtable" t.sc
Substitution2: "'sinf' Scientific Inferiors lookup 14 subtable" uni209C
Substitution2: "'subs' Subscript lookup 13 subtable" uni209C
AlternateSubs2: "'aalt' Access All Alternates lookup 1 subtable" uni209C t.sc uniFF54
EndChar

StartChar: u
Encoding: 117 117 46
Width: 1200
VWidth: 2048
GlyphClass: 2
Flags: W
LayerCount: 2
Fore
SplineSet
-44.400390625 734.400390625 m 4,0,1
 -44.400390625 758.400390625 -44.400390625 758.400390625 -21.849609375 816.599609375 c 132,-1,2
 0.7001953125 874.799804688 0.7001953125 874.799804688 38.650390625 945 c 132,-1,3
 76.599609375 1015.20019531 76.599609375 1015.20019531 147.549804688 1068 c 132,-1,4
 218.5 1120.79980469 218.5 1120.79980469 299.900390625 1120.79980469 c 4,5,6
 390.099609375 1120.79980469 390.099609375 1120.79980469 462.150390625 1059 c 132,-1,7
 534.200195312 997.200195312 534.200195312 997.200195312 534.200195312 897.599609375 c 4,8,9
 534.200195312 850.799804688 534.200195312 850.799804688 452.25 612 c 132,-1,10
 370.299804688 373.200195312 370.299804688 373.200195312 370.299804688 228 c 4,11,12
 370.299804688 63.599609375 370.299804688 63.599609375 489.099609375 63.599609375 c 4,13,14
 585.900390625 63.599609375 585.900390625 63.599609375 665.099609375 159.599609375 c 4,15,16
 680.5 178.799804688 680.5 178.799804688 690.950195312 191.400390625 c 132,-1,17
 701.400390625 204 701.400390625 204 706.900390625 219 c 132,-1,18
 712.400390625 234 712.400390625 234 713.5 238.799804688 c 132,-1,19
 714.599609375 243.599609375 714.599609375 243.599609375 717.900390625 261.599609375 c 132,-1,20
 721.200195312 279.599609375 721.200195312 279.599609375 723.400390625 290.400390625 c 6,21,-1
 871.900390625 945.599609375 l 6,22,23
 908.200195312 1090.79980469 908.200195312 1090.79980469 1018.20019531 1090.79980469 c 4,24,25
 1061.09960938 1090.79980469 1061.09960938 1090.79980469 1089.15039062 1062.59960938 c 132,-1,26
 1117.20019531 1034.40039062 1117.20019531 1034.40039062 1117.20019531 987.599609375 c 4,27,28
 1117.20019531 955.200195312 1117.20019531 955.200195312 1028.65039062 579.599609375 c 132,-1,29
 940.099609375 204 940.099609375 204 940.099609375 140.400390625 c 4,30,31
 940.099609375 64.7998046875 940.099609375 64.7998046875 983 63.599609375 c 4,32,33
 1057.79980469 63.599609375 1057.79980469 63.599609375 1122.70019531 342 c 4,34,35
 1129.29980469 369.599609375 1129.29980469 369.599609375 1139.20019531 381.599609375 c 132,-1,36
 1149.09960938 393.599609375 1149.09960938 393.599609375 1160.65039062 396 c 132,-1,37
 1172.20019531 398.400390625 1172.20019531 398.400390625 1196.40039062 398.400390625 c 4,38,39
 1250.29980469 398.400390625 1250.29980469 398.400390625 1250.29980469 358.799804688 c 4,40,41
 1250.29980469 349.200195312 1250.29980469 349.200195312 1242.59960938 312 c 132,-1,42
 1234.90039062 274.799804688 1234.90039062 274.799804688 1213.45019531 216 c 132,-1,43
 1192 157.200195312 1192 157.200195312 1161.75 104.400390625 c 132,-1,44
 1131.5 51.599609375 1131.5 51.599609375 1080.90039062 12 c 132,-1,45
 1030.29980469 -27.599609375 1030.29980469 -27.599609375 970.900390625 -27.599609375 c 4,46,47
 818 -27.599609375 818 -27.599609375 741 98.400390625 c 5,48,49
 614.5 -26.400390625 614.5 -26.400390625 471.5 -27.599609375 c 4,50,51
 334 -27.599609375 334 -27.599609375 238.299804688 42.599609375 c 132,-1,52
 142.599609375 112.799804688 142.599609375 112.799804688 142.599609375 285.599609375 c 4,53,54
 142.599609375 423.599609375 142.599609375 423.599609375 230.049804688 678.599609375 c 132,-1,55
 317.5 933.599609375 317.5 933.599609375 317.5 980.400390625 c 132,-1,56
 317.5 1027.20019531 317.5 1027.20019531 282.299804688 1027.20019531 c 4,57,58
 226.200195312 1027.20019531 226.200195312 1027.20019531 173.400390625 956.400390625 c 4,59,60
 128.299804688 892.799804688 128.299804688 892.799804688 102.450195312 804 c 132,-1,61
 76.599609375 715.200195312 76.599609375 715.200195312 65.599609375 705.599609375 c 4,62,63
 48 693.599609375 48 693.599609375 13.900390625 693.599609375 c 4,64,65
 12.7998046875 693.599609375 12.7998046875 693.599609375 10.599609375 693.599609375 c 4,66,67
 -44.400390625 693.599609375 -44.400390625 693.599609375 -44.400390625 734.400390625 c 4,0,1
EndSplineSet
Validated: 513
Substitution2: "'fwid' Full Widths lookup 32 subtable" uniFF55
Substitution2: "'smcp' Lowercase to Small Capitals lookup 27 subtable" u.sc
AlternateSubs2: "'aalt' Access All Alternates lookup 1 subtable" u.sc uniFF55
EndChar

StartChar: v
Encoding: 118 118 47
Width: 1200
VWidth: 2048
GlyphClass: 2
Flags: W
LayerCount: 2
Fore
SplineSet
13.7998046875 734.400390625 m 4,0,1
 13.7998046875 758.400390625 13.7998046875 758.400390625 37.2001953125 817.799804688 c 132,-1,2
 60.599609375 877.200195312 60.599609375 877.200195312 103.200195312 946.200195312 c 132,-1,3
 145.799804688 1015.20019531 145.799804688 1015.20019531 222 1066.79980469 c 132,-1,4
 298.200195312 1118.40039062 298.200195312 1118.40039062 387 1118.40039062 c 4,5,6
 490.200195312 1118.40039062 490.200195312 1118.40039062 566.400390625 1057.79980469 c 132,-1,7
 642.599609375 997.200195312 642.599609375 997.200195312 642.599609375 897.599609375 c 4,8,9
 642.599609375 853.200195312 642.599609375 853.200195312 555.599609375 615.599609375 c 132,-1,10
 468.599609375 378 468.599609375 378 468.599609375 243.599609375 c 4,11,12
 468.599609375 63.599609375 468.599609375 63.599609375 623.400390625 63.599609375 c 4,13,14
 714.599609375 63.599609375 714.599609375 63.599609375 792.599609375 153.599609375 c 132,-1,15
 870.599609375 243.599609375 870.599609375 243.599609375 912.599609375 360 c 132,-1,16
 954.599609375 476.400390625 954.599609375 476.400390625 978 565.200195312 c 132,-1,17
 1001.40039062 654 1001.40039062 654 1001.40039062 678 c 4,18,19
 1001.40039062 753.599609375 1001.40039062 753.599609375 926.400390625 822.599609375 c 132,-1,20
 851.400390625 891.599609375 851.400390625 891.599609375 851.400390625 943.200195312 c 4,21,22
 851.400390625 1006.79980469 851.400390625 1006.79980469 905.400390625 1063.79980469 c 132,-1,23
 959.400390625 1120.79980469 959.400390625 1120.79980469 1029 1120.79980469 c 4,24,25
 1087.79980469 1120.79980469 1087.79980469 1120.79980469 1135.79980469 1069.20019531 c 132,-1,26
 1183.79980469 1017.59960938 1183.79980469 1017.59960938 1183.79980469 907.200195312 c 4,27,28
 1183.79980469 850.799804688 1183.79980469 850.799804688 1165.20019531 747.599609375 c 132,-1,29
 1146.59960938 644.400390625 1146.59960938 644.400390625 1101 508.799804688 c 132,-1,30
 1055.40039062 373.200195312 1055.40039062 373.200195312 993 255.599609375 c 132,-1,31
 930.599609375 138 930.599609375 138 829.799804688 55.2001953125 c 132,-1,32
 729 -27.599609375 729 -27.599609375 610.200195312 -27.599609375 c 4,33,34
 534.599609375 -27.599609375 534.599609375 -27.599609375 469.200195312 -12.599609375 c 132,-1,35
 403.799804688 2.400390625 403.799804688 2.400390625 345 35.400390625 c 132,-1,36
 286.200195312 68.400390625 286.200195312 68.400390625 252 133.799804688 c 132,-1,37
 217.799804688 199.200195312 217.799804688 199.200195312 217.799804688 292.799804688 c 4,38,39
 217.799804688 423.599609375 217.799804688 423.599609375 312 678.599609375 c 132,-1,40
 406.200195312 933.599609375 406.200195312 933.599609375 406.200195312 980.400390625 c 132,-1,41
 406.200195312 1027.20019531 406.200195312 1027.20019531 367.799804688 1027.20019531 c 4,42,43
 318.599609375 1027.20019531 318.599609375 1027.20019531 259.200195312 964.799804688 c 132,-1,44
 199.799804688 902.400390625 199.799804688 902.400390625 153 750 c 4,45,46
 143.400390625 712.799804688 143.400390625 712.799804688 130.200195312 703.200195312 c 132,-1,47
 117 693.599609375 117 693.599609375 87 693.599609375 c 6,48,-1
 67.7998046875 693.599609375 l 6,49,50
 66.599609375 693.599609375 66.599609375 693.599609375 65.400390625 693.599609375 c 4,51,52
 13.7998046875 693.599609375 13.7998046875 693.599609375 13.7998046875 734.400390625 c 4,0,1
EndSplineSet
Validated: 513
Substitution2: "'fwid' Full Widths lookup 32 subtable" uniFF56
Substitution2: "'smcp' Lowercase to Small Capitals lookup 27 subtable" v.sc
AlternateSubs2: "'aalt' Access All Alternates lookup 1 subtable" v.sc uniFF56
EndChar

